<svg width="460" height="828" viewBox="0 0 460 828" fill="none" xmlns="http://www.w3.org/2000/svg">
<rect width="460" height="828" fill="#E9E9E9"/>
<rect x="20.5" y="20.5" width="419" height="39" fill="#1342FF" fill-opacity="0.1"/>
<rect x="20.5" y="20.5" width="419" height="39" stroke="#1342FF"/>
<path d="M142.12 36.568V35.2H149.41V36.568H146.584V44.632H149.41V46H142.12V44.632H144.946V36.568H142.12ZM152.847 46V37.594H154.323V39.682H154.593C155.115 38.404 156.177 37.378 157.509 37.378C158.967 37.378 159.831 38.404 159.831 40.276V46H158.265V40.636C158.265 39.466 157.869 38.8 156.807 38.8C155.403 38.8 154.413 39.916 154.413 41.374V46H152.847ZM166.959 46.216C164.529 46.216 163.341 45.172 162.981 43.624L164.421 43.336C164.709 44.362 165.465 45.064 166.977 45.064C168.237 45.064 169.047 44.668 169.047 43.804C169.047 42.868 168.021 42.58 166.689 42.364C164.871 42.076 163.431 41.554 163.431 39.862C163.431 38.422 164.565 37.378 166.869 37.378C169.155 37.378 169.947 38.35 170.307 39.664L168.885 39.934C168.615 38.854 167.949 38.512 166.815 38.512C165.555 38.512 164.943 38.962 164.943 39.736C164.943 40.672 165.915 40.924 167.175 41.14C169.209 41.464 170.613 41.932 170.613 43.714C170.613 45.136 169.479 46.216 166.959 46.216ZM175.346 42.886V38.836H173.186V37.594H175.346V35.2H176.912V37.594H181.106V38.836H176.912V42.652C176.912 44.11 177.47 44.866 178.91 44.866C179.522 44.866 180.17 44.722 180.998 44.362L181.304 45.586C180.368 46 179.54 46.216 178.568 46.216C176.318 46.216 175.346 44.812 175.346 42.886ZM184.777 46V37.594H186.199V40.078L186.361 40.096C187.009 38.278 188.233 37.414 189.727 37.414C190.537 37.414 191.149 37.594 191.995 38.008L191.635 39.43C190.897 39.034 190.141 38.818 189.457 38.818C187.567 38.818 186.325 39.988 186.325 42.076V46H184.777ZM194.892 43.318V37.594H196.458V42.958C196.458 44.128 196.872 44.776 197.916 44.776C199.32 44.776 200.31 43.678 200.31 42.202V37.594H201.858V46H200.382V43.894H200.112C199.59 45.19 198.528 46.216 197.214 46.216C195.756 46.216 194.892 45.19 194.892 43.318ZM204.99 41.86C204.99 39.052 206.538 37.378 209.112 37.378C211.254 37.378 212.442 38.386 212.802 40.24L211.38 40.564C211.092 39.394 210.48 38.656 209.076 38.656C207.438 38.656 206.574 39.718 206.574 41.806C206.574 43.696 207.33 44.92 209.112 44.92C210.498 44.92 211.182 44.02 211.434 43.03L212.838 43.462C212.46 45.208 211.146 46.216 209.13 46.216C206.466 46.216 204.99 44.632 204.99 41.86ZM217.463 42.886V38.836H215.303V37.594H217.463V35.2H219.029V37.594H223.223V38.836H219.029V42.652C219.029 44.11 219.587 44.866 221.027 44.866C221.639 44.866 222.287 44.722 223.115 44.362L223.421 45.586C222.485 46 221.657 46.216 220.685 46.216C218.435 46.216 217.463 44.812 217.463 42.886ZM226.174 46V44.758H229.414V38.836H226.336V37.594H230.98V44.758H233.824V46H226.174ZM228.892 35.632V34.156H231.052V35.632H228.892ZM236.452 41.77C236.452 39.178 238.036 37.378 240.538 37.378C243.022 37.378 244.606 39.178 244.606 41.77C244.606 44.344 243.148 46.216 240.538 46.216C237.91 46.216 236.452 44.344 236.452 41.77ZM238.018 41.752C238.018 43.552 238.756 44.938 240.52 44.938C242.284 44.938 243.04 43.552 243.04 41.752C243.04 39.952 242.23 38.656 240.538 38.656C238.828 38.656 238.018 39.952 238.018 41.752ZM247.611 46V37.594H249.087V39.682H249.357C249.879 38.404 250.941 37.378 252.273 37.378C253.731 37.378 254.595 38.404 254.595 40.276V46H253.029V40.636C253.029 39.466 252.633 38.8 251.571 38.8C250.167 38.8 249.177 39.916 249.177 41.374V46H247.611ZM267.968 40.582C267.968 36.964 269.48 34.984 272.216 34.984C274.466 34.984 275.726 36.244 276.032 38.602L274.484 38.962C274.16 37.18 273.53 36.406 272.18 36.406C270.272 36.406 269.624 37.99 269.624 40.582C269.624 43.318 270.29 44.83 272.144 44.83C273.638 44.83 274.232 44.02 274.574 42.202L276.122 42.544C275.78 44.956 274.538 46.216 272.144 46.216C269.354 46.216 267.968 44.218 267.968 40.582ZM281.341 46.18C279.793 46.18 278.695 45.316 278.695 43.804C278.695 42.4 279.649 41.392 281.755 41.392H284.509V40.492C284.509 39.448 283.969 38.638 282.655 38.638C281.521 38.638 280.837 39.25 280.513 40.042L279.091 39.538C279.541 38.332 280.819 37.378 282.691 37.378C284.977 37.378 286.075 38.584 286.075 40.474V46H284.671V44.11H284.383C283.897 45.298 282.871 46.18 281.341 46.18ZM284.509 42.346H282.061C280.855 42.346 280.153 42.832 280.153 43.714C280.153 44.38 280.711 44.974 281.917 44.974C283.447 44.974 284.509 44.074 284.509 42.868V42.346ZM289.224 41.86C289.224 39.052 290.772 37.378 293.346 37.378C295.488 37.378 296.676 38.386 297.036 40.24L295.614 40.564C295.326 39.394 294.714 38.656 293.31 38.656C291.672 38.656 290.808 39.718 290.808 41.806C290.808 43.696 291.564 44.92 293.346 44.92C294.732 44.92 295.416 44.02 295.668 43.03L297.072 43.462C296.694 45.208 295.38 46.216 293.364 46.216C290.7 46.216 289.224 44.632 289.224 41.86ZM300.257 46V33.94H301.823V39.682H302.021C302.579 38.422 303.533 37.378 304.973 37.378C306.377 37.378 307.241 38.404 307.241 40.276V46H305.675V40.636C305.675 39.466 305.207 38.8 304.253 38.8C302.795 38.8 301.823 39.916 301.823 41.374V46H300.257ZM314.423 46.216C311.867 46.216 310.337 44.668 310.337 41.86C310.337 39.052 311.957 37.378 314.423 37.378C316.835 37.378 318.113 38.872 318.113 41.194C318.113 41.446 318.095 41.842 318.041 42.184H311.903C311.993 43.984 312.803 44.974 314.423 44.974C315.791 44.974 316.421 44.236 316.673 43.372L318.005 43.714C317.627 45.172 316.511 46.216 314.423 46.216ZM311.921 41.14H316.655C316.619 39.448 315.881 38.53 314.387 38.53C312.929 38.53 312.083 39.376 311.921 41.14Z" fill="#1342FF"/>
<rect x="20.5" y="72.5" width="419" height="39" fill="#786823" fill-opacity="0.1"/>
<rect x="20.5" y="72.5" width="419" height="39" stroke="#786823"/>
<path d="M188.67 98V87.2H191.208L192.216 92.096C192.378 92.888 192.504 94.04 192.684 95.264H192.972C193.188 93.698 193.368 92.474 193.638 91.016L194.322 87.2H196.86V98H195.402V92.87C195.402 91.376 195.51 89.684 195.582 88.532H195.186C195.006 89.702 194.844 91.034 194.61 92.168L193.638 96.668H191.928L190.83 91.736C190.65 90.908 190.434 89.612 190.254 88.532H189.93C189.984 89.648 190.11 91.214 190.11 92.402V98H188.67ZM202.475 98V88.622H199.037V87.2H207.533V88.622H204.113V98H202.475ZM220.708 88.568V87.2H227.998V88.568H225.172V96.632H227.998V98H220.708V96.632H223.534V88.568H220.708ZM235.017 98.216C232.587 98.216 231.399 97.172 231.039 95.624L232.479 95.336C232.767 96.362 233.523 97.064 235.035 97.064C236.295 97.064 237.105 96.668 237.105 95.804C237.105 94.868 236.079 94.58 234.747 94.364C232.929 94.076 231.489 93.554 231.489 91.862C231.489 90.422 232.623 89.378 234.927 89.378C237.213 89.378 238.005 90.35 238.365 91.664L236.943 91.934C236.673 90.854 236.007 90.512 234.873 90.512C233.613 90.512 233.001 90.962 233.001 91.736C233.001 92.672 233.973 92.924 235.233 93.14C237.267 93.464 238.671 93.932 238.671 95.714C238.671 97.136 237.537 98.216 235.017 98.216ZM245.546 98.216C243.116 98.216 241.928 97.172 241.568 95.624L243.008 95.336C243.296 96.362 244.052 97.064 245.564 97.064C246.824 97.064 247.634 96.668 247.634 95.804C247.634 94.868 246.608 94.58 245.276 94.364C243.458 94.076 242.018 93.554 242.018 91.862C242.018 90.422 243.152 89.378 245.456 89.378C247.742 89.378 248.534 90.35 248.894 91.664L247.472 91.934C247.202 90.854 246.536 90.512 245.402 90.512C244.142 90.512 243.53 90.962 243.53 91.736C243.53 92.672 244.502 92.924 245.762 93.14C247.796 93.464 249.2 93.932 249.2 95.714C249.2 97.136 248.066 98.216 245.546 98.216ZM252.422 95.318V89.594H253.988V94.958C253.988 96.128 254.402 96.776 255.446 96.776C256.85 96.776 257.84 95.678 257.84 94.202V89.594H259.388V98H257.912V95.894H257.642C257.12 97.19 256.058 98.216 254.744 98.216C253.286 98.216 252.422 97.19 252.422 95.318ZM266.659 98.216C264.103 98.216 262.573 96.668 262.573 93.86C262.573 91.052 264.193 89.378 266.659 89.378C269.071 89.378 270.349 90.872 270.349 93.194C270.349 93.446 270.331 93.842 270.277 94.184H264.139C264.229 95.984 265.039 96.974 266.659 96.974C268.027 96.974 268.657 96.236 268.909 95.372L270.241 95.714C269.863 97.172 268.747 98.216 266.659 98.216ZM264.157 93.14H268.891C268.855 91.448 268.117 90.53 266.623 90.53C265.165 90.53 264.319 91.376 264.157 93.14Z" fill="#786823"/>
<rect x="20.5" y="124.5" width="419" height="39" fill="#1342FF" fill-opacity="0.1"/>
<rect x="20.5" y="124.5" width="419" height="39" stroke="#1342FF"/>
<path d="M152.146 144.582C152.146 140.964 153.658 138.984 156.394 138.984C158.644 138.984 159.904 140.244 160.21 142.602L158.662 142.962C158.338 141.18 157.708 140.406 156.358 140.406C154.45 140.406 153.802 141.99 153.802 144.582C153.802 147.318 154.468 148.83 156.322 148.83C157.816 148.83 158.41 148.02 158.752 146.202L160.3 146.544C159.958 148.956 158.716 150.216 156.322 150.216C153.532 150.216 152.146 148.218 152.146 144.582ZM162.748 145.77C162.748 143.178 164.332 141.378 166.834 141.378C169.318 141.378 170.902 143.178 170.902 145.77C170.902 148.344 169.444 150.216 166.834 150.216C164.206 150.216 162.748 148.344 162.748 145.77ZM164.314 145.752C164.314 147.552 165.052 148.938 166.816 148.938C168.58 148.938 169.336 147.552 169.336 145.752C169.336 143.952 168.526 142.656 166.834 142.656C165.124 142.656 164.314 143.952 164.314 145.752ZM173.907 150V141.594H175.383V143.682H175.653C176.175 142.404 177.237 141.378 178.569 141.378C180.027 141.378 180.891 142.404 180.891 144.276V150H179.325V144.636C179.325 143.466 178.929 142.8 177.867 142.8C176.463 142.8 175.473 143.916 175.473 145.374V150H173.907ZM188.018 150.216C185.588 150.216 184.4 149.172 184.04 147.624L185.48 147.336C185.768 148.362 186.524 149.064 188.036 149.064C189.296 149.064 190.106 148.668 190.106 147.804C190.106 146.868 189.08 146.58 187.748 146.364C185.93 146.076 184.49 145.554 184.49 143.862C184.49 142.422 185.624 141.378 187.928 141.378C190.214 141.378 191.006 142.35 191.366 143.664L189.944 143.934C189.674 142.854 189.008 142.512 187.874 142.512C186.614 142.512 186.002 142.962 186.002 143.736C186.002 144.672 186.974 144.924 188.234 145.14C190.268 145.464 191.672 145.932 191.672 147.714C191.672 149.136 190.538 150.216 188.018 150.216ZM196.405 146.886V142.836H194.245V141.594H196.405V139.2H197.971V141.594H202.165V142.836H197.971V146.652C197.971 148.11 198.529 148.866 199.969 148.866C200.581 148.866 201.229 148.722 202.057 148.362L202.363 149.586C201.427 150 200.599 150.216 199.627 150.216C197.377 150.216 196.405 148.812 196.405 146.886ZM207.637 150.18C206.089 150.18 204.991 149.316 204.991 147.804C204.991 146.4 205.945 145.392 208.051 145.392H210.805V144.492C210.805 143.448 210.265 142.638 208.951 142.638C207.817 142.638 207.133 143.25 206.809 144.042L205.387 143.538C205.837 142.332 207.115 141.378 208.987 141.378C211.273 141.378 212.371 142.584 212.371 144.474V150H210.967V148.11H210.679C210.193 149.298 209.167 150.18 207.637 150.18ZM210.805 146.346H208.357C207.151 146.346 206.449 146.832 206.449 147.714C206.449 148.38 207.007 148.974 208.213 148.974C209.743 148.974 210.805 148.074 210.805 146.868V146.346ZM216.024 150V141.594H217.5V143.682H217.77C218.292 142.404 219.354 141.378 220.686 141.378C222.144 141.378 223.008 142.404 223.008 144.276V150H221.442V144.636C221.442 143.466 221.046 142.8 219.984 142.8C218.58 142.8 217.59 143.916 217.59 145.374V150H216.024ZM227.993 146.886V142.836H225.833V141.594H227.993V139.2H229.559V141.594H233.753V142.836H229.559V146.652C229.559 148.11 230.117 148.866 231.557 148.866C232.169 148.866 232.817 148.722 233.645 148.362L233.951 149.586C233.015 150 232.187 150.216 231.215 150.216C228.965 150.216 227.993 148.812 227.993 146.886ZM240.665 150.216C238.235 150.216 237.047 149.172 236.687 147.624L238.127 147.336C238.415 148.362 239.171 149.064 240.683 149.064C241.943 149.064 242.753 148.668 242.753 147.804C242.753 146.868 241.727 146.58 240.395 146.364C238.577 146.076 237.137 145.554 237.137 143.862C237.137 142.422 238.271 141.378 240.575 141.378C242.861 141.378 243.653 142.35 244.013 143.664L242.591 143.934C242.321 142.854 241.655 142.512 240.521 142.512C239.261 142.512 238.649 142.962 238.649 143.736C238.649 144.672 239.621 144.924 240.881 145.14C242.915 145.464 244.319 145.932 244.319 147.714C244.319 149.136 243.185 150.216 240.665 150.216ZM257.439 144.582C257.439 140.964 258.951 138.984 261.687 138.984C263.937 138.984 265.197 140.244 265.503 142.602L263.955 142.962C263.631 141.18 263.001 140.406 261.651 140.406C259.743 140.406 259.095 141.99 259.095 144.582C259.095 147.318 259.761 148.83 261.615 148.83C263.109 148.83 263.703 148.02 264.045 146.202L265.593 146.544C265.251 148.956 264.009 150.216 261.615 150.216C258.825 150.216 257.439 148.218 257.439 144.582ZM270.813 150.18C269.265 150.18 268.167 149.316 268.167 147.804C268.167 146.4 269.121 145.392 271.227 145.392H273.981V144.492C273.981 143.448 273.441 142.638 272.127 142.638C270.993 142.638 270.309 143.25 269.985 144.042L268.563 143.538C269.013 142.332 270.291 141.378 272.163 141.378C274.449 141.378 275.547 142.584 275.547 144.474V150H274.143V148.11H273.855C273.369 149.298 272.343 150.18 270.813 150.18ZM273.981 146.346H271.533C270.327 146.346 269.625 146.832 269.625 147.714C269.625 148.38 270.183 148.974 271.389 148.974C272.919 148.974 273.981 148.074 273.981 146.868V146.346ZM278.696 145.86C278.696 143.052 280.244 141.378 282.818 141.378C284.96 141.378 286.148 142.386 286.508 144.24L285.086 144.564C284.798 143.394 284.186 142.656 282.782 142.656C281.144 142.656 280.28 143.718 280.28 145.806C280.28 147.696 281.036 148.92 282.818 148.92C284.204 148.92 284.888 148.02 285.14 147.03L286.544 147.462C286.166 149.208 284.852 150.216 282.836 150.216C280.172 150.216 278.696 148.632 278.696 145.86ZM289.729 150V137.94H291.295V143.682H291.493C292.051 142.422 293.005 141.378 294.445 141.378C295.849 141.378 296.713 142.404 296.713 144.276V150H295.147V144.636C295.147 143.466 294.679 142.8 293.725 142.8C292.267 142.8 291.295 143.916 291.295 145.374V150H289.729ZM303.894 150.216C301.338 150.216 299.808 148.668 299.808 145.86C299.808 143.052 301.428 141.378 303.894 141.378C306.306 141.378 307.584 142.872 307.584 145.194C307.584 145.446 307.566 145.842 307.512 146.184H301.374C301.464 147.984 302.274 148.974 303.894 148.974C305.262 148.974 305.892 148.236 306.144 147.372L307.476 147.714C307.098 149.172 305.982 150.216 303.894 150.216ZM301.392 145.14H306.126C306.09 143.448 305.352 142.53 303.858 142.53C302.4 142.53 301.554 143.376 301.392 145.14Z" fill="#1342FF"/>
<rect x="20.5" y="176.5" width="419" height="79" fill="#1342FF" fill-opacity="0.1"/>
<rect x="20.5" y="176.5" width="419" height="79" stroke="#1342FF"/>
<path d="M147.566 222V211.2H151.292C153.758 211.2 154.892 212.352 154.892 214.53C154.892 216.15 154.172 217.266 152.858 217.734L155.36 221.64V222H153.524L151.22 217.986H149.204V222H147.566ZM149.204 216.654H151.148C152.552 216.654 153.254 215.988 153.254 214.548C153.254 213.144 152.714 212.55 151.112 212.55H149.204V216.654ZM158.257 222V211.2H165.349V212.622H159.895V216.564H164.629V217.932H159.895V222H158.257ZM180.126 217.428C180.126 214.17 181.656 211.218 185.328 208.572L186.3 209.256C183.006 211.848 181.8 214.386 181.8 217.428C181.8 220.488 183.024 223.026 186.3 225.618L185.328 226.284C181.656 223.638 180.126 220.686 180.126 217.428ZM189.287 212.55L193.463 211.2H194.363V220.65H196.973V222H189.521V220.65H192.779V212.514C191.897 213.036 190.889 213.522 189.809 213.9L189.287 212.55ZM201.436 224.52V224.322L202.606 219.102H204.964L202.462 224.52H201.436ZM214.215 222.216C211.587 222.216 210.147 219.858 210.147 216.582C210.147 213.306 211.605 210.984 214.215 210.984C216.807 210.984 218.265 213.306 218.265 216.582C218.265 219.858 216.825 222.216 214.215 222.216ZM214.215 220.866C215.943 220.866 216.717 219.138 216.717 216.582C216.717 214.044 215.925 212.334 214.215 212.334C212.505 212.334 211.695 214.044 211.695 216.582C211.695 219.138 212.487 220.866 214.215 220.866ZM213.477 217.392V215.7H214.935V217.392H213.477ZM220.785 222C220.767 221.694 220.767 221.37 220.767 221.046C220.767 218.652 221.703 217.734 223.863 216.942C226.293 216.114 226.923 215.412 226.923 214.152C226.923 213.054 226.365 212.28 225.033 212.28C223.539 212.28 222.891 213.27 222.657 214.782L221.127 214.512C221.487 212.406 222.675 211.002 225.015 211.002C227.265 211.002 228.507 212.154 228.507 214.26C228.507 216.33 226.887 217.248 224.817 217.932C222.639 218.688 222.027 219.264 221.973 220.938C223.035 220.776 224.727 220.65 225.879 220.65H228.615V222H220.785ZM230.846 218.958V217.932L235.94 211.2H237.938V217.716H239.684V218.958H237.938V222H236.354V218.958H230.846ZM236.354 217.716V212.478L236.156 212.406L232.142 217.752L232.322 218.058C233.492 217.842 234.95 217.716 235.958 217.716H236.354ZM241.789 218.94L243.355 218.652C243.643 219.912 244.489 220.956 246.001 220.956C247.441 220.956 248.161 220.128 248.161 218.994C248.161 217.842 247.567 217.158 246.127 217.158H244.453V216.024H246.091C247.081 216.024 247.801 215.502 247.801 214.17C247.801 212.982 247.153 212.262 245.983 212.262C244.669 212.262 244.021 213.18 243.751 214.422L242.257 214.242C242.581 212.406 243.733 211.02 245.965 211.02C248.143 211.02 249.349 212.046 249.349 213.882C249.349 215.322 248.521 216.096 247.027 216.402V216.78C249.115 216.924 249.763 217.626 249.763 219.156C249.763 220.884 248.449 222.18 246.001 222.18C243.697 222.18 242.167 220.956 241.789 218.94ZM252.373 222C252.355 221.694 252.355 221.37 252.355 221.046C252.355 218.652 253.291 217.734 255.451 216.942C257.881 216.114 258.511 215.412 258.511 214.152C258.511 213.054 257.953 212.28 256.621 212.28C255.127 212.28 254.479 213.27 254.245 214.782L252.715 214.512C253.075 212.406 254.263 211.002 256.603 211.002C258.853 211.002 260.095 212.154 260.095 214.26C260.095 216.33 258.475 217.248 256.405 217.932C254.227 218.688 253.615 219.264 253.561 220.938C254.623 220.776 256.315 220.65 257.467 220.65H260.203V222H252.373ZM264.036 217.644V216.114H269.67V217.644H264.036ZM281.567 217.842C281.567 220.614 280.235 222.216 278.525 222.216C277.211 222.216 276.131 221.208 275.627 219.966H275.411V222H273.845V209.94H275.411V215.574H275.627C276.113 214.35 277.013 213.378 278.453 213.378C280.253 213.378 281.567 215.034 281.567 217.842ZM275.411 217.266V218.436C275.411 219.822 276.365 220.866 277.715 220.866C279.191 220.866 280.037 219.786 280.037 217.824C280.037 215.844 279.173 214.8 277.733 214.8C276.347 214.8 275.411 215.826 275.411 217.266ZM284.086 222V220.758H287.326V214.836H284.248V213.594H288.892V220.758H291.736V222H284.086ZM286.804 211.632V210.156H288.964V211.632H286.804ZM296.434 218.886V214.836H294.274V213.594H296.434V211.2H298V213.594H302.194V214.836H298V218.652C298 220.11 298.558 220.866 299.998 220.866C300.61 220.866 301.258 220.722 302.086 220.362L302.392 221.586C301.456 222 300.628 222.216 299.656 222.216C297.406 222.216 296.434 220.812 296.434 218.886ZM311.463 217.428C311.463 220.686 309.933 223.638 306.261 226.284L305.289 225.6C308.583 223.008 309.789 220.47 309.789 217.428C309.789 214.368 308.565 211.83 305.289 209.238L306.261 208.572C309.933 211.218 311.463 214.17 311.463 217.428Z" fill="#1342FF"/>
<mask id="path-9-inside-1_440_3837" fill="white">
<path d="M20 268H140V388H20V268Z"/>
</mask>
<path d="M20 268H140V388H20V268Z" fill="#212525" fill-opacity="0.2"/>
<path d="M20 268V267.277H19.2768V268H20ZM140 268H140.723V267.277H140V268ZM20 268.723H140V267.277H20V268.723ZM139.277 268V388H140.723V268H139.277ZM20.7232 388V268H19.2768V388H20.7232Z" fill="#212525" mask="url(#path-9-inside-1_440_3837)"/>
<path d="M59.616 328.582C59.616 324.964 61.128 322.984 63.864 322.984C66.114 322.984 67.374 324.244 67.68 326.602L66.132 326.962C65.808 325.18 65.178 324.406 63.828 324.406C61.92 324.406 61.272 325.99 61.272 328.582C61.272 331.318 61.938 332.83 63.792 332.83C65.286 332.83 65.88 332.02 66.222 330.202L67.77 330.544C67.428 332.956 66.186 334.216 63.792 334.216C61.002 334.216 59.616 332.218 59.616 328.582ZM70.2173 329.77C70.2173 327.178 71.8013 325.378 74.3033 325.378C76.7873 325.378 78.3713 327.178 78.3713 329.77C78.3713 332.344 76.9133 334.216 74.3033 334.216C71.6753 334.216 70.2173 332.344 70.2173 329.77ZM71.7833 329.752C71.7833 331.552 72.5213 332.938 74.2853 332.938C76.0493 332.938 76.8053 331.552 76.8053 329.752C76.8053 327.952 75.9953 326.656 74.3033 326.656C72.5933 326.656 71.7833 327.952 71.7833 329.752ZM81.7186 334V325.594H83.1406V328.078L83.3026 328.096C83.9506 326.278 85.1746 325.414 86.6686 325.414C87.4786 325.414 88.0906 325.594 88.9366 326.008L88.5766 327.43C87.8386 327.034 87.0826 326.818 86.3986 326.818C84.5086 326.818 83.2666 327.988 83.2666 330.076V334H81.7186ZM95.5419 334.216C92.9859 334.216 91.4559 332.668 91.4559 329.86C91.4559 327.052 93.0759 325.378 95.5419 325.378C97.9539 325.378 99.2319 326.872 99.2319 329.194C99.2319 329.446 99.2139 329.842 99.1599 330.184H93.0219C93.1119 331.984 93.9219 332.974 95.5419 332.974C96.9099 332.974 97.5399 332.236 97.7919 331.372L99.1239 331.714C98.7459 333.172 97.6299 334.216 95.5419 334.216ZM93.0399 329.14H97.7739C97.7379 327.448 96.9999 326.53 95.5059 326.53C94.0479 326.53 93.2019 327.376 93.0399 329.14Z" fill="#212525"/>
<mask id="path-12-inside-2_440_3837" fill="white">
<path d="M140 268H260V388H140V268Z"/>
</mask>
<path d="M140 268H260V388H140V268Z" fill="#212525" fill-opacity="0.2"/>
<path d="M260 268H260.723V267.277H260V268ZM140 268.723H260V267.277H140V268.723ZM259.277 268V388H260.723V268H259.277Z" fill="#212525" mask="url(#path-12-inside-2_440_3837)"/>
<path d="M179.616 328.582C179.616 324.964 181.128 322.984 183.864 322.984C186.114 322.984 187.374 324.244 187.68 326.602L186.132 326.962C185.808 325.18 185.178 324.406 183.828 324.406C181.92 324.406 181.272 325.99 181.272 328.582C181.272 331.318 181.938 332.83 183.792 332.83C185.286 332.83 185.88 332.02 186.222 330.202L187.77 330.544C187.428 332.956 186.186 334.216 183.792 334.216C181.002 334.216 179.616 332.218 179.616 328.582ZM190.217 329.77C190.217 327.178 191.801 325.378 194.303 325.378C196.787 325.378 198.371 327.178 198.371 329.77C198.371 332.344 196.913 334.216 194.303 334.216C191.675 334.216 190.217 332.344 190.217 329.77ZM191.783 329.752C191.783 331.552 192.521 332.938 194.285 332.938C196.049 332.938 196.805 331.552 196.805 329.752C196.805 327.952 195.995 326.656 194.303 326.656C192.593 326.656 191.783 327.952 191.783 329.752ZM201.719 334V325.594H203.141V328.078L203.303 328.096C203.951 326.278 205.175 325.414 206.669 325.414C207.479 325.414 208.091 325.594 208.937 326.008L208.577 327.43C207.839 327.034 207.083 326.818 206.399 326.818C204.509 326.818 203.267 327.988 203.267 330.076V334H201.719ZM215.542 334.216C212.986 334.216 211.456 332.668 211.456 329.86C211.456 327.052 213.076 325.378 215.542 325.378C217.954 325.378 219.232 326.872 219.232 329.194C219.232 329.446 219.214 329.842 219.16 330.184H213.022C213.112 331.984 213.922 332.974 215.542 332.974C216.91 332.974 217.54 332.236 217.792 331.372L219.124 331.714C218.746 333.172 217.63 334.216 215.542 334.216ZM213.04 329.14H217.774C217.738 327.448 217 326.53 215.506 326.53C214.048 326.53 213.202 327.376 213.04 329.14Z" fill="#212525"/>
<mask id="path-15-inside-3_440_3837" fill="white">
<path d="M20 388H140V508H20V388Z"/>
</mask>
<path d="M20 388H140V508H20V388Z" fill="#212525" fill-opacity="0.2"/>
<path d="M20 388V387.277H19.2768V388H20ZM140 388H140.723V387.277H140V388ZM20 388.723H140V387.277H20V388.723ZM139.277 388V508H140.723V388H139.277ZM20.7232 508V388H19.2768V508H20.7232Z" fill="#212525" mask="url(#path-15-inside-3_440_3837)"/>
<path d="M59.616 448.582C59.616 444.964 61.128 442.984 63.864 442.984C66.114 442.984 67.374 444.244 67.68 446.602L66.132 446.962C65.808 445.18 65.178 444.406 63.828 444.406C61.92 444.406 61.272 445.99 61.272 448.582C61.272 451.318 61.938 452.83 63.792 452.83C65.286 452.83 65.88 452.02 66.222 450.202L67.77 450.544C67.428 452.956 66.186 454.216 63.792 454.216C61.002 454.216 59.616 452.218 59.616 448.582ZM70.2173 449.77C70.2173 447.178 71.8013 445.378 74.3033 445.378C76.7873 445.378 78.3713 447.178 78.3713 449.77C78.3713 452.344 76.9133 454.216 74.3033 454.216C71.6753 454.216 70.2173 452.344 70.2173 449.77ZM71.7833 449.752C71.7833 451.552 72.5213 452.938 74.2853 452.938C76.0493 452.938 76.8053 451.552 76.8053 449.752C76.8053 447.952 75.9953 446.656 74.3033 446.656C72.5933 446.656 71.7833 447.952 71.7833 449.752ZM81.7186 454V445.594H83.1406V448.078L83.3026 448.096C83.9506 446.278 85.1746 445.414 86.6686 445.414C87.4786 445.414 88.0906 445.594 88.9366 446.008L88.5766 447.43C87.8386 447.034 87.0826 446.818 86.3986 446.818C84.5086 446.818 83.2666 447.988 83.2666 450.076V454H81.7186ZM95.5419 454.216C92.9859 454.216 91.4559 452.668 91.4559 449.86C91.4559 447.052 93.0759 445.378 95.5419 445.378C97.9539 445.378 99.2319 446.872 99.2319 449.194C99.2319 449.446 99.2139 449.842 99.1599 450.184H93.0219C93.1119 451.984 93.9219 452.974 95.5419 452.974C96.9099 452.974 97.5399 452.236 97.7919 451.372L99.1239 451.714C98.7459 453.172 97.6299 454.216 95.5419 454.216ZM93.0399 449.14H97.7739C97.7379 447.448 96.9999 446.53 95.5059 446.53C94.0479 446.53 93.2019 447.376 93.0399 449.14Z" fill="#212525"/>
<mask id="path-18-inside-4_440_3837" fill="white">
<path d="M140 388H260V508H140V388Z"/>
</mask>
<path d="M140 388H260V508H140V388Z" fill="#212525" fill-opacity="0.2"/>
<path d="M260 388H260.723V387.277H260V388ZM140 388.723H260V387.277H140V388.723ZM259.277 388V508H260.723V388H259.277Z" fill="#212525" mask="url(#path-18-inside-4_440_3837)"/>
<path d="M179.616 448.582C179.616 444.964 181.128 442.984 183.864 442.984C186.114 442.984 187.374 444.244 187.68 446.602L186.132 446.962C185.808 445.18 185.178 444.406 183.828 444.406C181.92 444.406 181.272 445.99 181.272 448.582C181.272 451.318 181.938 452.83 183.792 452.83C185.286 452.83 185.88 452.02 186.222 450.202L187.77 450.544C187.428 452.956 186.186 454.216 183.792 454.216C181.002 454.216 179.616 452.218 179.616 448.582ZM190.217 449.77C190.217 447.178 191.801 445.378 194.303 445.378C196.787 445.378 198.371 447.178 198.371 449.77C198.371 452.344 196.913 454.216 194.303 454.216C191.675 454.216 190.217 452.344 190.217 449.77ZM191.783 449.752C191.783 451.552 192.521 452.938 194.285 452.938C196.049 452.938 196.805 451.552 196.805 449.752C196.805 447.952 195.995 446.656 194.303 446.656C192.593 446.656 191.783 447.952 191.783 449.752ZM201.719 454V445.594H203.141V448.078L203.303 448.096C203.951 446.278 205.175 445.414 206.669 445.414C207.479 445.414 208.091 445.594 208.937 446.008L208.577 447.43C207.839 447.034 207.083 446.818 206.399 446.818C204.509 446.818 203.267 447.988 203.267 450.076V454H201.719ZM215.542 454.216C212.986 454.216 211.456 452.668 211.456 449.86C211.456 447.052 213.076 445.378 215.542 445.378C217.954 445.378 219.232 446.872 219.232 449.194C219.232 449.446 219.214 449.842 219.16 450.184H213.022C213.112 451.984 213.922 452.974 215.542 452.974C216.91 452.974 217.54 452.236 217.792 451.372L219.124 451.714C218.746 453.172 217.63 454.216 215.542 454.216ZM213.04 449.14H217.774C217.738 447.448 217 446.53 215.506 446.53C214.048 446.53 213.202 447.376 213.04 449.14Z" fill="#212525"/>
<mask id="path-21-inside-5_440_3837" fill="white">
<path d="M20 508H140V628H20V508Z"/>
</mask>
<path d="M20 508H140V628H20V508Z" fill="#212525" fill-opacity="0.2"/>
<path d="M20 508V507.277H19.2768V508H20ZM140 508H140.723V507.277H140V508ZM20 508.723H140V507.277H20V508.723ZM139.277 508V628H140.723V508H139.277ZM20.7232 628V508H19.2768V628H20.7232Z" fill="#212525" mask="url(#path-21-inside-5_440_3837)"/>
<path d="M59.616 568.582C59.616 564.964 61.128 562.984 63.864 562.984C66.114 562.984 67.374 564.244 67.68 566.602L66.132 566.962C65.808 565.18 65.178 564.406 63.828 564.406C61.92 564.406 61.272 565.99 61.272 568.582C61.272 571.318 61.938 572.83 63.792 572.83C65.286 572.83 65.88 572.02 66.222 570.202L67.77 570.544C67.428 572.956 66.186 574.216 63.792 574.216C61.002 574.216 59.616 572.218 59.616 568.582ZM70.2173 569.77C70.2173 567.178 71.8013 565.378 74.3033 565.378C76.7873 565.378 78.3713 567.178 78.3713 569.77C78.3713 572.344 76.9133 574.216 74.3033 574.216C71.6753 574.216 70.2173 572.344 70.2173 569.77ZM71.7833 569.752C71.7833 571.552 72.5213 572.938 74.2853 572.938C76.0493 572.938 76.8053 571.552 76.8053 569.752C76.8053 567.952 75.9953 566.656 74.3033 566.656C72.5933 566.656 71.7833 567.952 71.7833 569.752ZM81.7186 574V565.594H83.1406V568.078L83.3026 568.096C83.9506 566.278 85.1746 565.414 86.6686 565.414C87.4786 565.414 88.0906 565.594 88.9366 566.008L88.5766 567.43C87.8386 567.034 87.0826 566.818 86.3986 566.818C84.5086 566.818 83.2666 567.988 83.2666 570.076V574H81.7186ZM95.5419 574.216C92.9859 574.216 91.4559 572.668 91.4559 569.86C91.4559 567.052 93.0759 565.378 95.5419 565.378C97.9539 565.378 99.2319 566.872 99.2319 569.194C99.2319 569.446 99.2139 569.842 99.1599 570.184H93.0219C93.1119 571.984 93.9219 572.974 95.5419 572.974C96.9099 572.974 97.5399 572.236 97.7919 571.372L99.1239 571.714C98.7459 573.172 97.6299 574.216 95.5419 574.216ZM93.0399 569.14H97.7739C97.7379 567.448 96.9999 566.53 95.5059 566.53C94.0479 566.53 93.2019 567.376 93.0399 569.14Z" fill="#212525"/>
<mask id="path-24-inside-6_440_3837" fill="white">
<path d="M140 508H260V628H140V508Z"/>
</mask>
<path d="M140 508H260V628H140V508Z" fill="#212525" fill-opacity="0.2"/>
<path d="M260 508H260.723V507.277H260V508ZM140 508.723H260V507.277H140V508.723ZM259.277 508V628H260.723V508H259.277Z" fill="#212525" mask="url(#path-24-inside-6_440_3837)"/>
<path d="M179.616 568.582C179.616 564.964 181.128 562.984 183.864 562.984C186.114 562.984 187.374 564.244 187.68 566.602L186.132 566.962C185.808 565.18 185.178 564.406 183.828 564.406C181.92 564.406 181.272 565.99 181.272 568.582C181.272 571.318 181.938 572.83 183.792 572.83C185.286 572.83 185.88 572.02 186.222 570.202L187.77 570.544C187.428 572.956 186.186 574.216 183.792 574.216C181.002 574.216 179.616 572.218 179.616 568.582ZM190.217 569.77C190.217 567.178 191.801 565.378 194.303 565.378C196.787 565.378 198.371 567.178 198.371 569.77C198.371 572.344 196.913 574.216 194.303 574.216C191.675 574.216 190.217 572.344 190.217 569.77ZM191.783 569.752C191.783 571.552 192.521 572.938 194.285 572.938C196.049 572.938 196.805 571.552 196.805 569.752C196.805 567.952 195.995 566.656 194.303 566.656C192.593 566.656 191.783 567.952 191.783 569.752ZM201.719 574V565.594H203.141V568.078L203.303 568.096C203.951 566.278 205.175 565.414 206.669 565.414C207.479 565.414 208.091 565.594 208.937 566.008L208.577 567.43C207.839 567.034 207.083 566.818 206.399 566.818C204.509 566.818 203.267 567.988 203.267 570.076V574H201.719ZM215.542 574.216C212.986 574.216 211.456 572.668 211.456 569.86C211.456 567.052 213.076 565.378 215.542 565.378C217.954 565.378 219.232 566.872 219.232 569.194C219.232 569.446 219.214 569.842 219.16 570.184H213.022C213.112 571.984 213.922 572.974 215.542 572.974C216.91 572.974 217.54 572.236 217.792 571.372L219.124 571.714C218.746 573.172 217.63 574.216 215.542 574.216ZM213.04 569.14H217.774C217.738 567.448 217 566.53 215.506 566.53C214.048 566.53 213.202 567.376 213.04 569.14Z" fill="#212525"/>
<mask id="path-27-inside-7_440_3837" fill="white">
<path d="M20 628H140V748H20V628Z"/>
</mask>
<path d="M20 628H140V748H20V628Z" fill="#212525" fill-opacity="0.2"/>
<path d="M20 628V627.277H19.2768V628H20ZM140 628H140.723V627.277H140V628ZM140 748V748.72H140.723V748H140ZM20 748H19.2768V748.72H20V748ZM20 628.723H140V627.277H20V628.723ZM139.277 628V748H140.723V628H139.277ZM140 747.28H20V748.72H140V747.28ZM20.7232 748V628H19.2768V748H20.7232Z" fill="#212525" mask="url(#path-27-inside-7_440_3837)"/>
<path d="M59.616 688.582C59.616 684.964 61.128 682.984 63.864 682.984C66.114 682.984 67.374 684.244 67.68 686.602L66.132 686.962C65.808 685.18 65.178 684.406 63.828 684.406C61.92 684.406 61.272 685.99 61.272 688.582C61.272 691.318 61.938 692.83 63.792 692.83C65.286 692.83 65.88 692.02 66.222 690.202L67.77 690.544C67.428 692.956 66.186 694.216 63.792 694.216C61.002 694.216 59.616 692.218 59.616 688.582ZM70.2173 689.77C70.2173 687.178 71.8013 685.378 74.3033 685.378C76.7873 685.378 78.3713 687.178 78.3713 689.77C78.3713 692.344 76.9133 694.216 74.3033 694.216C71.6753 694.216 70.2173 692.344 70.2173 689.77ZM71.7833 689.752C71.7833 691.552 72.5213 692.938 74.2853 692.938C76.0493 692.938 76.8053 691.552 76.8053 689.752C76.8053 687.952 75.9953 686.656 74.3033 686.656C72.5933 686.656 71.7833 687.952 71.7833 689.752ZM81.7186 694V685.594H83.1406V688.078L83.3026 688.096C83.9506 686.278 85.1746 685.414 86.6686 685.414C87.4786 685.414 88.0906 685.594 88.9366 686.008L88.5766 687.43C87.8386 687.034 87.0826 686.818 86.3986 686.818C84.5086 686.818 83.2666 687.988 83.2666 690.076V694H81.7186ZM95.5419 694.216C92.9859 694.216 91.4559 692.668 91.4559 689.86C91.4559 687.052 93.0759 685.378 95.5419 685.378C97.9539 685.378 99.2319 686.872 99.2319 689.194C99.2319 689.446 99.2139 689.842 99.1599 690.184H93.0219C93.1119 691.984 93.9219 692.974 95.5419 692.974C96.9099 692.974 97.5399 692.236 97.7919 691.372L99.1239 691.714C98.7459 693.172 97.6299 694.216 95.5419 694.216ZM93.0399 689.14H97.7739C97.7379 687.448 96.9999 686.53 95.5059 686.53C94.0479 686.53 93.2019 687.376 93.0399 689.14Z" fill="#212525"/>
<mask id="path-30-inside-8_440_3837" fill="white">
<path d="M140 628H260V748H140V628Z"/>
</mask>
<path d="M140 628H260V748H140V628Z" fill="#212525" fill-opacity="0.2"/>
<path d="M260 628H260.723V627.277H260V628ZM260 748V748.72H260.723V748H260ZM140 628.723H260V627.277H140V628.723ZM259.277 628V748H260.723V628H259.277ZM260 747.28H140V748.72H260V747.28Z" fill="#212525" mask="url(#path-30-inside-8_440_3837)"/>
<path d="M179.616 688.582C179.616 684.964 181.128 682.984 183.864 682.984C186.114 682.984 187.374 684.244 187.68 686.602L186.132 686.962C185.808 685.18 185.178 684.406 183.828 684.406C181.92 684.406 181.272 685.99 181.272 688.582C181.272 691.318 181.938 692.83 183.792 692.83C185.286 692.83 185.88 692.02 186.222 690.202L187.77 690.544C187.428 692.956 186.186 694.216 183.792 694.216C181.002 694.216 179.616 692.218 179.616 688.582ZM190.217 689.77C190.217 687.178 191.801 685.378 194.303 685.378C196.787 685.378 198.371 687.178 198.371 689.77C198.371 692.344 196.913 694.216 194.303 694.216C191.675 694.216 190.217 692.344 190.217 689.77ZM191.783 689.752C191.783 691.552 192.521 692.938 194.285 692.938C196.049 692.938 196.805 691.552 196.805 689.752C196.805 687.952 195.995 686.656 194.303 686.656C192.593 686.656 191.783 687.952 191.783 689.752ZM201.719 694V685.594H203.141V688.078L203.303 688.096C203.951 686.278 205.175 685.414 206.669 685.414C207.479 685.414 208.091 685.594 208.937 686.008L208.577 687.43C207.839 687.034 207.083 686.818 206.399 686.818C204.509 686.818 203.267 687.988 203.267 690.076V694H201.719ZM215.542 694.216C212.986 694.216 211.456 692.668 211.456 689.86C211.456 687.052 213.076 685.378 215.542 685.378C217.954 685.378 219.232 686.872 219.232 689.194C219.232 689.446 219.214 689.842 219.16 690.184H213.022C213.112 691.984 213.922 692.974 215.542 692.974C216.91 692.974 217.54 692.236 217.792 691.372L219.124 691.714C218.746 693.172 217.63 694.216 215.542 694.216ZM213.04 689.14H217.774C217.738 687.448 217 686.53 215.506 686.53C214.048 686.53 213.202 687.376 213.04 689.14Z" fill="#212525"/>
<mask id="path-33-inside-9_440_3837" fill="white">
<path d="M276 268H440V497H276V268Z"/>
</mask>
<path d="M276 268H440V497H276V268Z" fill="#212525" fill-opacity="0.2"/>
<path d="M276 268V267.277H275.28V268H276ZM440 268H440.723V267.277H440V268ZM440 497V497.72H440.723V497H440ZM276 497H275.28V497.72H276V497ZM276 268.723H440V267.277H276V268.723ZM439.277 268V497H440.723V268H439.277ZM440 496.28H276V497.72H440V496.28ZM276.72 497V268H275.28V497H276.72Z" fill="#212525" mask="url(#path-33-inside-9_440_3837)"/>
<path d="M343.008 385.44L344.592 385.08C344.844 386.484 345.798 387.438 347.436 387.438C349.02 387.438 349.704 386.646 349.704 385.71C349.704 384.468 348.732 384.09 347.094 383.748C344.988 383.334 343.53 382.614 343.53 380.472C343.53 378.762 344.844 377.484 347.346 377.484C349.686 377.484 350.784 378.834 351.09 380.364L349.488 380.652C349.236 379.608 348.624 378.744 347.256 378.744C345.888 378.744 345.15 379.41 345.15 380.346C345.15 381.66 346.212 382.02 347.742 382.398C350.136 382.92 351.378 383.658 351.378 385.584C351.378 387.312 350.19 388.716 347.418 388.716C344.682 388.716 343.278 387.312 343.008 385.44ZM354.491 388.5V377.7H361.583V379.122H356.129V383.064H360.863V384.432H356.129V388.5H354.491ZM368.333 388.698C365.831 388.698 364.535 387.258 364.535 384.486V377.7H366.191V384.36C366.191 386.124 366.641 387.33 368.333 387.33C369.971 387.33 370.457 386.304 370.457 384.45V377.7H372.113V384.486C372.113 387.258 370.799 388.698 368.333 388.698Z" fill="#212525"/>
<mask id="path-36-inside-10_440_3837" fill="white">
<path d="M276 512H440V748H276V512Z"/>
</mask>
<path d="M276 512H440V748H276V512Z" fill="#212525" fill-opacity="0.2"/>
<path d="M276 512V511.277H275.28V512H276ZM440 512H440.723V511.277H440V512ZM440 748V748.72H440.723V748H440ZM276 748H275.28V748.72H276V748ZM276 512.723H440V511.277H276V512.723ZM439.277 512V748H440.723V512H439.277ZM440 747.28H276V748.72H440V747.28ZM276.72 748V512H275.28V748H276.72Z" fill="#212525" mask="url(#path-36-inside-10_440_3837)"/>
<path d="M343.008 632.94L344.592 632.58C344.844 633.984 345.798 634.938 347.436 634.938C349.02 634.938 349.704 634.146 349.704 633.21C349.704 631.968 348.732 631.59 347.094 631.248C344.988 630.834 343.53 630.114 343.53 627.972C343.53 626.262 344.844 624.984 347.346 624.984C349.686 624.984 350.784 626.334 351.09 627.864L349.488 628.152C349.236 627.108 348.624 626.244 347.256 626.244C345.888 626.244 345.15 626.91 345.15 627.846C345.15 629.16 346.212 629.52 347.742 629.898C350.136 630.42 351.378 631.158 351.378 633.084C351.378 634.812 350.19 636.216 347.418 636.216C344.682 636.216 343.278 634.812 343.008 632.94ZM354.491 636V625.2H361.583V626.622H356.129V630.564H360.863V631.932H356.129V636H354.491ZM368.333 636.198C365.831 636.198 364.535 634.758 364.535 631.986V625.2H366.191V631.86C366.191 633.624 366.641 634.83 368.333 634.83C369.971 634.83 370.457 633.804 370.457 631.95V625.2H372.113V631.986C372.113 634.758 370.799 636.198 368.333 636.198Z" fill="#212525"/>
<rect x="20.5" y="760.5" width="419" height="47" fill="#1342FF" fill-opacity="0.1"/>
<rect x="20.5" y="760.5" width="419" height="47" stroke="#1342FF"/>
<path d="M126.111 780.55L130.287 779.2H131.187V788.65H133.797V790H126.345V788.65H129.603V780.514C128.721 781.036 127.713 781.522 126.633 781.9L126.111 780.55ZM136.532 784.78C136.532 781.882 137.738 779.02 140.672 779.02C142.85 779.02 143.768 780.298 144.074 781.882L142.526 782.116C142.328 781.018 141.734 780.298 140.654 780.298C138.782 780.298 138.026 782.17 138.026 785.194C138.026 785.266 138.026 785.32 138.026 785.392L138.332 785.446C138.8 784.204 139.772 783.484 141.356 783.484C143.066 783.484 144.398 784.6 144.398 786.634C144.398 788.758 143.102 790.18 140.582 790.18C138.17 790.18 136.532 788.308 136.532 784.78ZM138.278 786.706C138.278 787.93 139.106 788.92 140.654 788.92C142.22 788.92 142.796 787.822 142.796 786.634C142.796 785.428 142.13 784.51 140.762 784.51C139.088 784.51 138.278 785.554 138.278 786.706ZM157.789 790V779.2H159.445V784.132H160.957L164.017 779.2H165.817V779.56L162.109 784.726L165.979 789.64V790H164.179L161.047 785.626H159.445V790H157.789ZM168.264 790V788.758H171.504V782.836H168.426V781.594H173.07V788.758H175.914V790H168.264ZM170.982 779.632V778.156H173.142V779.632H170.982ZM178.866 790V779.2H182.898C185.202 779.2 186.372 780.136 186.372 781.936C186.372 783.358 185.382 784.168 183.924 784.42V784.654C185.922 784.798 186.804 785.482 186.804 787.012C186.804 788.83 185.652 790 183.312 790H178.866ZM180.504 788.794H183.294C184.59 788.794 185.202 788.11 185.202 786.958C185.202 785.896 184.806 785.194 183.276 785.194H180.504V788.794ZM180.504 783.988H183.096C184.122 783.988 184.824 783.34 184.824 782.17C184.824 781.036 184.23 780.406 182.988 780.406H180.504V783.988ZM199.42 786.94L201.004 786.58C201.256 787.984 202.21 788.938 203.848 788.938C205.432 788.938 206.116 788.146 206.116 787.21C206.116 785.968 205.144 785.59 203.506 785.248C201.4 784.834 199.942 784.114 199.942 781.972C199.942 780.262 201.256 778.984 203.758 778.984C206.098 778.984 207.196 780.334 207.502 781.864L205.9 782.152C205.648 781.108 205.036 780.244 203.668 780.244C202.3 780.244 201.562 780.91 201.562 781.846C201.562 783.16 202.624 783.52 204.154 783.898C206.548 784.42 207.79 785.158 207.79 787.084C207.79 788.812 206.602 790.216 203.83 790.216C201.094 790.216 199.69 788.812 199.42 786.94ZM210.759 790V777.94H212.325V783.682H212.523C213.081 782.422 214.035 781.378 215.475 781.378C216.879 781.378 217.743 782.404 217.743 784.276V790H216.177V784.636C216.177 783.466 215.709 782.8 214.755 782.8C213.297 782.8 212.325 783.916 212.325 785.374V790H210.759ZM223.431 790.18C221.883 790.18 220.785 789.316 220.785 787.804C220.785 786.4 221.739 785.392 223.845 785.392H226.599V784.492C226.599 783.448 226.059 782.638 224.745 782.638C223.611 782.638 222.927 783.25 222.603 784.042L221.181 783.538C221.631 782.332 222.909 781.378 224.781 781.378C227.067 781.378 228.165 782.584 228.165 784.474V790H226.761V788.11H226.473C225.987 789.298 224.961 790.18 223.431 790.18ZM226.599 786.346H224.151C222.945 786.346 222.243 786.832 222.243 787.714C222.243 788.38 222.801 788.974 224.007 788.974C225.537 788.974 226.599 788.074 226.599 786.868V786.346ZM232.16 790V781.594H233.582V784.078L233.744 784.096C234.392 782.278 235.616 781.414 237.11 781.414C237.92 781.414 238.532 781.594 239.378 782.008L239.018 783.43C238.28 783.034 237.524 782.818 236.84 782.818C234.95 782.818 233.708 783.988 233.708 786.076V790H232.16ZM245.983 790.216C243.427 790.216 241.897 788.668 241.897 785.86C241.897 783.052 243.517 781.378 245.983 781.378C248.395 781.378 249.673 782.872 249.673 785.194C249.673 785.446 249.655 785.842 249.601 786.184H243.463C243.553 787.984 244.363 788.974 245.983 788.974C247.351 788.974 247.981 788.236 248.233 787.372L249.565 787.714C249.187 789.172 248.071 790.216 245.983 790.216ZM243.481 785.14H248.215C248.179 783.448 247.441 782.53 245.947 782.53C244.489 782.53 243.643 783.376 243.481 785.14ZM252.139 785.842C252.139 783.034 253.417 781.378 255.289 781.378C256.711 781.378 257.611 782.35 258.079 783.574H258.295V777.94H259.861V790H258.295V787.966H258.079C257.575 789.208 256.531 790.216 255.217 790.216C253.453 790.216 252.139 788.614 252.139 785.842ZM258.295 786.436V785.266C258.295 783.826 257.323 782.8 256.009 782.8C254.551 782.8 253.669 783.844 253.669 785.824C253.669 787.786 254.533 788.866 256.009 788.866C257.305 788.866 258.295 787.822 258.295 786.436ZM273.287 790V779.2H275.825L276.833 784.096C276.995 784.888 277.121 786.04 277.301 787.264H277.589C277.805 785.698 277.985 784.474 278.255 783.016L278.939 779.2H281.477V790H280.019V784.87C280.019 783.376 280.127 781.684 280.199 780.532H279.803C279.623 781.702 279.461 783.034 279.227 784.168L278.255 788.668H276.545L275.447 783.736C275.267 782.908 275.051 781.612 274.871 780.532H274.547C274.601 781.648 274.727 783.214 274.727 784.402V790H273.287ZM288.1 790.216C285.544 790.216 284.014 788.668 284.014 785.86C284.014 783.052 285.634 781.378 288.1 781.378C290.512 781.378 291.79 782.872 291.79 785.194C291.79 785.446 291.772 785.842 291.718 786.184H285.58C285.67 787.984 286.48 788.974 288.1 788.974C289.468 788.974 290.098 788.236 290.35 787.372L291.682 787.714C291.304 789.172 290.188 790.216 288.1 790.216ZM285.598 785.14H290.332C290.296 783.448 289.558 782.53 288.064 782.53C286.606 782.53 285.76 783.376 285.598 785.14ZM294.508 790V781.594H295.75V782.89H295.93C296.2 781.972 296.794 781.414 297.586 781.414C298.396 781.414 298.864 781.918 298.99 782.89H299.188C299.476 782.026 300.034 781.414 300.844 781.414C301.834 781.414 302.446 782.152 302.446 783.412V790H301.096V783.844C301.096 783.214 300.79 782.782 300.232 782.782C299.548 782.782 299.152 783.286 299.152 784.312V790H297.82V783.844C297.82 783.16 297.496 782.782 296.938 782.782C296.326 782.782 295.858 783.322 295.858 784.222V790H294.508ZM304.893 785.77C304.893 783.178 306.477 781.378 308.979 781.378C311.463 781.378 313.047 783.178 313.047 785.77C313.047 788.344 311.589 790.216 308.979 790.216C306.351 790.216 304.893 788.344 304.893 785.77ZM306.459 785.752C306.459 787.552 307.197 788.938 308.961 788.938C310.725 788.938 311.481 787.552 311.481 785.752C311.481 783.952 310.671 782.656 308.979 782.656C307.269 782.656 306.459 783.952 306.459 785.752ZM316.394 790V781.594H317.816V784.078L317.978 784.096C318.626 782.278 319.85 781.414 321.344 781.414C322.154 781.414 322.766 781.594 323.612 782.008L323.252 783.43C322.514 783.034 321.758 782.818 321.074 782.818C319.184 782.818 317.942 783.988 317.942 786.076V790H316.394ZM325.556 793.06L325.808 791.692C326.186 791.764 326.546 791.8 326.906 791.8C327.968 791.8 328.58 791.512 329.336 789.964L325.574 781.594H327.32L328.418 784.618C328.85 785.842 329.48 787.444 329.93 788.794H330.38C330.83 787.408 331.406 785.77 331.82 784.618L332.846 781.594H334.52L330.74 790.108C329.786 792.232 328.742 793.168 326.888 793.168C326.33 793.168 325.916 793.114 325.556 793.06Z" fill="#1342FF"/>
</svg>
