<svg width="1892" height="1283" viewBox="0 0 1892 1283" fill="none" xmlns="http://www.w3.org/2000/svg">
<rect width="1892" height="1283" fill="#E9E9E9"/>
<path d="M1422.46 239.792L1428.38 220.592H1432.96L1438.88 239.792H1435.74L1434.27 234.576H1426.98L1425.5 239.792H1422.46ZM1427.62 232.24H1433.63L1432.93 229.808C1432.32 227.632 1431.71 225.072 1431.3 223.024H1430.02C1429.54 225.104 1428.9 227.6 1428.29 229.808L1427.62 232.24ZM1443.87 239.792V224.848H1446.4V229.264L1446.69 229.296C1447.84 226.064 1450.02 224.528 1452.67 224.528C1454.11 224.528 1455.2 224.848 1456.7 225.584L1456.06 228.112C1454.75 227.408 1453.41 227.024 1452.19 227.024C1448.83 227.024 1446.62 229.104 1446.62 232.816V239.792H1443.87ZM1461.31 239.792V237.584H1467.07V227.056H1461.6V224.848H1469.85V237.584H1474.91V239.792H1461.31ZM1466.14 221.36V218.736H1469.98V221.36H1466.14ZM1483.26 234.256V227.056H1479.42V224.848H1483.26V220.592H1486.04V224.848H1493.5V227.056H1486.04V233.84C1486.04 236.432 1487.04 237.776 1489.6 237.776C1490.68 237.776 1491.84 237.52 1493.31 236.88L1493.85 239.056C1492.19 239.792 1490.72 240.176 1488.99 240.176C1484.99 240.176 1483.26 237.68 1483.26 234.256ZM1499.42 239.792V218.352H1502.2V228.56H1502.56C1503.55 226.32 1505.24 224.464 1507.8 224.464C1510.3 224.464 1511.84 226.288 1511.84 229.616V239.792H1509.05V230.256C1509.05 228.176 1508.22 226.992 1506.52 226.992C1503.93 226.992 1502.2 228.976 1502.2 231.568V239.792H1499.42ZM1517.27 239.792V224.848H1519.48V227.152H1519.8C1520.28 225.52 1521.34 224.528 1522.75 224.528C1524.19 224.528 1525.02 225.424 1525.24 227.152H1525.59C1526.11 225.616 1527.1 224.528 1528.54 224.528C1530.3 224.528 1531.39 225.84 1531.39 228.08V239.792H1528.99V228.848C1528.99 227.728 1528.44 226.96 1527.45 226.96C1526.23 226.96 1525.53 227.856 1525.53 229.68V239.792H1523.16V228.848C1523.16 227.632 1522.59 226.96 1521.59 226.96C1520.51 226.96 1519.67 227.92 1519.67 229.52V239.792H1517.27ZM1543.32 240.176C1538.78 240.176 1536.06 237.424 1536.06 232.432C1536.06 227.44 1538.94 224.464 1543.32 224.464C1547.61 224.464 1549.88 227.12 1549.88 231.248C1549.88 231.696 1549.85 232.4 1549.75 233.008H1538.84C1539 236.208 1540.44 237.968 1543.32 237.968C1545.75 237.968 1546.87 236.656 1547.32 235.12L1549.69 235.728C1549.02 238.32 1547.03 240.176 1543.32 240.176ZM1538.87 231.152H1547.29C1547.23 228.144 1545.91 226.512 1543.26 226.512C1540.67 226.512 1539.16 228.016 1538.87 231.152ZM1558.14 234.256V227.056H1554.3V224.848H1558.14V220.592H1560.92V224.848H1568.38V227.056H1560.92V233.84C1560.92 236.432 1561.91 237.776 1564.47 237.776C1565.56 237.776 1566.71 237.52 1568.18 236.88L1568.73 239.056C1567.06 239.792 1565.59 240.176 1563.86 240.176C1559.86 240.176 1558.14 237.68 1558.14 234.256ZM1573.62 239.792V237.584H1579.38V227.056H1573.91V224.848H1582.17V237.584H1587.22V239.792H1573.62ZM1578.45 221.36V218.736H1582.29V221.36H1578.45ZM1592.12 232.432C1592.12 227.44 1594.87 224.464 1599.45 224.464C1603.25 224.464 1605.37 226.256 1606.01 229.552L1603.48 230.128C1602.97 228.048 1601.88 226.736 1599.38 226.736C1596.47 226.736 1594.93 228.624 1594.93 232.336C1594.93 235.696 1596.28 237.872 1599.45 237.872C1601.91 237.872 1603.13 236.272 1603.57 234.512L1606.07 235.28C1605.4 238.384 1603.06 240.176 1599.48 240.176C1594.74 240.176 1592.12 237.36 1592.12 232.432ZM1629.91 239.792V220.592H1637.07C1641.17 220.592 1643.25 222.256 1643.25 225.456C1643.25 227.984 1641.49 229.424 1638.9 229.872V230.288C1642.45 230.544 1644.02 231.76 1644.02 234.48C1644.02 237.712 1641.97 239.792 1637.81 239.792H1629.91ZM1632.82 237.648H1637.78C1640.08 237.648 1641.17 236.432 1641.17 234.384C1641.17 232.496 1640.47 231.248 1637.75 231.248H1632.82V237.648ZM1632.82 229.104H1637.43C1639.25 229.104 1640.5 227.952 1640.5 225.872C1640.5 223.856 1639.44 222.736 1637.23 222.736H1632.82V229.104ZM1652.98 240.112C1650.23 240.112 1648.27 238.576 1648.27 235.888C1648.27 233.392 1649.97 231.6 1653.71 231.6H1658.61V230C1658.61 228.144 1657.65 226.704 1655.31 226.704C1653.3 226.704 1652.08 227.792 1651.51 229.2L1648.98 228.304C1649.78 226.16 1652.05 224.464 1655.38 224.464C1659.44 224.464 1661.39 226.608 1661.39 229.968V239.792H1658.9V236.432H1658.39C1657.52 238.544 1655.7 240.112 1652.98 240.112ZM1658.61 233.296H1654.26C1652.11 233.296 1650.87 234.16 1650.87 235.728C1650.87 236.912 1651.86 237.968 1654 237.968C1656.72 237.968 1658.61 236.368 1658.61 234.224V233.296ZM1667.89 239.792V224.848H1670.51V228.56H1670.99C1671.92 226.288 1673.81 224.464 1676.18 224.464C1678.77 224.464 1680.3 226.288 1680.3 229.616V239.792H1677.52V230.256C1677.52 228.176 1676.82 226.992 1674.93 226.992C1672.43 226.992 1670.67 228.976 1670.67 231.568V239.792H1667.89ZM1685.3 232.4C1685.3 227.408 1687.57 224.464 1690.9 224.464C1693.42 224.464 1695.02 226.192 1695.86 228.368H1696.24V218.352H1699.02V239.792H1696.24V236.176H1695.86C1694.96 238.384 1693.1 240.176 1690.77 240.176C1687.63 240.176 1685.3 237.328 1685.3 232.4ZM1696.24 233.456V231.376C1696.24 228.816 1694.51 226.992 1692.18 226.992C1689.58 226.992 1688.02 228.848 1688.02 232.368C1688.02 235.856 1689.55 237.776 1692.18 237.776C1694.48 237.776 1696.24 235.92 1696.24 233.456ZM1705.58 239.792L1703.28 224.848H1706.03L1706.67 230.576C1706.96 233.008 1707.25 235.152 1707.5 237.488H1708.05C1708.27 235.792 1708.46 234.032 1708.78 232.464L1709.84 227.408H1713.23L1714.16 232.24C1714.45 233.744 1714.73 235.632 1715.02 237.488H1715.53C1715.76 235.152 1716.05 232.976 1716.3 230.576L1716.97 224.848H1719.63L1717.26 239.792H1713.39L1712.43 234.544C1712.11 232.912 1711.92 231.28 1711.73 229.68H1711.12C1710.89 231.312 1710.67 232.944 1710.38 234.512L1709.49 239.792H1705.58ZM1723.37 239.792V237.584H1729.13V227.056H1723.66V224.848H1731.92V237.584H1736.97V239.792H1723.37ZM1728.2 221.36V218.736H1732.04V221.36H1728.2ZM1741.45 232.4C1741.45 227.408 1743.72 224.464 1747.05 224.464C1749.58 224.464 1751.18 226.192 1752.01 228.368H1752.4V218.352H1755.18V239.792H1752.4V236.176H1752.01C1751.12 238.384 1749.26 240.176 1746.92 240.176C1743.79 240.176 1741.45 237.328 1741.45 232.4ZM1752.4 233.456V231.376C1752.4 228.816 1750.67 226.992 1748.33 226.992C1745.74 226.992 1744.17 228.848 1744.17 232.368C1744.17 235.856 1745.71 237.776 1748.33 237.776C1750.64 237.776 1752.4 235.92 1752.4 233.456ZM1764.04 234.256V227.056H1760.2V224.848H1764.04V220.592H1766.83V224.848H1774.28V227.056H1766.83V233.84C1766.83 236.432 1767.82 237.776 1770.38 237.776C1771.47 237.776 1772.62 237.52 1774.09 236.88L1774.63 239.056C1772.97 239.792 1771.5 240.176 1769.77 240.176C1765.77 240.176 1764.04 237.68 1764.04 234.256ZM1780.2 239.792V218.352H1782.98V228.56H1783.34C1784.33 226.32 1786.02 224.464 1788.58 224.464C1791.08 224.464 1792.62 226.288 1792.62 229.616V239.792H1789.83V230.256C1789.83 228.176 1789 226.992 1787.3 226.992C1784.71 226.992 1782.98 228.976 1782.98 231.568V239.792H1780.2Z" fill="#1342FF"/>
<path d="M666.33 135.792V116.592H670.842L672.634 125.296C672.922 126.704 673.146 128.752 673.466 130.928H673.978C674.362 128.144 674.682 125.968 675.162 123.376L676.378 116.592H680.89V135.792H678.298V126.672C678.298 124.016 678.49 121.008 678.618 118.96H677.914C677.594 121.04 677.306 123.408 676.89 125.424L675.162 133.424H672.122L670.17 124.656C669.85 123.184 669.466 120.88 669.146 118.96H668.57C668.666 120.944 668.89 123.728 668.89 125.84V135.792H666.33ZM692.665 136.176C688.121 136.176 685.401 133.424 685.401 128.432C685.401 123.44 688.281 120.464 692.665 120.464C696.953 120.464 699.225 123.12 699.225 127.248C699.225 127.696 699.193 128.4 699.097 129.008H688.185C688.345 132.208 689.785 133.968 692.665 133.968C695.097 133.968 696.217 132.656 696.665 131.12L699.033 131.728C698.361 134.32 696.377 136.176 692.665 136.176ZM688.217 127.152H696.633C696.569 124.144 695.257 122.512 692.601 122.512C690.009 122.512 688.505 124.016 688.217 127.152ZM704.056 135.792V120.848H706.264V123.152H706.584C707.064 121.52 708.12 120.528 709.528 120.528C710.968 120.528 711.8 121.424 712.024 123.152H712.376C712.888 121.616 713.88 120.528 715.32 120.528C717.08 120.528 718.168 121.84 718.168 124.08V135.792H715.768V124.848C715.768 123.728 715.224 122.96 714.232 122.96C713.016 122.96 712.312 123.856 712.312 125.68V135.792H709.944V124.848C709.944 123.632 709.368 122.96 708.376 122.96C707.288 122.96 706.456 123.92 706.456 125.52V135.792H704.056ZM722.518 128.272C722.518 123.664 725.334 120.464 729.782 120.464C734.198 120.464 737.014 123.664 737.014 128.272C737.014 132.848 734.422 136.176 729.782 136.176C725.11 136.176 722.518 132.848 722.518 128.272ZM725.302 128.24C725.302 131.44 726.614 133.904 729.75 133.904C732.886 133.904 734.23 131.44 734.23 128.24C734.23 125.04 732.79 122.736 729.782 122.736C726.742 122.736 725.302 125.04 725.302 128.24ZM742.965 135.792V120.848H745.493V125.264L745.781 125.296C746.933 122.064 749.109 120.528 751.765 120.528C753.205 120.528 754.293 120.848 755.797 121.584L755.157 124.112C753.845 123.408 752.501 123.024 751.285 123.024C747.925 123.024 745.717 125.104 745.717 128.816V135.792H742.965ZM759.252 141.232L759.7 138.8C760.372 138.928 761.012 138.992 761.652 138.992C763.54 138.992 764.628 138.48 765.972 135.728L759.284 120.848H762.388L764.34 126.224C765.108 128.4 766.228 131.248 767.028 133.648H767.828C768.628 131.184 769.652 128.272 770.388 126.224L772.212 120.848H775.188L768.468 135.984C766.772 139.76 764.916 141.424 761.62 141.424C760.628 141.424 759.892 141.328 759.252 141.232ZM797.969 135.792V116.592H805.137C809.233 116.592 811.313 118.256 811.313 121.456C811.313 123.984 809.553 125.424 806.961 125.872V126.288C810.513 126.544 812.081 127.76 812.081 130.48C812.081 133.712 810.033 135.792 805.873 135.792H797.969ZM800.881 133.648H805.841C808.145 133.648 809.233 132.432 809.233 130.384C809.233 128.496 808.529 127.248 805.809 127.248H800.881V133.648ZM800.881 125.104H805.489C807.313 125.104 808.561 123.952 808.561 121.872C808.561 119.856 807.505 118.736 805.297 118.736H800.881V125.104ZM821.04 136.112C818.288 136.112 816.336 134.576 816.336 131.888C816.336 129.392 818.032 127.6 821.776 127.6H826.672V126C826.672 124.144 825.712 122.704 823.376 122.704C821.36 122.704 820.144 123.792 819.568 125.2L817.04 124.304C817.84 122.16 820.112 120.464 823.44 120.464C827.504 120.464 829.456 122.608 829.456 125.968V135.792H826.96V132.432H826.448C825.584 134.544 823.76 136.112 821.04 136.112ZM826.672 129.296H822.32C820.176 129.296 818.928 130.16 818.928 131.728C818.928 132.912 819.92 133.968 822.064 133.968C824.784 133.968 826.672 132.368 826.672 130.224V129.296ZM835.951 135.792V120.848H838.575V124.56H839.055C839.983 122.288 841.871 120.464 844.239 120.464C846.831 120.464 848.367 122.288 848.367 125.616V135.792H845.583V126.256C845.583 124.176 844.879 122.992 842.991 122.992C840.495 122.992 838.735 124.976 838.735 127.568V135.792H835.951ZM853.358 128.4C853.358 123.408 855.63 120.464 858.958 120.464C861.486 120.464 863.086 122.192 863.918 124.368H864.302V114.352H867.086V135.792H864.302V132.176H863.918C863.022 134.384 861.166 136.176 858.83 136.176C855.694 136.176 853.358 133.328 853.358 128.4ZM864.302 129.456V127.376C864.302 124.816 862.574 122.992 860.238 122.992C857.646 122.992 856.078 124.848 856.078 128.368C856.078 131.856 857.614 133.776 860.238 133.776C862.542 133.776 864.302 131.92 864.302 129.456ZM873.644 135.792L871.34 120.848H874.092L874.732 126.576C875.02 129.008 875.308 131.152 875.564 133.488H876.108C876.332 131.792 876.524 130.032 876.844 128.464L877.9 123.408H881.292L882.22 128.24C882.508 129.744 882.796 131.632 883.084 133.488H883.596C883.82 131.152 884.108 128.976 884.364 126.576L885.036 120.848H887.692L885.324 135.792H881.452L880.492 130.544C880.172 128.912 879.98 127.28 879.788 125.68H879.18C878.956 127.312 878.732 128.944 878.444 130.512L877.548 135.792H873.644ZM891.435 135.792V133.584H897.195V123.056H891.723V120.848H899.979V133.584H905.035V135.792H891.435ZM896.267 117.36V114.736H900.107V117.36H896.267ZM909.514 128.4C909.514 123.408 911.786 120.464 915.114 120.464C917.642 120.464 919.242 122.192 920.074 124.368H920.458V114.352H923.242V135.792H920.458V132.176H920.074C919.178 134.384 917.322 136.176 914.986 136.176C911.85 136.176 909.514 133.328 909.514 128.4ZM920.458 129.456V127.376C920.458 124.816 918.73 122.992 916.394 122.992C913.802 122.992 912.234 124.848 912.234 128.368C912.234 131.856 913.77 133.776 916.394 133.776C918.698 133.776 920.458 131.92 920.458 129.456ZM932.105 130.256V123.056H928.265V120.848H932.105V116.592H934.889V120.848H942.345V123.056H934.889V129.84C934.889 132.432 935.881 133.776 938.441 133.776C939.529 133.776 940.681 133.52 942.153 132.88L942.697 135.056C941.033 135.792 939.561 136.176 937.833 136.176C933.833 136.176 932.105 133.68 932.105 130.256ZM948.263 135.792V114.352H951.047V124.56H951.399C952.391 122.32 954.087 120.464 956.647 120.464C959.143 120.464 960.679 122.288 960.679 125.616V135.792H957.895V126.256C957.895 124.176 957.063 122.992 955.367 122.992C952.775 122.992 951.047 124.976 951.047 127.568V135.792H948.263Z" fill="#327831"/>
<path d="M719.663 167.696C719.663 163.28 721.727 159.416 726.551 155.888L727.535 156.704C723.143 160.16 721.463 163.544 721.463 167.696C721.463 171.848 723.167 175.256 727.559 178.712L726.551 179.504C721.727 175.976 719.663 172.112 719.663 167.696ZM742.27 168.248C742.27 171.872 740.422 174.056 738.094 174.056C736.318 174.056 734.83 172.784 734.134 171.152H733.87V173.792H732.214V157.712H733.87V165.248H734.11C734.734 163.64 735.958 162.368 737.974 162.368C740.446 162.368 742.27 164.6 742.27 168.248ZM733.87 167.48V169.04C733.87 171.104 735.262 172.616 737.254 172.616C739.39 172.616 740.638 171.032 740.638 168.248C740.638 165.416 739.366 163.88 737.278 163.88C735.238 163.88 733.87 165.392 733.87 167.48ZM744.981 177.872L745.245 176.408C745.749 176.504 746.205 176.552 746.685 176.552C748.125 176.552 749.013 176.168 750.165 173.768L745.005 162.632H746.853L748.437 166.616C749.109 168.296 750.093 170.648 750.765 172.496H751.245C751.869 170.6 752.805 168.2 753.405 166.616L754.917 162.632H756.669L751.605 173.936C750.309 176.792 748.941 178.04 746.685 178.04C745.965 178.04 745.413 177.944 744.981 177.872ZM762.332 169.76V164H759.428V162.632H762.332V159.392H763.964V162.632H769.724V164H763.964V169.496C763.964 171.56 764.78 172.616 766.796 172.616C767.636 172.616 768.476 172.448 769.604 171.92L769.964 173.24C768.716 173.792 767.66 174.056 766.484 174.056C763.604 174.056 762.332 172.28 762.332 169.76ZM779.155 174.056C775.771 174.056 773.851 171.92 773.851 168.248C773.851 164.552 776.011 162.368 779.155 162.368C782.227 162.368 783.931 164.36 783.931 167.408C783.931 167.672 783.907 168.152 783.859 168.56H775.507C775.603 171.176 776.755 172.688 779.131 172.688C781.075 172.688 782.011 171.608 782.395 170.36L783.835 170.72C783.307 172.712 781.747 174.056 779.155 174.056ZM775.531 167.384H782.395C782.323 165.008 781.291 163.664 779.107 163.664C777.019 163.664 775.771 164.912 775.531 167.384ZM793.122 174.08C790.05 174.08 788.49 172.712 787.962 170.576L789.522 170.264C789.906 171.68 790.962 172.76 793.146 172.76C794.97 172.76 796.17 172.16 796.17 170.888C796.17 169.496 794.682 169.136 792.882 168.824C790.626 168.464 788.61 167.864 788.61 165.584C788.61 163.712 790.05 162.368 792.978 162.368C795.93 162.368 796.938 163.64 797.442 165.392L795.906 165.704C795.498 164.144 794.514 163.64 792.93 163.64C791.106 163.64 790.218 164.312 790.218 165.464C790.218 166.856 791.658 167.192 793.386 167.48C795.834 167.864 797.826 168.416 797.826 170.816C797.826 172.64 796.362 174.08 793.122 174.08ZM801.809 177.8L810.425 157.712H812.249L803.681 177.8H801.809ZM821.2 174.08C818.128 174.08 816.568 172.712 816.04 170.576L817.6 170.264C817.984 171.68 819.04 172.76 821.224 172.76C823.048 172.76 824.248 172.16 824.248 170.888C824.248 169.496 822.76 169.136 820.96 168.824C818.704 168.464 816.688 167.864 816.688 165.584C816.688 163.712 818.128 162.368 821.056 162.368C824.008 162.368 825.016 163.64 825.52 165.392L823.984 165.704C823.576 164.144 822.592 163.64 821.008 163.64C819.184 163.64 818.296 164.312 818.296 165.464C818.296 166.856 819.736 167.192 821.464 167.48C823.912 167.864 825.904 168.416 825.904 170.816C825.904 172.64 824.44 174.08 821.2 174.08ZM835.311 174.056C831.927 174.056 830.007 171.92 830.007 168.248C830.007 164.552 832.167 162.368 835.311 162.368C838.383 162.368 840.087 164.36 840.087 167.408C840.087 167.672 840.063 168.152 840.015 168.56H831.663C831.759 171.176 832.911 172.688 835.287 172.688C837.231 172.688 838.167 171.608 838.551 170.36L839.991 170.72C839.463 172.712 837.903 174.056 835.311 174.056ZM831.687 167.384H838.551C838.479 165.008 837.447 163.664 835.263 163.664C833.175 163.664 831.927 164.912 831.687 167.384ZM843.974 168.248C843.974 164.552 845.99 162.368 849.302 162.368C852.014 162.368 853.646 163.664 854.126 166.136L852.614 166.496C852.23 164.792 851.27 163.76 849.254 163.76C846.878 163.76 845.63 165.296 845.63 168.224C845.63 170.912 846.782 172.664 849.326 172.664C851.294 172.664 852.302 171.392 852.686 169.928L854.174 170.408C853.646 172.736 851.894 174.056 849.326 174.056C845.846 174.056 843.974 171.896 843.974 168.248ZM857.821 168.176C857.821 164.792 859.909 162.368 863.149 162.368C866.365 162.368 868.453 164.792 868.453 168.176C868.453 171.536 866.581 174.056 863.149 174.056C859.693 174.056 857.821 171.536 857.821 168.176ZM859.477 168.152C859.477 170.624 860.581 172.664 863.125 172.664C865.669 172.664 866.797 170.624 866.797 168.152C866.797 165.656 865.597 163.76 863.149 163.76C860.701 163.76 859.477 165.656 859.477 168.152ZM872.748 173.792V162.632H874.308V165.392H874.62C875.292 163.76 876.732 162.368 878.556 162.368C880.548 162.368 881.724 163.712 881.724 166.208V173.792H880.068V166.568C880.068 164.84 879.516 163.88 877.956 163.88C875.868 163.88 874.404 165.464 874.404 167.576V173.792H872.748ZM885.731 168.248C885.731 164.6 887.483 162.368 890.099 162.368C892.067 162.368 893.267 163.64 893.891 165.248H894.131V157.712H895.787V173.792H894.131V171.152H893.867C893.195 172.784 891.707 174.056 889.979 174.056C887.531 174.056 885.731 171.872 885.731 168.248ZM894.131 169.04V167.48C894.131 165.392 892.715 163.88 890.795 163.88C888.659 163.88 887.363 165.416 887.363 168.248C887.363 171.032 888.635 172.616 890.795 172.616C892.691 172.616 894.131 171.104 894.131 169.04ZM908.338 167.696C908.338 172.112 906.274 175.976 901.45 179.504L900.466 178.688C904.858 175.232 906.538 171.824 906.538 167.696C906.538 163.544 904.834 160.136 900.442 156.68L901.45 155.888C906.274 159.416 908.338 163.28 908.338 167.696Z" fill="#327831"/>
<path d="M50.3429 597.792V578.592H57.3189C61.7989 578.592 64.1029 581.088 64.1029 585.024C64.1029 588.576 61.7349 591.36 57.4469 591.36H53.2869V597.792H50.3429ZM53.2869 589.056H57.0949C60.1029 589.056 61.2869 587.488 61.2869 585.056C61.2869 582.592 60.2629 580.992 57.0629 580.992H53.2869V589.056ZM75.4616 598.176C70.9176 598.176 68.1976 595.424 68.1976 590.432C68.1976 585.44 71.0776 582.464 75.4616 582.464C79.7496 582.464 82.0216 585.12 82.0216 589.248C82.0216 589.696 81.9896 590.4 81.8936 591.008H70.9816C71.1416 594.208 72.5816 595.968 75.4616 595.968C77.8936 595.968 79.0136 594.656 79.4616 593.12L81.8296 593.728C81.1576 596.32 79.1736 598.176 75.4616 598.176ZM71.0136 589.152H79.4296C79.3656 586.144 78.0536 584.512 75.3976 584.512C72.8056 584.512 71.3016 586.016 71.0136 589.152ZM88.3244 597.792V582.848H90.8524V587.264L91.1404 587.296C92.2924 584.064 94.4684 582.528 97.1244 582.528C98.5644 582.528 99.6524 582.848 101.156 583.584L100.516 586.112C99.2044 585.408 97.8604 585.024 96.6444 585.024C93.2844 585.024 91.0764 587.104 91.0764 590.816V597.792H88.3244ZM109.187 597.792V585.056H105.219V582.848H109.187V582.624C109.187 578.816 111.139 576.032 115.715 576.032C117.091 576.032 118.531 576.16 120.131 576.768L119.587 578.752C118.339 578.336 117.315 578.24 116.035 578.24C113.123 578.24 111.971 579.744 111.971 582.752V582.848H119.907V585.056H111.971V597.792H109.187ZM124.034 590.272C124.034 585.664 126.85 582.464 131.298 582.464C135.714 582.464 138.53 585.664 138.53 590.272C138.53 594.848 135.938 598.176 131.298 598.176C126.626 598.176 124.034 594.848 124.034 590.272ZM126.818 590.24C126.818 593.44 128.13 595.904 131.266 595.904C134.402 595.904 135.746 593.44 135.746 590.24C135.746 587.04 134.306 584.736 131.298 584.736C128.258 584.736 126.818 587.04 126.818 590.24ZM144.481 597.792V582.848H147.009V587.264L147.297 587.296C148.449 584.064 150.625 582.528 153.281 582.528C154.721 582.528 155.809 582.848 157.313 583.584L156.673 586.112C155.361 585.408 154.017 585.024 152.801 585.024C149.441 585.024 147.233 587.104 147.233 590.816V597.792H144.481ZM161.727 597.792V582.848H163.935V585.152H164.255C164.735 583.52 165.791 582.528 167.199 582.528C168.639 582.528 169.471 583.424 169.695 585.152H170.047C170.559 583.616 171.551 582.528 172.991 582.528C174.751 582.528 175.839 583.84 175.839 586.08V597.792H173.439V586.848C173.439 585.728 172.895 584.96 171.903 584.96C170.687 584.96 169.983 585.856 169.983 587.68V597.792H167.615V586.848C167.615 585.632 167.039 584.96 166.047 584.96C164.959 584.96 164.127 585.92 164.127 587.52V597.792H161.727ZM185.118 598.112C182.366 598.112 180.414 596.576 180.414 593.888C180.414 591.392 182.11 589.6 185.854 589.6H190.75V588C190.75 586.144 189.79 584.704 187.454 584.704C185.438 584.704 184.222 585.792 183.646 587.2L181.118 586.304C181.918 584.16 184.19 582.464 187.518 582.464C191.582 582.464 193.534 584.608 193.534 587.968V597.792H191.038V594.432H190.526C189.662 596.544 187.838 598.112 185.118 598.112ZM190.75 591.296H186.398C184.254 591.296 183.006 592.16 183.006 593.728C183.006 594.912 183.998 595.968 186.142 595.968C188.862 595.968 190.75 594.368 190.75 592.224V591.296ZM200.029 597.792V582.848H202.653V586.56H203.133C204.061 584.288 205.949 582.464 208.317 582.464C210.909 582.464 212.445 584.288 212.445 587.616V597.792H209.661V588.256C209.661 586.176 208.957 584.992 207.069 584.992C204.573 584.992 202.813 586.976 202.813 589.568V597.792H200.029ZM217.852 590.432C217.852 585.44 220.604 582.464 225.18 582.464C228.988 582.464 231.1 584.256 231.74 587.552L229.212 588.128C228.7 586.048 227.612 584.736 225.116 584.736C222.204 584.736 220.668 586.624 220.668 590.336C220.668 593.696 222.012 595.872 225.18 595.872C227.644 595.872 228.86 594.272 229.308 592.512L231.804 593.28C231.132 596.384 228.796 598.176 225.212 598.176C220.476 598.176 217.852 595.36 217.852 590.432ZM243.93 598.176C239.386 598.176 236.666 595.424 236.666 590.432C236.666 585.44 239.546 582.464 243.93 582.464C248.218 582.464 250.49 585.12 250.49 589.248C250.49 589.696 250.458 590.4 250.362 591.008H239.45C239.61 594.208 241.05 595.968 243.93 595.968C246.362 595.968 247.482 594.656 247.93 593.12L250.298 593.728C249.626 596.32 247.642 598.176 243.93 598.176ZM239.482 589.152H247.898C247.834 586.144 246.522 584.512 243.866 584.512C241.274 584.512 239.77 586.016 239.482 589.152Z" fill="#212525"/>
<path d="M55.6626 629.696C55.6626 625.28 57.7266 621.416 62.5506 617.888L63.5346 618.704C59.1426 622.16 57.4626 625.544 57.4626 629.696C57.4626 633.848 59.1666 637.256 63.5586 640.712L62.5506 641.504C57.7266 637.976 55.6626 634.112 55.6626 629.696ZM68.5736 635.792V621.392H77.6696V622.904H70.3016V628.616H76.7336V630.104H70.3016V635.792H68.5736ZM83.0687 635.792V621.392H84.8207V634.28H92.2607V635.792H83.0687ZM95.2598 628.568C95.2598 623.792 97.2758 621.128 100.876 621.128C104.452 621.128 106.468 623.792 106.468 628.568C106.468 633.368 104.452 636.056 100.876 636.056C97.2758 636.056 95.2598 633.368 95.2598 628.568ZM96.9878 628.568C96.9878 632.576 98.2598 634.544 100.876 634.544C103.468 634.544 104.74 632.576 104.74 628.568C104.74 624.584 103.468 622.64 100.876 622.64C98.2598 622.64 96.9878 624.584 96.9878 628.568ZM110.571 635.792V621.392H115.587C118.803 621.392 120.507 623.264 120.507 626.048C120.507 628.688 118.779 630.68 115.635 630.68H112.323V635.792H110.571ZM112.323 629.288H115.443C117.819 629.288 118.827 627.992 118.827 626.072C118.827 624.152 117.963 622.856 115.419 622.856H112.323V629.288ZM129.122 636.08C126.05 636.08 124.49 634.712 123.962 632.576L125.522 632.264C125.906 633.68 126.962 634.76 129.146 634.76C130.97 634.76 132.17 634.16 132.17 632.888C132.17 631.496 130.682 631.136 128.882 630.824C126.626 630.464 124.61 629.864 124.61 627.584C124.61 625.712 126.05 624.368 128.978 624.368C131.93 624.368 132.938 625.64 133.442 627.392L131.906 627.704C131.498 626.144 130.514 625.64 128.93 625.64C127.106 625.64 126.218 626.312 126.218 627.464C126.218 628.856 127.658 629.192 129.386 629.48C131.834 629.864 133.826 630.416 133.826 632.816C133.826 634.64 132.362 636.08 129.122 636.08ZM137.809 639.8L146.425 619.712H148.249L139.681 639.8H137.809ZM157.2 636.08C154.128 636.08 152.568 634.712 152.04 632.576L153.6 632.264C153.984 633.68 155.04 634.76 157.224 634.76C159.048 634.76 160.248 634.16 160.248 632.888C160.248 631.496 158.76 631.136 156.96 630.824C154.704 630.464 152.688 629.864 152.688 627.584C152.688 625.712 154.128 624.368 157.056 624.368C160.008 624.368 161.016 625.64 161.52 627.392L159.984 627.704C159.576 626.144 158.592 625.64 157.008 625.64C155.184 625.64 154.296 626.312 154.296 627.464C154.296 628.856 155.736 629.192 157.464 629.48C159.912 629.864 161.904 630.416 161.904 632.816C161.904 634.64 160.44 636.08 157.2 636.08ZM171.311 636.056C167.927 636.056 166.007 633.92 166.007 630.248C166.007 626.552 168.167 624.368 171.311 624.368C174.383 624.368 176.087 626.36 176.087 629.408C176.087 629.672 176.063 630.152 176.015 630.56H167.663C167.759 633.176 168.911 634.688 171.287 634.688C173.231 634.688 174.167 633.608 174.551 632.36L175.991 632.72C175.463 634.712 173.903 636.056 171.311 636.056ZM167.687 629.384H174.551C174.479 627.008 173.447 625.664 171.263 625.664C169.175 625.664 167.927 626.912 167.687 629.384ZM179.974 630.248C179.974 626.552 181.99 624.368 185.302 624.368C188.014 624.368 189.646 625.664 190.126 628.136L188.614 628.496C188.23 626.792 187.27 625.76 185.254 625.76C182.878 625.76 181.63 627.296 181.63 630.224C181.63 632.912 182.782 634.664 185.326 634.664C187.294 634.664 188.302 633.392 188.686 631.928L190.174 632.408C189.646 634.736 187.894 636.056 185.326 636.056C181.846 636.056 179.974 633.896 179.974 630.248ZM193.821 630.176C193.821 626.792 195.909 624.368 199.149 624.368C202.365 624.368 204.453 626.792 204.453 630.176C204.453 633.536 202.581 636.056 199.149 636.056C195.693 636.056 193.821 633.536 193.821 630.176ZM195.477 630.152C195.477 632.624 196.581 634.664 199.125 634.664C201.669 634.664 202.797 632.624 202.797 630.152C202.797 627.656 201.597 625.76 199.149 625.76C196.701 625.76 195.477 627.656 195.477 630.152ZM208.748 635.792V624.632H210.308V627.392H210.62C211.292 625.76 212.732 624.368 214.556 624.368C216.548 624.368 217.724 625.712 217.724 628.208V635.792H216.068V628.568C216.068 626.84 215.516 625.88 213.956 625.88C211.868 625.88 210.404 627.464 210.404 629.576V635.792H208.748ZM221.731 630.248C221.731 626.6 223.483 624.368 226.099 624.368C228.067 624.368 229.267 625.64 229.891 627.248H230.131V619.712H231.787V635.792H230.131V633.152H229.867C229.195 634.784 227.707 636.056 225.979 636.056C223.531 636.056 221.731 633.872 221.731 630.248ZM230.131 631.04V629.48C230.131 627.392 228.715 625.88 226.795 625.88C224.659 625.88 223.363 627.416 223.363 630.248C223.363 633.032 224.635 634.616 226.795 634.616C228.691 634.616 230.131 633.104 230.131 631.04ZM244.338 629.696C244.338 634.112 242.274 637.976 237.45 641.504L236.466 640.688C240.858 637.232 242.538 633.824 242.538 629.696C242.538 625.544 240.834 622.136 236.442 618.68L237.45 617.888C242.274 621.416 244.338 625.28 244.338 629.696Z" fill="#212525"/>
<path d="M878.465 1186.79L884.385 1167.59H888.961L894.881 1186.79H891.745L890.273 1181.58H882.977L881.505 1186.79H878.465ZM883.617 1179.24H889.633L888.929 1176.81C888.321 1174.63 887.713 1172.07 887.297 1170.02H886.017C885.536 1172.1 884.897 1174.6 884.289 1176.81L883.617 1179.24ZM899.871 1186.79V1171.85H902.399V1176.26L902.687 1176.3C903.839 1173.06 906.015 1171.53 908.671 1171.53C910.111 1171.53 911.199 1171.85 912.703 1172.58L912.063 1175.11C910.751 1174.41 909.407 1174.02 908.191 1174.02C904.831 1174.02 902.623 1176.1 902.623 1179.82V1186.79H899.871ZM917.31 1186.79V1184.58H923.07V1174.06H917.598V1171.85H925.854V1184.58H930.91V1186.79H917.31ZM922.142 1168.36V1165.74H925.982V1168.36H922.142ZM939.261 1181.26V1174.06H935.421V1171.85H939.261V1167.59H942.045V1171.85H949.501V1174.06H942.045V1180.84C942.045 1183.43 943.037 1184.78 945.597 1184.78C946.685 1184.78 947.837 1184.52 949.309 1183.88L949.853 1186.06C948.189 1186.79 946.717 1187.18 944.989 1187.18C940.989 1187.18 939.261 1184.68 939.261 1181.26ZM955.42 1186.79V1165.35H958.204V1175.56H958.556C959.548 1173.32 961.244 1171.46 963.804 1171.46C966.3 1171.46 967.836 1173.29 967.836 1176.62V1186.79H965.052V1177.26C965.052 1175.18 964.22 1173.99 962.524 1173.99C959.932 1173.99 958.204 1175.98 958.204 1178.57V1186.79H955.42ZM973.274 1186.79V1171.85H975.482V1174.15H975.802C976.282 1172.52 977.338 1171.53 978.746 1171.53C980.186 1171.53 981.018 1172.42 981.242 1174.15H981.594C982.106 1172.62 983.098 1171.53 984.538 1171.53C986.298 1171.53 987.386 1172.84 987.386 1175.08V1186.79H984.986V1175.85C984.986 1174.73 984.442 1173.96 983.45 1173.96C982.234 1173.96 981.53 1174.86 981.53 1176.68V1186.79H979.162V1175.85C979.162 1174.63 978.586 1173.96 977.594 1173.96C976.506 1173.96 975.674 1174.92 975.674 1176.52V1186.79H973.274ZM999.321 1187.18C994.777 1187.18 992.057 1184.42 992.057 1179.43C992.057 1174.44 994.937 1171.46 999.321 1171.46C1003.61 1171.46 1005.88 1174.12 1005.88 1178.25C1005.88 1178.7 1005.85 1179.4 1005.75 1180.01H994.841C995.001 1183.21 996.441 1184.97 999.321 1184.97C1001.75 1184.97 1002.87 1183.66 1003.32 1182.12L1005.69 1182.73C1005.02 1185.32 1003.03 1187.18 999.321 1187.18ZM994.873 1178.15H1003.29C1003.23 1175.14 1001.91 1173.51 999.257 1173.51C996.665 1173.51 995.161 1175.02 994.873 1178.15ZM1014.14 1181.26V1174.06H1010.3V1171.85H1014.14V1167.59H1016.92V1171.85H1024.38V1174.06H1016.92V1180.84C1016.92 1183.43 1017.91 1184.78 1020.47 1184.78C1021.56 1184.78 1022.71 1184.52 1024.18 1183.88L1024.73 1186.06C1023.06 1186.79 1021.59 1187.18 1019.86 1187.18C1015.86 1187.18 1014.14 1184.68 1014.14 1181.26ZM1029.62 1186.79V1184.58H1035.38V1174.06H1029.91V1171.85H1038.17V1184.58H1043.22V1186.79H1029.62ZM1034.45 1168.36V1165.74H1038.29V1168.36H1034.45ZM1048.12 1179.43C1048.12 1174.44 1050.87 1171.46 1055.45 1171.46C1059.25 1171.46 1061.37 1173.26 1062.01 1176.55L1059.48 1177.13C1058.97 1175.05 1057.88 1173.74 1055.38 1173.74C1052.47 1173.74 1050.93 1175.62 1050.93 1179.34C1050.93 1182.7 1052.28 1184.87 1055.45 1184.87C1057.91 1184.87 1059.13 1183.27 1059.57 1181.51L1062.07 1182.28C1061.4 1185.38 1059.06 1187.18 1055.48 1187.18C1050.74 1187.18 1048.12 1184.36 1048.12 1179.43ZM1086.1 1170.02V1167.59H1099.06V1170.02H1094.03V1184.36H1099.06V1186.79H1086.1V1184.36H1091.12V1170.02H1086.1ZM1105.17 1186.79V1171.85H1107.79V1175.56H1108.27C1109.2 1173.29 1111.09 1171.46 1113.46 1171.46C1116.05 1171.46 1117.59 1173.29 1117.59 1176.62V1186.79H1114.8V1177.26C1114.8 1175.18 1114.1 1173.99 1112.21 1173.99C1109.71 1173.99 1107.95 1175.98 1107.95 1178.57V1186.79H1105.17ZM1126.45 1181.26V1174.06H1122.61V1171.85H1126.45V1167.59H1129.23V1171.85H1136.69V1174.06H1129.23V1180.84C1129.23 1183.43 1130.22 1184.78 1132.78 1184.78C1133.87 1184.78 1135.02 1184.52 1136.5 1183.88L1137.04 1186.06C1135.38 1186.79 1133.9 1187.18 1132.18 1187.18C1128.18 1187.18 1126.45 1184.68 1126.45 1181.26ZM1149.07 1187.18C1144.53 1187.18 1141.81 1184.42 1141.81 1179.43C1141.81 1174.44 1144.69 1171.46 1149.07 1171.46C1153.36 1171.46 1155.63 1174.12 1155.63 1178.25C1155.63 1178.7 1155.6 1179.4 1155.5 1180.01H1144.59C1144.75 1183.21 1146.19 1184.97 1149.07 1184.97C1151.5 1184.97 1152.62 1183.66 1153.07 1182.12L1155.44 1182.73C1154.77 1185.32 1152.78 1187.18 1149.07 1187.18ZM1144.62 1178.15H1153.04C1152.98 1175.14 1151.66 1173.51 1149.01 1173.51C1146.42 1173.51 1144.91 1175.02 1144.62 1178.15ZM1161.33 1186.79V1171.85H1163.95V1175.56H1164.43C1165.36 1173.29 1167.25 1171.46 1169.61 1171.46C1172.21 1171.46 1173.74 1173.29 1173.74 1176.62V1186.79H1170.96V1177.26C1170.96 1175.18 1170.25 1173.99 1168.37 1173.99C1165.87 1173.99 1164.11 1175.98 1164.11 1178.57V1186.79H1161.33ZM1186.41 1187.18C1182.09 1187.18 1179.98 1185.32 1179.34 1182.57L1181.9 1182.06C1182.41 1183.88 1183.76 1185.13 1186.44 1185.13C1188.68 1185.13 1190.12 1184.42 1190.12 1182.89C1190.12 1181.22 1188.3 1180.71 1185.93 1180.33C1182.7 1179.82 1180.14 1178.89 1180.14 1175.88C1180.14 1173.32 1182.16 1171.46 1186.25 1171.46C1190.32 1171.46 1191.72 1173.19 1192.36 1175.53L1189.84 1176.01C1189.36 1174.09 1188.17 1173.48 1186.16 1173.48C1183.92 1173.48 1182.83 1174.28 1182.83 1175.66C1182.83 1177.32 1184.56 1177.77 1186.8 1178.15C1190.41 1178.73 1192.91 1179.56 1192.91 1182.73C1192.91 1185.26 1190.89 1187.18 1186.41 1187.18ZM1198.09 1186.79V1184.58H1203.85V1174.06H1198.38V1171.85H1206.64V1184.58H1211.69V1186.79H1198.09ZM1202.92 1168.36V1165.74H1206.76V1168.36H1202.92ZM1220.04 1181.26V1174.06H1216.2V1171.85H1220.04V1167.59H1222.83V1171.85H1230.28V1174.06H1222.83V1180.84C1222.83 1183.43 1223.82 1184.78 1226.38 1184.78C1227.47 1184.78 1228.62 1184.52 1230.09 1183.88L1230.63 1186.06C1228.97 1186.79 1227.5 1187.18 1225.77 1187.18C1221.77 1187.18 1220.04 1184.68 1220.04 1181.26ZM1234.38 1192.23L1234.82 1189.8C1235.5 1189.93 1236.14 1189.99 1236.78 1189.99C1238.66 1189.99 1239.75 1189.48 1241.1 1186.73L1234.41 1171.85H1237.51L1239.46 1177.22C1240.23 1179.4 1241.35 1182.25 1242.15 1184.65H1242.95C1243.75 1182.18 1244.78 1179.27 1245.51 1177.22L1247.34 1171.85H1250.31L1243.59 1186.98C1241.9 1190.76 1240.04 1192.42 1236.74 1192.42C1235.75 1192.42 1235.02 1192.33 1234.38 1192.23Z" fill="#212525"/>
<path d="M984.202 1218.7C984.202 1214.28 986.266 1210.42 991.09 1206.89L992.074 1207.7C987.682 1211.16 986.002 1214.54 986.002 1218.7C986.002 1222.85 987.706 1226.26 992.098 1229.71L991.09 1230.5C986.266 1226.98 984.202 1223.11 984.202 1218.7ZM997.113 1224.79V1210.39H1006.21V1211.9H998.841V1217.62H1005.27V1219.1H998.841V1224.79H997.113ZM1011.61 1224.79V1210.39H1013.36V1223.28H1020.8V1224.79H1011.61ZM1023.8 1217.57C1023.8 1212.79 1025.81 1210.13 1029.41 1210.13C1032.99 1210.13 1035.01 1212.79 1035.01 1217.57C1035.01 1222.37 1032.99 1225.06 1029.41 1225.06C1025.81 1225.06 1023.8 1222.37 1023.8 1217.57ZM1025.53 1217.57C1025.53 1221.58 1026.8 1223.54 1029.41 1223.54C1032.01 1223.54 1033.28 1221.58 1033.28 1217.57C1033.28 1213.58 1032.01 1211.64 1029.41 1211.64C1026.8 1211.64 1025.53 1213.58 1025.53 1217.57ZM1039.11 1224.79V1210.39H1044.13C1047.34 1210.39 1049.05 1212.26 1049.05 1215.05C1049.05 1217.69 1047.32 1219.68 1044.17 1219.68H1040.86V1224.79H1039.11ZM1040.86 1218.29H1043.98C1046.36 1218.29 1047.37 1216.99 1047.37 1215.07C1047.37 1213.15 1046.5 1211.86 1043.96 1211.86H1040.86V1218.29ZM1057.66 1225.08C1054.59 1225.08 1053.03 1223.71 1052.5 1221.58L1054.06 1221.26C1054.44 1222.68 1055.5 1223.76 1057.68 1223.76C1059.51 1223.76 1060.71 1223.16 1060.71 1221.89C1060.71 1220.5 1059.22 1220.14 1057.42 1219.82C1055.16 1219.46 1053.15 1218.86 1053.15 1216.58C1053.15 1214.71 1054.59 1213.37 1057.52 1213.37C1060.47 1213.37 1061.48 1214.64 1061.98 1216.39L1060.44 1216.7C1060.04 1215.14 1059.05 1214.64 1057.47 1214.64C1055.64 1214.64 1054.76 1215.31 1054.76 1216.46C1054.76 1217.86 1056.2 1218.19 1057.92 1218.48C1060.37 1218.86 1062.36 1219.42 1062.36 1221.82C1062.36 1223.64 1060.9 1225.08 1057.66 1225.08ZM1066.35 1228.8L1074.96 1208.71H1076.79L1068.22 1228.8H1066.35ZM1091.04 1219.25C1091.04 1222.87 1089.2 1225.06 1086.87 1225.06C1085.09 1225.06 1083.6 1223.78 1082.91 1222.15H1082.64V1224.79H1080.99V1208.71H1082.64V1216.25H1082.88C1083.51 1214.64 1084.73 1213.37 1086.75 1213.37C1089.22 1213.37 1091.04 1215.6 1091.04 1219.25ZM1082.64 1218.48V1220.04C1082.64 1222.1 1084.04 1223.62 1086.03 1223.62C1088.16 1223.62 1089.41 1222.03 1089.41 1219.25C1089.41 1216.42 1088.14 1214.88 1086.05 1214.88C1084.01 1214.88 1082.64 1216.39 1082.64 1218.48ZM1093.75 1228.87L1094.02 1227.41C1094.52 1227.5 1094.98 1227.55 1095.46 1227.55C1096.9 1227.55 1097.79 1227.17 1098.94 1224.77L1093.78 1213.63H1095.63L1097.21 1217.62C1097.88 1219.3 1098.87 1221.65 1099.54 1223.5H1100.02C1100.64 1221.6 1101.58 1219.2 1102.18 1217.62L1103.69 1213.63H1105.44L1100.38 1224.94C1099.08 1227.79 1097.71 1229.04 1095.46 1229.04C1094.74 1229.04 1094.19 1228.94 1093.75 1228.87ZM1111.11 1220.76V1215H1108.2V1213.63H1111.11V1210.39H1112.74V1213.63H1118.5V1215H1112.74V1220.5C1112.74 1222.56 1113.55 1223.62 1115.57 1223.62C1116.41 1223.62 1117.25 1223.45 1118.38 1222.92L1118.74 1224.24C1117.49 1224.79 1116.43 1225.06 1115.26 1225.06C1112.38 1225.06 1111.11 1223.28 1111.11 1220.76ZM1127.93 1225.06C1124.54 1225.06 1122.62 1222.92 1122.62 1219.25C1122.62 1215.55 1124.78 1213.37 1127.93 1213.37C1131 1213.37 1132.7 1215.36 1132.7 1218.41C1132.7 1218.67 1132.68 1219.15 1132.63 1219.56H1124.28C1124.38 1222.18 1125.53 1223.69 1127.9 1223.69C1129.85 1223.69 1130.78 1222.61 1131.17 1221.36L1132.61 1221.72C1132.08 1223.71 1130.52 1225.06 1127.93 1225.06ZM1124.3 1218.38H1131.17C1131.1 1216.01 1130.06 1214.66 1127.88 1214.66C1125.79 1214.66 1124.54 1215.91 1124.3 1218.38ZM1144.8 1218.7C1144.8 1223.11 1142.74 1226.98 1137.91 1230.5L1136.93 1229.69C1141.32 1226.23 1143 1222.82 1143 1218.7C1143 1214.54 1141.3 1211.14 1136.9 1207.68L1137.91 1206.89C1142.74 1210.42 1144.8 1214.28 1144.8 1218.7Z" fill="#212525"/>
<path d="M924.247 326.792V307.592H930.871C935.255 307.592 937.271 309.64 937.271 313.512C937.271 316.392 935.991 318.376 933.655 319.208L938.103 326.152V326.792H934.839L930.743 319.656H927.159V326.792H924.247ZM927.159 317.288H930.615C933.111 317.288 934.359 316.104 934.359 313.544C934.359 311.048 933.399 309.992 930.551 309.992H927.159V317.288ZM942.326 326.792V324.584H948.086V314.056H942.614V311.848H950.87V324.584H955.926V326.792H942.326ZM947.158 308.36V305.736H950.998V308.36H947.158ZM960.404 319.4C960.404 314.408 962.676 311.464 966.004 311.464C968.532 311.464 970.132 313.192 970.964 315.368H971.348V305.352H974.132V326.792H971.348V323.176H970.964C970.068 325.384 968.212 327.176 965.876 327.176C962.74 327.176 960.404 324.328 960.404 319.4ZM971.348 320.456V318.376C971.348 315.816 969.62 313.992 967.284 313.992C964.692 313.992 963.124 315.848 963.124 319.368C963.124 322.856 964.66 324.776 967.284 324.776C969.588 324.776 971.348 322.92 971.348 320.456ZM979.763 317.128C979.763 313.672 982.227 311.848 986.355 311.848H993.875V313.864H992.211C991.379 313.864 990.163 313.768 988.627 313.576L988.595 314.056C990.707 314.504 992.563 315.464 992.563 317.576C992.563 320.36 990.323 322.184 986.131 322.184C985.203 322.184 984.403 322.088 983.667 321.928L983.187 322.632C982.899 323.08 982.739 323.4 982.739 323.816C982.739 324.488 983.283 324.744 984.403 324.744H989.107C992.211 324.744 993.971 326.056 993.971 328.392C993.971 331.464 992.083 332.84 986.131 332.84C980.595 332.84 978.899 331.56 978.899 329.544C978.899 328.2 980.243 327.304 982.099 326.792V326.44C981.139 326.152 980.531 325.512 980.531 324.552C980.531 323.72 981.075 323.112 981.939 322.536L983.091 321.736C980.915 321 979.763 319.368 979.763 317.128ZM982.323 317.032C982.323 318.952 983.379 320.104 986.163 320.104C988.947 320.104 990.131 318.984 990.131 317.032C990.131 315.176 988.787 313.96 986.131 313.96C983.443 313.96 982.323 315.208 982.323 317.032ZM984.019 326.632C982.099 326.632 981.171 327.72 981.171 328.712C981.171 330.152 982.323 330.792 986.387 330.792C990.643 330.792 991.667 329.992 991.667 328.552C991.667 327.4 990.771 326.632 988.915 326.632H984.019ZM1005.62 327.176C1001.07 327.176 998.354 324.424 998.354 319.432C998.354 314.44 1001.23 311.464 1005.62 311.464C1009.91 311.464 1012.18 314.12 1012.18 318.248C1012.18 318.696 1012.15 319.4 1012.05 320.008H1001.14C1001.3 323.208 1002.74 324.968 1005.62 324.968C1008.05 324.968 1009.17 323.656 1009.62 322.12L1011.99 322.728C1011.31 325.32 1009.33 327.176 1005.62 327.176ZM1001.17 318.152H1009.59C1009.52 315.144 1008.21 313.512 1005.55 313.512C1002.96 313.512 1001.46 315.016 1001.17 318.152ZM1036.66 326.792V307.592H1043.63C1048.11 307.592 1050.42 310.088 1050.42 314.024C1050.42 317.576 1048.05 320.36 1043.76 320.36H1039.6V326.792H1036.66ZM1039.6 318.056H1043.41C1046.42 318.056 1047.6 316.488 1047.6 314.056C1047.6 311.592 1046.58 309.992 1043.38 309.992H1039.6V318.056ZM1054.19 319.272C1054.19 314.664 1057.01 311.464 1061.45 311.464C1065.87 311.464 1068.69 314.664 1068.69 319.272C1068.69 323.848 1066.09 327.176 1061.45 327.176C1056.78 327.176 1054.19 323.848 1054.19 319.272ZM1056.97 319.24C1056.97 322.44 1058.29 324.904 1061.42 324.904C1064.56 324.904 1065.9 322.44 1065.9 319.24C1065.9 316.04 1064.46 313.736 1061.45 313.736C1058.41 313.736 1056.97 316.04 1056.97 319.24ZM1073.36 326.792V324.584H1079.12V314.056H1073.64V311.848H1081.9V324.584H1086.96V326.792H1073.36ZM1078.19 308.36V305.736H1082.03V308.36H1078.19ZM1092.75 326.792V311.848H1095.37V315.56H1095.85C1096.78 313.288 1098.67 311.464 1101.04 311.464C1103.63 311.464 1105.16 313.288 1105.16 316.616V326.792H1102.38V317.256C1102.38 315.176 1101.68 313.992 1099.79 313.992C1097.29 313.992 1095.53 315.976 1095.53 318.568V326.792H1092.75ZM1114.03 321.256V314.056H1110.19V311.848H1114.03V307.592H1116.81V311.848H1124.27V314.056H1116.81V320.84C1116.81 323.432 1117.8 324.776 1120.36 324.776C1121.45 324.776 1122.6 324.52 1124.07 323.88L1124.62 326.056C1122.95 326.792 1121.48 327.176 1119.75 327.176C1115.75 327.176 1114.03 324.68 1114.03 321.256Z" fill="#212525"/>
<line x1="928" y1="262.792" x2="306" y2="262.792" stroke="#1342FF" stroke-width="4" stroke-dasharray="16 16"/>
<line x1="922.639" y1="269.446" x2="1058.96" y2="47.9515" stroke="#327831" stroke-width="4" stroke-dasharray="16 16"/>
<line x1="1256" y1="1120.8" x2="1256" y2="260.788" stroke="#B1259C" stroke-width="4" stroke-dasharray="8 8"/>
<line x1="705" y1="1116.79" x2="705" y2="620.792" stroke="#B1259C" stroke-width="4" stroke-dasharray="8 8"/>
<line x1="927.995" y1="262.792" x2="1796" y2="260.792" stroke="#1342FF" stroke-width="4"/>
<path d="M727.746 675.792L733.666 656.592H738.242L744.162 675.792H741.026L739.554 670.576H732.258L730.786 675.792H727.746ZM732.898 668.24H738.914L738.21 665.808C737.602 663.632 736.994 661.072 736.578 659.024H735.298C734.818 661.104 734.178 663.6 733.57 665.808L732.898 668.24ZM749.153 675.792V660.848H751.681V665.264L751.969 665.296C753.121 662.064 755.297 660.528 757.953 660.528C759.393 660.528 760.481 660.848 761.985 661.584L761.345 664.112C760.033 663.408 758.689 663.024 757.473 663.024C754.113 663.024 751.905 665.104 751.905 668.816V675.792H749.153ZM766.591 675.792V673.584H772.351V663.056H766.879V660.848H775.135V673.584H780.191V675.792H766.591ZM771.423 657.36V654.736H775.263V657.36H771.423ZM788.542 670.256V663.056H784.702V660.848H788.542V656.592H791.326V660.848H798.782V663.056H791.326V669.84C791.326 672.432 792.318 673.776 794.878 673.776C795.966 673.776 797.118 673.52 798.59 672.88L799.134 675.056C797.47 675.792 795.998 676.176 794.27 676.176C790.27 676.176 788.542 673.68 788.542 670.256ZM804.701 675.792V654.352H807.485V664.56H807.837C808.829 662.32 810.525 660.464 813.085 660.464C815.581 660.464 817.117 662.288 817.117 665.616V675.792H814.333V666.256C814.333 664.176 813.501 662.992 811.805 662.992C809.213 662.992 807.485 664.976 807.485 667.568V675.792H804.701ZM822.556 675.792V660.848H824.764V663.152H825.084C825.564 661.52 826.62 660.528 828.028 660.528C829.468 660.528 830.3 661.424 830.524 663.152H830.876C831.388 661.616 832.38 660.528 833.82 660.528C835.58 660.528 836.668 661.84 836.668 664.08V675.792H834.268V664.848C834.268 663.728 833.724 662.96 832.732 662.96C831.516 662.96 830.812 663.856 830.812 665.68V675.792H828.444V664.848C828.444 663.632 827.868 662.96 826.876 662.96C825.788 662.96 824.956 663.92 824.956 665.52V675.792H822.556ZM848.602 676.176C844.058 676.176 841.338 673.424 841.338 668.432C841.338 663.44 844.218 660.464 848.602 660.464C852.89 660.464 855.162 663.12 855.162 667.248C855.162 667.696 855.13 668.4 855.034 669.008H844.122C844.282 672.208 845.722 673.968 848.602 673.968C851.034 673.968 852.154 672.656 852.602 671.12L854.97 671.728C854.298 674.32 852.314 676.176 848.602 676.176ZM844.154 667.152H852.57C852.506 664.144 851.194 662.512 848.538 662.512C845.946 662.512 844.442 664.016 844.154 667.152ZM863.417 670.256V663.056H859.577V660.848H863.417V656.592H866.201V660.848H873.657V663.056H866.201V669.84C866.201 672.432 867.193 673.776 869.753 673.776C870.841 673.776 871.993 673.52 873.465 672.88L874.009 675.056C872.345 675.792 870.873 676.176 869.145 676.176C865.145 676.176 863.417 673.68 863.417 670.256ZM878.904 675.792V673.584H884.664V663.056H879.192V660.848H887.448V673.584H892.504V675.792H878.904ZM883.736 657.36V654.736H887.576V657.36H883.736ZM897.399 668.432C897.399 663.44 900.151 660.464 904.727 660.464C908.535 660.464 910.647 662.256 911.287 665.552L908.759 666.128C908.247 664.048 907.159 662.736 904.663 662.736C901.751 662.736 900.215 664.624 900.215 668.336C900.215 671.696 901.559 673.872 904.727 673.872C907.191 673.872 908.407 672.272 908.855 670.512L911.351 671.28C910.679 674.384 908.343 676.176 904.759 676.176C900.023 676.176 897.399 673.36 897.399 668.432ZM935.38 659.024V656.592H948.34V659.024H943.316V673.36H948.34V675.792H935.38V673.36H940.404V659.024H935.38ZM954.451 675.792V660.848H957.075V664.56H957.555C958.483 662.288 960.371 660.464 962.739 660.464C965.331 660.464 966.867 662.288 966.867 665.616V675.792H964.083V666.256C964.083 664.176 963.379 662.992 961.491 662.992C958.995 662.992 957.235 664.976 957.235 667.568V675.792H954.451ZM975.73 670.256V663.056H971.89V660.848H975.73V656.592H978.514V660.848H985.97V663.056H978.514V669.84C978.514 672.432 979.506 673.776 982.066 673.776C983.154 673.776 984.306 673.52 985.778 672.88L986.322 675.056C984.658 675.792 983.186 676.176 981.458 676.176C977.458 676.176 975.73 673.68 975.73 670.256ZM998.352 676.176C993.808 676.176 991.088 673.424 991.088 668.432C991.088 663.44 993.968 660.464 998.352 660.464C1002.64 660.464 1004.91 663.12 1004.91 667.248C1004.91 667.696 1004.88 668.4 1004.78 669.008H993.872C994.032 672.208 995.472 673.968 998.352 673.968C1000.78 673.968 1001.9 672.656 1002.35 671.12L1004.72 671.728C1004.05 674.32 1002.06 676.176 998.352 676.176ZM993.904 667.152H1002.32C1002.26 664.144 1000.94 662.512 998.288 662.512C995.696 662.512 994.192 664.016 993.904 667.152ZM1010.61 675.792V660.848H1013.23V664.56H1013.71C1014.64 662.288 1016.53 660.464 1018.9 660.464C1021.49 660.464 1023.02 662.288 1023.02 665.616V675.792H1020.24V666.256C1020.24 664.176 1019.54 662.992 1017.65 662.992C1015.15 662.992 1013.39 664.976 1013.39 667.568V675.792H1010.61ZM1035.69 676.176C1031.37 676.176 1029.26 674.32 1028.62 671.568L1031.18 671.056C1031.69 672.88 1033.04 674.128 1035.73 674.128C1037.97 674.128 1039.41 673.424 1039.41 671.888C1039.41 670.224 1037.58 669.712 1035.21 669.328C1031.98 668.816 1029.42 667.888 1029.42 664.88C1029.42 662.32 1031.44 660.464 1035.53 660.464C1039.6 660.464 1041.01 662.192 1041.65 664.528L1039.12 665.008C1038.64 663.088 1037.45 662.48 1035.44 662.48C1033.2 662.48 1032.11 663.28 1032.11 664.656C1032.11 666.32 1033.84 666.768 1036.08 667.152C1039.69 667.728 1042.19 668.56 1042.19 671.728C1042.19 674.256 1040.17 676.176 1035.69 676.176ZM1047.37 675.792V673.584H1053.13V663.056H1047.66V660.848H1055.92V673.584H1060.97V675.792H1047.37ZM1052.2 657.36V654.736H1056.04V657.36H1052.2ZM1069.32 670.256V663.056H1065.48V660.848H1069.32V656.592H1072.11V660.848H1079.56V663.056H1072.11V669.84C1072.11 672.432 1073.1 673.776 1075.66 673.776C1076.75 673.776 1077.9 673.52 1079.37 672.88L1079.92 675.056C1078.25 675.792 1076.78 676.176 1075.05 676.176C1071.05 676.176 1069.32 673.68 1069.32 670.256ZM1083.66 681.232L1084.11 678.8C1084.78 678.928 1085.42 678.992 1086.06 678.992C1087.95 678.992 1089.03 678.48 1090.38 675.728L1083.69 660.848H1086.79L1088.75 666.224C1089.51 668.4 1090.63 671.248 1091.43 673.648H1092.23C1093.03 671.184 1094.06 668.272 1094.79 666.224L1096.62 660.848H1099.59L1092.87 675.984C1091.18 679.76 1089.32 681.424 1086.03 681.424C1085.03 681.424 1084.3 681.328 1083.66 681.232ZM1122.18 658.992L1129.61 656.592H1131.21V673.392H1135.85V675.792H1122.6V673.392H1128.39V658.928C1126.82 659.856 1125.03 660.72 1123.11 661.392L1122.18 658.992Z" fill="#B1259C"/>
<path d="M839.444 716.792V700.592H842.684L844.385 708.152C844.655 709.421 844.898 711.068 845.276 713.012H845.735C846.14 710.447 846.491 708.638 847.031 706.181L848.192 700.592H851.378V716.792H849.596V708.503C849.596 706.451 849.731 703.886 849.812 702.185H849.191C848.894 703.994 848.597 706.046 848.192 707.774L846.545 714.74H844.331L842.522 707.234C842.171 705.83 841.82 703.778 841.523 702.185H841.01C841.064 703.859 841.199 706.289 841.199 708.098V716.792H839.444ZM861.475 717.089C857.668 717.089 855.508 714.686 855.508 710.555C855.508 706.397 857.938 703.94 861.475 703.94C864.931 703.94 866.848 706.181 866.848 709.61C866.848 709.907 866.821 710.447 866.767 710.906H857.371C857.479 713.849 858.775 715.55 861.448 715.55C863.635 715.55 864.688 714.335 865.12 712.931L866.74 713.336C866.146 715.577 864.391 717.089 861.475 717.089ZM857.398 709.583H865.12C865.039 706.91 863.878 705.398 861.421 705.398C859.072 705.398 857.668 706.802 857.398 709.583ZM871.248 716.792V704.237H872.733V706.154H872.976C873.381 704.777 874.272 703.994 875.487 703.994C876.675 703.994 877.431 704.723 877.62 706.154H877.89C878.295 704.885 879.132 703.994 880.428 703.994C881.886 703.994 882.831 705.074 882.831 706.937V716.792H881.157V707.396C881.157 706.343 880.671 705.614 879.699 705.614C878.565 705.614 877.863 706.424 877.863 708.071V716.792H876.216V707.396C876.216 706.235 875.703 705.614 874.758 705.614C873.732 705.614 872.922 706.478 872.922 707.909V716.792H871.248ZM886.799 710.474C886.799 706.667 889.148 703.94 892.793 703.94C896.411 703.94 898.76 706.667 898.76 710.474C898.76 714.254 896.654 717.089 892.793 717.089C888.905 717.089 886.799 714.254 886.799 710.474ZM888.662 710.447C888.662 713.228 889.904 715.523 892.766 715.523C895.628 715.523 896.897 713.228 896.897 710.447C896.897 707.639 895.547 705.506 892.793 705.506C890.039 705.506 888.662 707.639 888.662 710.447ZM904.105 716.792V704.237H905.833V707.909L906.049 707.936C906.94 705.452 908.803 703.967 911.125 703.967C912.34 703.967 913.366 704.291 914.581 704.939L914.095 706.64C912.988 706.019 911.854 705.668 910.828 705.668C907.912 705.668 905.968 707.585 905.968 710.636V716.792H904.105ZM917.793 721.382L918.09 719.735C918.657 719.843 919.17 719.897 919.71 719.897C921.33 719.897 922.329 719.465 923.625 716.765L917.82 704.237H919.899L921.681 708.719C922.437 710.609 923.544 713.255 924.3 715.334H924.84C925.542 713.201 926.595 710.501 927.27 708.719L928.971 704.237H930.942L925.245 716.954C923.787 720.167 922.248 721.571 919.71 721.571C918.9 721.571 918.279 721.463 917.793 721.382ZM936.071 709.853V708.017H944.252V709.853H936.071ZM962.125 710.555C962.125 714.632 960.046 717.089 957.427 717.089C955.429 717.089 953.755 715.658 952.972 713.822H952.675V716.792H950.812V698.702H952.675V707.18H952.945C953.647 705.371 955.024 703.94 957.292 703.94C960.073 703.94 962.125 706.451 962.125 710.555ZM952.675 709.691V711.446C952.675 713.768 954.241 715.469 956.482 715.469C958.885 715.469 960.289 713.687 960.289 710.555C960.289 707.369 958.858 705.641 956.509 705.641C954.214 705.641 952.675 707.342 952.675 709.691ZM965.769 710.474C965.769 706.667 968.118 703.94 971.763 703.94C975.381 703.94 977.73 706.667 977.73 710.474C977.73 714.254 975.624 717.089 971.763 717.089C967.875 717.089 965.769 714.254 965.769 710.474ZM967.632 710.447C967.632 713.228 968.874 715.523 971.736 715.523C974.598 715.523 975.867 713.228 975.867 710.447C975.867 707.639 974.517 705.506 971.763 705.506C969.009 705.506 967.632 707.639 967.632 710.447ZM982.454 712.769V704.237H984.29V712.391C984.29 714.308 984.965 715.388 986.72 715.388C989.015 715.388 990.689 713.606 990.689 711.23V704.237H992.525V716.792H990.77V713.687H990.419C989.663 715.55 988.043 717.089 985.991 717.089C983.777 717.089 982.454 715.577 982.454 712.769ZM998.355 716.792V704.237H1000.11V707.342H1000.46C1001.22 705.506 1002.84 703.94 1004.89 703.94C1007.13 703.94 1008.45 705.452 1008.45 708.26V716.792H1006.59V708.665C1006.59 706.721 1005.97 705.641 1004.21 705.641C1001.87 705.641 1000.22 707.423 1000.22 709.799V716.792H998.355ZM1012.96 710.555C1012.96 706.451 1014.93 703.94 1017.88 703.94C1020.09 703.94 1021.44 705.371 1022.14 707.18H1022.41V698.702H1024.27V716.792H1022.41V713.822H1022.11C1021.36 715.658 1019.68 717.089 1017.74 717.089C1014.99 717.089 1012.96 714.632 1012.96 710.555ZM1022.41 711.446V709.691C1022.41 707.342 1020.82 705.641 1018.66 705.641C1016.26 705.641 1014.8 707.369 1014.8 710.555C1014.8 713.687 1016.23 715.469 1018.66 715.469C1020.79 715.469 1022.41 713.768 1022.41 711.446Z" fill="#B1259C"/>
<path d="M1287.25 675.792L1293.17 656.592H1297.74L1303.66 675.792H1300.53L1299.05 670.576H1291.76L1290.29 675.792H1287.25ZM1292.4 668.24H1298.41L1297.71 665.808C1297.1 663.632 1296.49 661.072 1296.08 659.024H1294.8C1294.32 661.104 1293.68 663.6 1293.07 665.808L1292.4 668.24ZM1308.65 675.792V660.848H1311.18V665.264L1311.47 665.296C1312.62 662.064 1314.8 660.528 1317.45 660.528C1318.89 660.528 1319.98 660.848 1321.48 661.584L1320.84 664.112C1319.53 663.408 1318.19 663.024 1316.97 663.024C1313.61 663.024 1311.4 665.104 1311.4 668.816V675.792H1308.65ZM1326.09 675.792V673.584H1331.85V663.056H1326.38V660.848H1334.64V673.584H1339.69V675.792H1326.09ZM1330.92 657.36V654.736H1334.76V657.36H1330.92ZM1348.04 670.256V663.056H1344.2V660.848H1348.04V656.592H1350.83V660.848H1358.28V663.056H1350.83V669.84C1350.83 672.432 1351.82 673.776 1354.38 673.776C1355.47 673.776 1356.62 673.52 1358.09 672.88L1358.63 675.056C1356.97 675.792 1355.5 676.176 1353.77 676.176C1349.77 676.176 1348.04 673.68 1348.04 670.256ZM1364.2 675.792V654.352H1366.98V664.56H1367.34C1368.33 662.32 1370.02 660.464 1372.58 660.464C1375.08 660.464 1376.62 662.288 1376.62 665.616V675.792H1373.83V666.256C1373.83 664.176 1373 662.992 1371.3 662.992C1368.71 662.992 1366.98 664.976 1366.98 667.568V675.792H1364.2ZM1382.06 675.792V660.848H1384.26V663.152H1384.58C1385.06 661.52 1386.12 660.528 1387.53 660.528C1388.97 660.528 1389.8 661.424 1390.02 663.152H1390.38C1390.89 661.616 1391.88 660.528 1393.32 660.528C1395.08 660.528 1396.17 661.84 1396.17 664.08V675.792H1393.77V664.848C1393.77 663.728 1393.22 662.96 1392.23 662.96C1391.02 662.96 1390.31 663.856 1390.31 665.68V675.792H1387.94V664.848C1387.94 663.632 1387.37 662.96 1386.38 662.96C1385.29 662.96 1384.46 663.92 1384.46 665.52V675.792H1382.06ZM1408.1 676.176C1403.56 676.176 1400.84 673.424 1400.84 668.432C1400.84 663.44 1403.72 660.464 1408.1 660.464C1412.39 660.464 1414.66 663.12 1414.66 667.248C1414.66 667.696 1414.63 668.4 1414.53 669.008H1403.62C1403.78 672.208 1405.22 673.968 1408.1 673.968C1410.53 673.968 1411.65 672.656 1412.1 671.12L1414.47 671.728C1413.8 674.32 1411.81 676.176 1408.1 676.176ZM1403.65 667.152H1412.07C1412.01 664.144 1410.69 662.512 1408.04 662.512C1405.45 662.512 1403.94 664.016 1403.65 667.152ZM1422.92 670.256V663.056H1419.08V660.848H1422.92V656.592H1425.7V660.848H1433.16V663.056H1425.7V669.84C1425.7 672.432 1426.69 673.776 1429.25 673.776C1430.34 673.776 1431.49 673.52 1432.97 672.88L1433.51 675.056C1431.85 675.792 1430.37 676.176 1428.65 676.176C1424.65 676.176 1422.92 673.68 1422.92 670.256ZM1438.4 675.792V673.584H1444.16V663.056H1438.69V660.848H1446.95V673.584H1452V675.792H1438.4ZM1443.24 657.36V654.736H1447.08V657.36H1443.24ZM1456.9 668.432C1456.9 663.44 1459.65 660.464 1464.23 660.464C1468.03 660.464 1470.15 662.256 1470.79 665.552L1468.26 666.128C1467.75 664.048 1466.66 662.736 1464.16 662.736C1461.25 662.736 1459.71 664.624 1459.71 668.336C1459.71 671.696 1461.06 673.872 1464.23 673.872C1466.69 673.872 1467.91 672.272 1468.35 670.512L1470.85 671.28C1470.18 674.384 1467.84 676.176 1464.26 676.176C1459.52 676.176 1456.9 673.36 1456.9 668.432ZM1494.88 659.024V656.592H1507.84V659.024H1502.82V673.36H1507.84V675.792H1494.88V673.36H1499.9V659.024H1494.88ZM1513.95 675.792V660.848H1516.57V664.56H1517.05C1517.98 662.288 1519.87 660.464 1522.24 660.464C1524.83 660.464 1526.37 662.288 1526.37 665.616V675.792H1523.58V666.256C1523.58 664.176 1522.88 662.992 1520.99 662.992C1518.49 662.992 1516.73 664.976 1516.73 667.568V675.792H1513.95ZM1535.23 670.256V663.056H1531.39V660.848H1535.23V656.592H1538.01V660.848H1545.47V663.056H1538.01V669.84C1538.01 672.432 1539.01 673.776 1541.57 673.776C1542.65 673.776 1543.81 673.52 1545.28 672.88L1545.82 675.056C1544.16 675.792 1542.69 676.176 1540.96 676.176C1536.96 676.176 1535.23 673.68 1535.23 670.256ZM1557.85 676.176C1553.31 676.176 1550.59 673.424 1550.59 668.432C1550.59 663.44 1553.47 660.464 1557.85 660.464C1562.14 660.464 1564.41 663.12 1564.41 667.248C1564.41 667.696 1564.38 668.4 1564.28 669.008H1553.37C1553.53 672.208 1554.97 673.968 1557.85 673.968C1560.28 673.968 1561.4 672.656 1561.85 671.12L1564.22 671.728C1563.55 674.32 1561.56 676.176 1557.85 676.176ZM1553.4 667.152H1561.82C1561.76 664.144 1560.44 662.512 1557.79 662.512C1555.2 662.512 1553.69 664.016 1553.4 667.152ZM1570.11 675.792V660.848H1572.73V664.56H1573.21C1574.14 662.288 1576.03 660.464 1578.4 660.464C1580.99 660.464 1582.52 662.288 1582.52 665.616V675.792H1579.74V666.256C1579.74 664.176 1579.04 662.992 1577.15 662.992C1574.65 662.992 1572.89 664.976 1572.89 667.568V675.792H1570.11ZM1595.19 676.176C1590.87 676.176 1588.76 674.32 1588.12 671.568L1590.68 671.056C1591.19 672.88 1592.54 674.128 1595.23 674.128C1597.47 674.128 1598.91 673.424 1598.91 671.888C1598.91 670.224 1597.08 669.712 1594.71 669.328C1591.48 668.816 1588.92 667.888 1588.92 664.88C1588.92 662.32 1590.94 660.464 1595.03 660.464C1599.1 660.464 1600.51 662.192 1601.15 664.528L1598.62 665.008C1598.14 663.088 1596.95 662.48 1594.94 662.48C1592.7 662.48 1591.61 663.28 1591.61 664.656C1591.61 666.32 1593.34 666.768 1595.58 667.152C1599.19 667.728 1601.69 668.56 1601.69 671.728C1601.69 674.256 1599.67 676.176 1595.19 676.176ZM1606.87 675.792V673.584H1612.63V663.056H1607.16V660.848H1615.42V673.584H1620.47V675.792H1606.87ZM1611.7 657.36V654.736H1615.54V657.36H1611.7ZM1628.82 670.256V663.056H1624.98V660.848H1628.82V656.592H1631.61V660.848H1639.06V663.056H1631.61V669.84C1631.61 672.432 1632.6 673.776 1635.16 673.776C1636.25 673.776 1637.4 673.52 1638.87 672.88L1639.42 675.056C1637.75 675.792 1636.28 676.176 1634.55 676.176C1630.55 676.176 1628.82 673.68 1628.82 670.256ZM1643.16 681.232L1643.61 678.8C1644.28 678.928 1644.92 678.992 1645.56 678.992C1647.45 678.992 1648.53 678.48 1649.88 675.728L1643.19 660.848H1646.29L1648.25 666.224C1649.01 668.4 1650.13 671.248 1650.93 673.648H1651.73C1652.53 671.184 1653.56 668.272 1654.29 666.224L1656.12 660.848H1659.09L1652.37 675.984C1650.68 679.76 1648.82 681.424 1645.53 681.424C1644.53 681.424 1643.8 681.328 1643.16 681.232ZM1681.52 675.792C1681.49 675.248 1681.49 674.672 1681.49 674.096C1681.49 669.84 1683.16 668.208 1687 666.8C1691.32 665.328 1692.44 664.08 1692.44 661.84C1692.44 659.888 1691.44 658.512 1689.08 658.512C1686.42 658.512 1685.27 660.272 1684.85 662.96L1682.13 662.48C1682.77 658.736 1684.88 656.24 1689.04 656.24C1693.04 656.24 1695.25 658.288 1695.25 662.032C1695.25 665.712 1692.37 667.344 1688.69 668.56C1684.82 669.904 1683.73 670.928 1683.64 673.904C1685.52 673.616 1688.53 673.392 1690.58 673.392H1695.44V675.792H1681.52Z" fill="#B1259C"/>
<path d="M1390.84 708.692C1390.84 703.319 1392.97 700.295 1396.99 700.295C1400.26 700.295 1402.1 702.185 1402.55 705.641L1400.75 706.073C1400.21 703.211 1399.15 701.996 1396.97 701.996C1393.89 701.996 1392.78 704.453 1392.78 708.692C1392.78 713.039 1393.91 715.415 1396.91 715.415C1399.34 715.415 1400.34 714.146 1400.88 711.23L1402.72 711.635C1402.2 715.145 1400.42 717.089 1396.88 717.089C1392.78 717.089 1390.84 714.065 1390.84 708.692ZM1406.71 710.474C1406.71 706.667 1409.06 703.94 1412.7 703.94C1416.32 703.94 1418.67 706.667 1418.67 710.474C1418.67 714.254 1416.57 717.089 1412.7 717.089C1408.82 717.089 1406.71 714.254 1406.71 710.474ZM1408.57 710.447C1408.57 713.228 1409.82 715.523 1412.68 715.523C1415.54 715.523 1416.81 713.228 1416.81 710.447C1416.81 707.639 1415.46 705.506 1412.7 705.506C1409.95 705.506 1408.57 707.639 1408.57 710.447ZM1422.75 716.792V704.237H1424.23V706.154H1424.48C1424.88 704.777 1425.77 703.994 1426.99 703.994C1428.17 703.994 1428.93 704.723 1429.12 706.154H1429.39C1429.79 704.885 1430.63 703.994 1431.93 703.994C1433.39 703.994 1434.33 705.074 1434.33 706.937V716.792H1432.66V707.396C1432.66 706.343 1432.17 705.614 1431.2 705.614C1430.06 705.614 1429.36 706.424 1429.36 708.071V716.792H1427.72V707.396C1427.72 706.235 1427.2 705.614 1426.26 705.614C1425.23 705.614 1424.42 706.478 1424.42 707.909V716.792H1422.75ZM1450.45 710.555C1450.45 714.632 1448.42 717.089 1445.75 717.089C1443.7 717.089 1442.05 715.658 1441.3 713.822H1441V721.301H1439.14V704.237H1441V707.18H1441.27C1441.97 705.371 1443.32 703.94 1445.62 703.94C1448.45 703.94 1450.45 706.451 1450.45 710.555ZM1441 711.446C1441 713.768 1442.56 715.469 1444.81 715.469C1447.18 715.469 1448.61 713.741 1448.61 710.555C1448.61 707.315 1447.15 705.641 1444.83 705.641C1442.56 705.641 1441 707.342 1441 709.691V711.446ZM1454.98 712.769V704.237H1456.82V712.391C1456.82 714.308 1457.49 715.388 1459.25 715.388C1461.54 715.388 1463.22 713.606 1463.22 711.23V704.237H1465.05V716.792H1463.3V713.687H1462.95C1462.19 715.55 1460.57 717.089 1458.52 717.089C1456.31 717.089 1454.98 715.577 1454.98 712.769ZM1473.02 712.256V705.776H1469.75V704.237H1473.02V700.592H1474.85V704.237H1481.33V705.776H1474.85V711.959C1474.85 714.281 1475.77 715.469 1478.04 715.469C1478.99 715.469 1479.93 715.28 1481.2 714.686L1481.6 716.171C1480.2 716.792 1479.01 717.089 1477.69 717.089C1474.45 717.089 1473.02 715.091 1473.02 712.256ZM1491.94 717.089C1488.14 717.089 1485.98 714.686 1485.98 710.555C1485.98 706.397 1488.41 703.94 1491.94 703.94C1495.4 703.94 1497.32 706.181 1497.32 709.61C1497.32 709.907 1497.29 710.447 1497.24 710.906H1487.84C1487.95 713.849 1489.24 715.55 1491.92 715.55C1494.1 715.55 1495.16 714.335 1495.59 712.931L1497.21 713.336C1496.62 715.577 1494.86 717.089 1491.94 717.089ZM1487.87 709.583H1495.59C1495.51 706.91 1494.35 705.398 1491.89 705.398C1489.54 705.398 1488.14 706.802 1487.87 709.583ZM1503.36 709.853V708.017H1511.55V709.853H1503.36ZM1529.42 710.555C1529.42 714.632 1527.34 717.089 1524.72 717.089C1522.72 717.089 1521.05 715.658 1520.27 713.822H1519.97V716.792H1518.11V698.702H1519.97V707.18H1520.24C1520.94 705.371 1522.32 703.94 1524.59 703.94C1527.37 703.94 1529.42 706.451 1529.42 710.555ZM1519.97 709.691V711.446C1519.97 713.768 1521.53 715.469 1523.78 715.469C1526.18 715.469 1527.58 713.687 1527.58 710.555C1527.58 707.369 1526.15 705.641 1523.8 705.641C1521.51 705.641 1519.97 707.342 1519.97 709.691ZM1533.06 710.474C1533.06 706.667 1535.41 703.94 1539.06 703.94C1542.67 703.94 1545.02 706.667 1545.02 710.474C1545.02 714.254 1542.92 717.089 1539.06 717.089C1535.17 717.089 1533.06 714.254 1533.06 710.474ZM1534.93 710.447C1534.93 713.228 1536.17 715.523 1539.03 715.523C1541.89 715.523 1543.16 713.228 1543.16 710.447C1543.16 707.639 1541.81 705.506 1539.06 705.506C1536.3 705.506 1534.93 707.639 1534.93 710.447ZM1549.75 712.769V704.237H1551.58V712.391C1551.58 714.308 1552.26 715.388 1554.01 715.388C1556.31 715.388 1557.98 713.606 1557.98 711.23V704.237H1559.82V716.792H1558.06V713.687H1557.71C1556.96 715.55 1555.34 717.089 1553.28 717.089C1551.07 717.089 1549.75 715.577 1549.75 712.769ZM1565.65 716.792V704.237H1567.4V707.342H1567.76C1568.51 705.506 1570.13 703.94 1572.18 703.94C1574.42 703.94 1575.75 705.452 1575.75 708.26V716.792H1573.88V708.665C1573.88 706.721 1573.26 705.641 1571.51 705.641C1569.16 705.641 1567.51 707.423 1567.51 709.799V716.792H1565.65ZM1580.26 710.555C1580.26 706.451 1582.23 703.94 1585.17 703.94C1587.38 703.94 1588.73 705.371 1589.44 707.18H1589.71V698.702H1591.57V716.792H1589.71V713.822H1589.41C1588.65 715.658 1586.98 717.089 1585.03 717.089C1582.28 717.089 1580.26 714.632 1580.26 710.555ZM1589.71 711.446V709.691C1589.71 707.342 1588.11 705.641 1585.95 705.641C1583.55 705.641 1582.09 707.369 1582.09 710.555C1582.09 713.687 1583.52 715.469 1585.95 715.469C1588.09 715.469 1589.71 713.768 1589.71 711.446Z" fill="#B1259C"/>
<path d="M302 75.792L290.453 95.792H313.547L302 75.792ZM302 1121.79H304L304 93.792H302H300L300 1121.79H302Z" fill="#212525"/>
<line x1="398.297" y1="1119.74" x2="926.297" y2="261.744" stroke="#327831" stroke-width="4"/>
<path d="M1829.51 1120.79L1809.51 1109.24V1132.34L1829.51 1120.79ZM300 1120.79V1122.79H1811.51V1120.79V1118.79H300V1120.79Z" fill="#212525"/>
<rect x="906" y="244" width="40" height="40" fill="#212525"/>
</svg>
