<svg width="956" height="732" viewBox="0 0 956 732" fill="none" xmlns="http://www.w3.org/2000/svg">
<rect width="956" height="732" fill="#E9E9E9"/>
<rect x="176" y="15" width="507" height="189" fill="#212525" fill-opacity="0.1"/>
<rect x="176.5" y="15.5" width="506" height="188" stroke="#212525" stroke-opacity="0.5" stroke-dasharray="10 10"/>
<path d="M196.992 47.184C196.992 43.968 198.336 42.208 200.768 42.208C202.768 42.208 203.888 43.328 204.16 45.424L202.784 45.744C202.496 44.16 201.936 43.472 200.736 43.472C199.04 43.472 198.464 44.88 198.464 47.184C198.464 49.616 199.056 50.96 200.704 50.96C202.032 50.96 202.56 50.24 202.864 48.624L204.24 48.928C203.936 51.072 202.832 52.192 200.704 52.192C198.224 52.192 196.992 50.416 196.992 47.184ZM210.047 52.176C207.823 52.176 206.671 50.896 206.671 48.432V42.4H208.143V48.32C208.143 49.888 208.543 50.96 210.047 50.96C211.503 50.96 211.935 50.048 211.935 48.4V42.4H213.407V48.432C213.407 50.896 212.239 52.176 210.047 52.176ZM216.159 52V42.4H219.263C221.903 42.4 223.087 43.904 223.087 47.136C223.087 50.336 221.599 52 219.247 52H216.159ZM217.631 50.784H219.151C220.959 50.784 221.615 49.44 221.615 47.136C221.615 44.528 220.911 43.616 219.087 43.616H217.631V50.784ZM224.654 52L227.614 42.4H229.902L232.862 52H231.294L230.558 49.392H226.91L226.174 52H224.654ZM227.23 48.224H230.238L229.886 47.008C229.582 45.92 229.278 44.64 229.07 43.616H228.43C228.19 44.656 227.87 45.904 227.566 47.008L227.23 48.224ZM244.445 52V42.4H247.933C250.173 42.4 251.325 43.648 251.325 45.616C251.325 47.392 250.141 48.784 247.997 48.784H245.917V52H244.445ZM245.917 47.632H247.821C249.325 47.632 249.917 46.848 249.917 45.632C249.917 44.4 249.405 43.6 247.805 43.6H245.917V47.632ZM254.076 52V44.528H255.34V46.736L255.484 46.752C256.06 45.136 257.148 44.368 258.476 44.368C259.196 44.368 259.74 44.528 260.492 44.896L260.172 46.16C259.516 45.808 258.844 45.616 258.236 45.616C256.556 45.616 255.452 46.656 255.452 48.512V52H254.076ZM262.572 48.24C262.572 45.936 263.98 44.336 266.204 44.336C268.412 44.336 269.82 45.936 269.82 48.24C269.82 50.528 268.524 52.192 266.204 52.192C263.868 52.192 262.572 50.528 262.572 48.24ZM263.964 48.224C263.964 49.824 264.62 51.056 266.188 51.056C267.756 51.056 268.428 49.824 268.428 48.224C268.428 46.624 267.708 45.472 266.204 45.472C264.684 45.472 263.964 46.624 263.964 48.224ZM272.155 47.168C272.155 45.44 273.387 44.528 275.451 44.528H279.211V45.536H278.379C277.963 45.536 277.355 45.488 276.587 45.392L276.571 45.632C277.627 45.856 278.555 46.336 278.555 47.392C278.555 48.784 277.435 49.696 275.339 49.696C274.875 49.696 274.475 49.648 274.107 49.568L273.867 49.92C273.723 50.144 273.643 50.304 273.643 50.512C273.643 50.848 273.915 50.976 274.475 50.976H276.827C278.379 50.976 279.259 51.632 279.259 52.8C279.259 54.336 278.315 55.024 275.339 55.024C272.571 55.024 271.723 54.384 271.723 53.376C271.723 52.704 272.395 52.256 273.323 52V51.824C272.843 51.68 272.539 51.36 272.539 50.88C272.539 50.464 272.811 50.16 273.243 49.872L273.819 49.472C272.731 49.104 272.155 48.288 272.155 47.168ZM273.435 47.12C273.435 48.08 273.963 48.656 275.355 48.656C276.747 48.656 277.339 48.096 277.339 47.12C277.339 46.192 276.667 45.584 275.339 45.584C273.995 45.584 273.435 46.208 273.435 47.12ZM274.283 51.92C273.323 51.92 272.859 52.464 272.859 52.96C272.859 53.68 273.435 54 275.467 54C277.595 54 278.107 53.6 278.107 52.88C278.107 52.304 277.659 51.92 276.731 51.92H274.283ZM282.154 52V44.528H283.418V46.736L283.562 46.752C284.138 45.136 285.226 44.368 286.554 44.368C287.274 44.368 287.818 44.528 288.57 44.896L288.25 46.16C287.594 45.808 286.922 45.616 286.314 45.616C284.634 45.616 283.53 46.656 283.53 48.512V52H282.154ZM293.114 52.16C291.738 52.16 290.762 51.392 290.762 50.048C290.762 48.8 291.61 47.904 293.482 47.904H295.93V47.104C295.93 46.176 295.45 45.456 294.282 45.456C293.274 45.456 292.666 46 292.378 46.704L291.114 46.256C291.514 45.184 292.65 44.336 294.314 44.336C296.346 44.336 297.322 45.408 297.322 47.088V52H296.074V50.32H295.818C295.386 51.376 294.474 52.16 293.114 52.16ZM295.93 48.752H293.754C292.682 48.752 292.058 49.184 292.058 49.968C292.058 50.56 292.554 51.088 293.626 51.088C294.986 51.088 295.93 50.288 295.93 49.216V48.752ZM300.137 52V44.528H301.241V45.68H301.401C301.641 44.864 302.169 44.368 302.873 44.368C303.593 44.368 304.009 44.816 304.121 45.68H304.297C304.553 44.912 305.049 44.368 305.769 44.368C306.649 44.368 307.193 45.024 307.193 46.144V52H305.993V46.528C305.993 45.968 305.721 45.584 305.225 45.584C304.617 45.584 304.265 46.032 304.265 46.944V52H303.081V46.528C303.081 45.92 302.793 45.584 302.297 45.584C301.753 45.584 301.337 46.064 301.337 46.864V52H300.137Z" fill="#212525"/>
<mask id="path-4-inside-1_440_4170" fill="white">
<path d="M196 81H297V121H196V81Z"/>
</mask>
<path d="M196 81H297V121H196V81Z" fill="#212525" fill-opacity="0.3"/>
<path d="M196 81V80.1562H195.156V81H196ZM297 81H297.844V80.1562H297V81ZM297 121V121.84H297.844V121H297ZM196 121H195.156V121.84H196V121ZM196 81.8438H297V80.1562H196V81.8438ZM296.156 81V121H297.844V81H296.156ZM297 120.16H196V121.84H297V120.16ZM196.844 121V81H195.156V121H196.844Z" fill="#212525" mask="url(#path-4-inside-1_440_4170)"/>
<path d="M219.995 105.5V97.4H223.019C224.747 97.4 225.624 98.102 225.624 99.452C225.624 100.518 224.882 101.126 223.788 101.315V101.49C225.287 101.598 225.948 102.111 225.948 103.259C225.948 104.622 225.084 105.5 223.329 105.5H219.995ZM221.223 104.595H223.316C224.288 104.595 224.747 104.082 224.747 103.218C224.747 102.422 224.45 101.895 223.302 101.895H221.223V104.595ZM221.223 100.991H223.167C223.937 100.991 224.463 100.505 224.463 99.6275C224.463 98.777 224.018 98.3045 223.086 98.3045H221.223V100.991ZM227.838 105.5V104.568H230.227V97.3865H227.959V96.455H231.388V104.568H233.575V105.5H227.838ZM235.546 102.327C235.546 100.383 236.734 99.0335 238.61 99.0335C240.473 99.0335 241.661 100.383 241.661 102.327C241.661 104.258 240.568 105.662 238.61 105.662C236.639 105.662 235.546 104.258 235.546 102.327ZM236.72 102.314C236.72 103.664 237.274 104.703 238.597 104.703C239.92 104.703 240.487 103.664 240.487 102.314C240.487 100.964 239.879 99.992 238.61 99.992C237.328 99.992 236.72 100.964 236.72 102.314ZM243.537 102.395C243.537 100.289 244.698 99.0335 246.629 99.0335C248.235 99.0335 249.126 99.7895 249.396 101.18L248.33 101.423C248.114 100.545 247.655 99.992 246.602 99.992C245.373 99.992 244.725 100.788 244.725 102.354C244.725 103.772 245.292 104.69 246.629 104.69C247.668 104.69 248.181 104.015 248.37 103.272L249.423 103.596C249.14 104.906 248.154 105.662 246.642 105.662C244.644 105.662 243.537 104.474 243.537 102.395ZM252.082 105.5V96.455H253.243V101.814H254.471L256.294 99.1955H257.549V99.4655L255.322 102.287L257.779 105.23V105.5H256.537L254.525 102.827H253.243V105.5H252.082ZM270.198 105.662C268.227 105.662 267.147 103.893 267.147 101.436C267.147 98.9795 268.24 97.238 270.198 97.238C272.142 97.238 273.235 98.9795 273.235 101.436C273.235 103.893 272.155 105.662 270.198 105.662ZM270.198 104.649C271.494 104.649 272.074 103.353 272.074 101.436C272.074 99.533 271.48 98.2505 270.198 98.2505C268.915 98.2505 268.308 99.533 268.308 101.436C268.308 103.353 268.902 104.649 270.198 104.649ZM269.644 102.044V100.775H270.738V102.044H269.644Z" fill="#212525"/>
<mask id="path-7-inside-2_440_4170" fill="white">
<path d="M318 81H419V121H318V81Z"/>
</mask>
<path d="M318 81H419V121H318V81Z" fill="#212525" fill-opacity="0.3"/>
<path d="M318 81V80.1562H317.156V81H318ZM419 81H419.844V80.1562H419V81ZM419 121V121.84H419.844V121H419ZM318 121H317.156V121.84H318V121ZM318 81.8438H419V80.1562H318V81.8438ZM418.156 81V121H419.844V81H418.156ZM419 120.16H318V121.84H419V120.16ZM318.844 121V81H317.156V121H318.844Z" fill="#212525" mask="url(#path-7-inside-2_440_4170)"/>
<path d="M341.995 105.5V97.4H345.019C346.747 97.4 347.624 98.102 347.624 99.452C347.624 100.518 346.882 101.126 345.788 101.315V101.49C347.287 101.598 347.948 102.111 347.948 103.259C347.948 104.622 347.084 105.5 345.329 105.5H341.995ZM343.223 104.595H345.316C346.288 104.595 346.747 104.082 346.747 103.218C346.747 102.422 346.45 101.895 345.302 101.895H343.223V104.595ZM343.223 100.991H345.167C345.937 100.991 346.463 100.505 346.463 99.6275C346.463 98.777 346.018 98.3045 345.086 98.3045H343.223V100.991ZM349.838 105.5V104.568H352.227V97.3865H349.959V96.455H353.388V104.568H355.575V105.5H349.838ZM357.546 102.327C357.546 100.383 358.734 99.0335 360.61 99.0335C362.473 99.0335 363.661 100.383 363.661 102.327C363.661 104.258 362.568 105.662 360.61 105.662C358.639 105.662 357.546 104.258 357.546 102.327ZM358.72 102.314C358.72 103.664 359.274 104.703 360.597 104.703C361.92 104.703 362.487 103.664 362.487 102.314C362.487 100.964 361.879 99.992 360.61 99.992C359.328 99.992 358.72 100.964 358.72 102.314ZM365.537 102.395C365.537 100.289 366.698 99.0335 368.629 99.0335C370.235 99.0335 371.126 99.7895 371.396 101.18L370.33 101.423C370.114 100.545 369.655 99.992 368.602 99.992C367.373 99.992 366.725 100.788 366.725 102.354C366.725 103.772 367.292 104.69 368.629 104.69C369.668 104.69 370.181 104.015 370.37 103.272L371.423 103.596C371.14 104.906 370.154 105.662 368.642 105.662C366.644 105.662 365.537 104.474 365.537 102.395ZM374.082 105.5V96.455H375.243V101.814H376.471L378.294 99.1955H379.549V99.4655L377.322 102.287L379.779 105.23V105.5H378.537L376.525 102.827H375.243V105.5H374.082ZM389.295 98.4125L392.427 97.4H393.102V104.487H395.06V105.5H389.471V104.487H391.914V98.3855C391.253 98.777 390.497 99.1415 389.687 99.425L389.295 98.4125Z" fill="#212525"/>
<mask id="path-10-inside-3_440_4170" fill="white">
<path d="M440 81H541V121H440V81Z"/>
</mask>
<path d="M440 81H541V121H440V81Z" fill="#212525" fill-opacity="0.3"/>
<path d="M440 81V80.1562H439.156V81H440ZM541 81H541.844V80.1562H541V81ZM541 121V121.84H541.844V121H541ZM440 121H439.156V121.84H440V121ZM440 81.8438H541V80.1562H440V81.8438ZM540.156 81V121H541.844V81H540.156ZM541 120.16H440V121.84H541V120.16ZM440.844 121V81H439.156V121H440.844Z" fill="#212525" mask="url(#path-10-inside-3_440_4170)"/>
<path d="M463.995 105.5V97.4H467.019C468.747 97.4 469.624 98.102 469.624 99.452C469.624 100.518 468.882 101.126 467.788 101.315V101.49C469.287 101.598 469.948 102.111 469.948 103.259C469.948 104.622 469.084 105.5 467.329 105.5H463.995ZM465.223 104.595H467.316C468.288 104.595 468.747 104.082 468.747 103.218C468.747 102.422 468.45 101.895 467.302 101.895H465.223V104.595ZM465.223 100.991H467.167C467.937 100.991 468.463 100.505 468.463 99.6275C468.463 98.777 468.018 98.3045 467.086 98.3045H465.223V100.991ZM471.838 105.5V104.568H474.227V97.3865H471.959V96.455H475.388V104.568H477.575V105.5H471.838ZM479.546 102.327C479.546 100.383 480.734 99.0335 482.61 99.0335C484.473 99.0335 485.661 100.383 485.661 102.327C485.661 104.258 484.568 105.662 482.61 105.662C480.639 105.662 479.546 104.258 479.546 102.327ZM480.72 102.314C480.72 103.664 481.274 104.703 482.597 104.703C483.92 104.703 484.487 103.664 484.487 102.314C484.487 100.964 483.879 99.992 482.61 99.992C481.328 99.992 480.72 100.964 480.72 102.314ZM487.537 102.395C487.537 100.289 488.698 99.0335 490.629 99.0335C492.235 99.0335 493.126 99.7895 493.396 101.18L492.33 101.423C492.114 100.545 491.655 99.992 490.602 99.992C489.373 99.992 488.725 100.788 488.725 102.354C488.725 103.772 489.292 104.69 490.629 104.69C491.668 104.69 492.181 104.015 492.37 103.272L493.423 103.596C493.14 104.906 492.154 105.662 490.642 105.662C488.644 105.662 487.537 104.474 487.537 102.395ZM496.082 105.5V96.455H497.243V101.814H498.471L500.294 99.1955H501.549V99.4655L499.322 102.287L501.779 105.23V105.5H500.537L498.525 102.827H497.243V105.5H496.082ZM511.228 105.5C511.214 105.27 511.214 105.027 511.214 104.784C511.214 102.989 511.916 102.3 513.536 101.706C515.359 101.085 515.831 100.559 515.831 99.614C515.831 98.7905 515.413 98.21 514.414 98.21C513.293 98.21 512.807 98.9525 512.632 100.086L511.484 99.884C511.754 98.3045 512.645 97.2515 514.4 97.2515C516.088 97.2515 517.019 98.1155 517.019 99.695C517.019 101.247 515.804 101.936 514.252 102.449C512.618 103.016 512.159 103.448 512.119 104.703C512.915 104.582 514.184 104.487 515.048 104.487H517.1V105.5H511.228Z" fill="#212525"/>
<mask id="path-13-inside-4_440_4170" fill="white">
<path d="M562 81H663V121H562V81Z"/>
</mask>
<path d="M562 81H663V121H562V81Z" fill="#212525" fill-opacity="0.3"/>
<path d="M562 81V80.1562H561.156V81H562ZM663 81H663.844V80.1562H663V81ZM663 121V121.84H663.844V121H663ZM562 121H561.156V121.84H562V121ZM562 81.8438H663V80.1562H562V81.8438ZM662.156 81V121H663.844V81H662.156ZM663 120.16H562V121.84H663V120.16ZM562.844 121V81H561.156V121H562.844Z" fill="#212525" mask="url(#path-13-inside-4_440_4170)"/>
<path d="M585.995 105.5V97.4H589.019C590.747 97.4 591.624 98.102 591.624 99.452C591.624 100.518 590.882 101.126 589.788 101.315V101.49C591.287 101.598 591.948 102.111 591.948 103.259C591.948 104.622 591.084 105.5 589.329 105.5H585.995ZM587.223 104.595H589.316C590.288 104.595 590.747 104.082 590.747 103.218C590.747 102.422 590.45 101.895 589.302 101.895H587.223V104.595ZM587.223 100.991H589.167C589.937 100.991 590.463 100.505 590.463 99.6275C590.463 98.777 590.018 98.3045 589.086 98.3045H587.223V100.991ZM593.838 105.5V104.568H596.227V97.3865H593.959V96.455H597.388V104.568H599.575V105.5H593.838ZM601.546 102.327C601.546 100.383 602.734 99.0335 604.61 99.0335C606.473 99.0335 607.661 100.383 607.661 102.327C607.661 104.258 606.568 105.662 604.61 105.662C602.639 105.662 601.546 104.258 601.546 102.327ZM602.72 102.314C602.72 103.664 603.274 104.703 604.597 104.703C605.92 104.703 606.487 103.664 606.487 102.314C606.487 100.964 605.879 99.992 604.61 99.992C603.328 99.992 602.72 100.964 602.72 102.314ZM609.537 102.395C609.537 100.289 610.698 99.0335 612.629 99.0335C614.235 99.0335 615.126 99.7895 615.396 101.18L614.33 101.423C614.114 100.545 613.655 99.992 612.602 99.992C611.373 99.992 610.725 100.788 610.725 102.354C610.725 103.772 611.292 104.69 612.629 104.69C613.668 104.69 614.181 104.015 614.37 103.272L615.423 103.596C615.14 104.906 614.154 105.662 612.642 105.662C610.644 105.662 609.537 104.474 609.537 102.395ZM618.082 105.5V96.455H619.243V101.814H620.471L622.294 99.1955H623.549V99.4655L621.322 102.287L623.779 105.23V105.5H622.537L620.525 102.827H619.243V105.5H618.082ZM633.187 103.205L634.362 102.989C634.578 103.934 635.212 104.717 636.346 104.717C637.426 104.717 637.966 104.096 637.966 103.245C637.966 102.381 637.521 101.868 636.441 101.868H635.185V101.018H636.414C637.156 101.018 637.696 100.626 637.696 99.6275C637.696 98.7365 637.21 98.1965 636.333 98.1965C635.347 98.1965 634.861 98.885 634.659 99.8165L633.538 99.6815C633.781 98.3045 634.645 97.265 636.319 97.265C637.953 97.265 638.857 98.0345 638.857 99.4115C638.857 100.491 638.236 101.072 637.116 101.301V101.585C638.682 101.693 639.168 102.219 639.168 103.367C639.168 104.663 638.182 105.635 636.346 105.635C634.618 105.635 633.471 104.717 633.187 103.205Z" fill="#212525"/>
<mask id="path-16-inside-5_440_4170" fill="white">
<path d="M196 144H297V184H196V144Z"/>
</mask>
<path d="M196 144H297V184H196V144Z" fill="#212525" fill-opacity="0.3"/>
<path d="M196 144V143.156H195.156V144H196ZM297 144H297.844V143.156H297V144ZM297 184V184.84H297.844V184H297ZM196 184H195.156V184.84H196V184ZM196 144.844H297V143.156H196V144.844ZM296.156 144V184H297.844V144H296.156ZM297 183.16H196V184.84H297V183.16ZM196.844 184V144H195.156V184H196.844Z" fill="#212525" mask="url(#path-16-inside-5_440_4170)"/>
<path d="M219.995 168.5V160.4H223.019C224.747 160.4 225.624 161.102 225.624 162.452C225.624 163.518 224.882 164.126 223.788 164.315V164.49C225.287 164.598 225.948 165.111 225.948 166.259C225.948 167.622 225.084 168.5 223.329 168.5H219.995ZM221.223 167.595H223.316C224.288 167.595 224.747 167.082 224.747 166.218C224.747 165.422 224.45 164.895 223.302 164.895H221.223V167.595ZM221.223 163.991H223.167C223.937 163.991 224.463 163.505 224.463 162.627C224.463 161.777 224.018 161.304 223.086 161.304H221.223V163.991ZM227.838 168.5V167.568H230.227V160.386H227.959V159.455H231.388V167.568H233.575V168.5H227.838ZM235.546 165.327C235.546 163.383 236.734 162.033 238.61 162.033C240.473 162.033 241.661 163.383 241.661 165.327C241.661 167.258 240.568 168.662 238.61 168.662C236.639 168.662 235.546 167.258 235.546 165.327ZM236.72 165.314C236.72 166.664 237.274 167.703 238.597 167.703C239.92 167.703 240.487 166.664 240.487 165.314C240.487 163.964 239.879 162.992 238.61 162.992C237.328 162.992 236.72 163.964 236.72 165.314ZM243.537 165.395C243.537 163.289 244.698 162.033 246.629 162.033C248.235 162.033 249.126 162.789 249.396 164.18L248.33 164.423C248.114 163.545 247.655 162.992 246.602 162.992C245.373 162.992 244.725 163.788 244.725 165.354C244.725 166.772 245.292 167.69 246.629 167.69C247.668 167.69 248.181 167.015 248.37 166.272L249.423 166.596C249.14 167.906 248.154 168.662 246.642 168.662C244.644 168.662 243.537 167.474 243.537 165.395ZM252.082 168.5V159.455H253.243V164.814H254.471L256.294 162.195H257.549V162.465L255.322 165.287L257.779 168.23V168.5H256.537L254.525 165.827H253.243V168.5H252.082ZM266.877 166.218V165.449L270.697 160.4H272.196V165.287H273.505V166.218H272.196V168.5H271.008V166.218H266.877ZM271.008 165.287V161.358L270.859 161.304L267.849 165.314L267.984 165.543C268.861 165.381 269.955 165.287 270.711 165.287H271.008Z" fill="#212525"/>
<mask id="path-19-inside-6_440_4170" fill="white">
<path d="M318 144H419V184H318V144Z"/>
</mask>
<path d="M318 144H419V184H318V144Z" fill="#212525" fill-opacity="0.3"/>
<path d="M318 144V143.156H317.156V144H318ZM419 144H419.844V143.156H419V144ZM419 184V184.84H419.844V184H419ZM318 184H317.156V184.84H318V184ZM318 144.844H419V143.156H318V144.844ZM418.156 144V184H419.844V144H418.156ZM419 183.16H318V184.84H419V183.16ZM318.844 184V144H317.156V184H318.844Z" fill="#212525" mask="url(#path-19-inside-6_440_4170)"/>
<path d="M341.995 168.5V160.4H345.019C346.747 160.4 347.624 161.102 347.624 162.452C347.624 163.518 346.882 164.126 345.788 164.315V164.49C347.287 164.598 347.948 165.111 347.948 166.259C347.948 167.622 347.084 168.5 345.329 168.5H341.995ZM343.223 167.595H345.316C346.288 167.595 346.747 167.082 346.747 166.218C346.747 165.422 346.45 164.895 345.302 164.895H343.223V167.595ZM343.223 163.991H345.167C345.937 163.991 346.463 163.505 346.463 162.627C346.463 161.777 346.018 161.304 345.086 161.304H343.223V163.991ZM349.838 168.5V167.568H352.227V160.386H349.959V159.455H353.388V167.568H355.575V168.5H349.838ZM357.546 165.327C357.546 163.383 358.734 162.033 360.61 162.033C362.473 162.033 363.661 163.383 363.661 165.327C363.661 167.258 362.568 168.662 360.61 168.662C358.639 168.662 357.546 167.258 357.546 165.327ZM358.72 165.314C358.72 166.664 359.274 167.703 360.597 167.703C361.92 167.703 362.487 166.664 362.487 165.314C362.487 163.964 361.879 162.992 360.61 162.992C359.328 162.992 358.72 163.964 358.72 165.314ZM365.537 165.395C365.537 163.289 366.698 162.033 368.629 162.033C370.235 162.033 371.126 162.789 371.396 164.18L370.33 164.423C370.114 163.545 369.655 162.992 368.602 162.992C367.373 162.992 366.725 163.788 366.725 165.354C366.725 166.772 367.292 167.69 368.629 167.69C369.668 167.69 370.181 167.015 370.37 166.272L371.423 166.596C371.14 167.906 370.154 168.662 368.642 168.662C366.644 168.662 365.537 167.474 365.537 165.395ZM374.082 168.5V159.455H375.243V164.814H376.471L378.294 162.195H379.549V162.465L377.322 165.287L379.779 168.23V168.5H378.537L376.525 165.827H375.243V168.5H374.082ZM389.174 166.704L390.281 166.272C390.591 167.055 391.185 167.717 392.238 167.717C393.426 167.717 393.872 166.974 393.872 166.097C393.872 165.125 393.372 164.504 392.238 164.504C391.523 164.504 390.888 164.747 390.497 165.031L389.633 164.666V160.4H394.655V161.534C392.954 161.534 391.523 161.399 390.632 161.264V164.382C391.077 163.977 391.712 163.653 392.67 163.653C394.223 163.653 395.046 164.598 395.046 166.083C395.046 167.744 394.047 168.635 392.211 168.635C390.632 168.635 389.646 167.879 389.174 166.704Z" fill="#212525"/>
<mask id="path-22-inside-7_440_4170" fill="white">
<path d="M440 144H541V184H440V144Z"/>
</mask>
<path d="M440 144H541V184H440V144Z" fill="#212525" fill-opacity="0.3"/>
<path d="M440 144V143.156H439.156V144H440ZM541 144H541.844V143.156H541V144ZM541 184V184.84H541.844V184H541ZM440 184H439.156V184.84H440V184ZM440 144.844H541V143.156H440V144.844ZM540.156 144V184H541.844V144H540.156ZM541 183.16H440V184.84H541V183.16ZM440.844 184V144H439.156V184H440.844Z" fill="#212525" mask="url(#path-22-inside-7_440_4170)"/>
<path d="M463.995 168.5V160.4H467.019C468.747 160.4 469.624 161.102 469.624 162.452C469.624 163.518 468.882 164.126 467.788 164.315V164.49C469.287 164.598 469.948 165.111 469.948 166.259C469.948 167.622 469.084 168.5 467.329 168.5H463.995ZM465.223 167.595H467.316C468.288 167.595 468.747 167.082 468.747 166.218C468.747 165.422 468.45 164.895 467.302 164.895H465.223V167.595ZM465.223 163.991H467.167C467.937 163.991 468.463 163.505 468.463 162.627C468.463 161.777 468.018 161.304 467.086 161.304H465.223V163.991ZM471.838 168.5V167.568H474.227V160.386H471.959V159.455H475.388V167.568H477.575V168.5H471.838ZM479.546 165.327C479.546 163.383 480.734 162.033 482.61 162.033C484.473 162.033 485.661 163.383 485.661 165.327C485.661 167.258 484.568 168.662 482.61 168.662C480.639 168.662 479.546 167.258 479.546 165.327ZM480.72 165.314C480.72 166.664 481.274 167.703 482.597 167.703C483.92 167.703 484.487 166.664 484.487 165.314C484.487 163.964 483.879 162.992 482.61 162.992C481.328 162.992 480.72 163.964 480.72 165.314ZM487.537 165.395C487.537 163.289 488.698 162.033 490.629 162.033C492.235 162.033 493.126 162.789 493.396 164.18L492.33 164.423C492.114 163.545 491.655 162.992 490.602 162.992C489.373 162.992 488.725 163.788 488.725 165.354C488.725 166.772 489.292 167.69 490.629 167.69C491.668 167.69 492.181 167.015 492.37 166.272L493.423 166.596C493.14 167.906 492.154 168.662 490.642 168.662C488.644 168.662 487.537 167.474 487.537 165.395ZM496.082 168.5V159.455H497.243V164.814H498.471L500.294 162.195H501.549V162.465L499.322 165.287L501.779 168.23V168.5H500.537L498.525 165.827H497.243V168.5H496.082ZM511.214 164.585C511.214 162.411 512.119 160.265 514.319 160.265C515.953 160.265 516.641 161.223 516.871 162.411L515.71 162.587C515.561 161.763 515.116 161.223 514.306 161.223C512.902 161.223 512.335 162.627 512.335 164.895C512.335 164.949 512.335 164.99 512.335 165.044L512.564 165.084C512.915 164.153 513.644 163.613 514.832 163.613C516.115 163.613 517.114 164.45 517.114 165.975C517.114 167.568 516.142 168.635 514.252 168.635C512.443 168.635 511.214 167.231 511.214 164.585ZM512.524 166.029C512.524 166.947 513.145 167.69 514.306 167.69C515.48 167.69 515.912 166.866 515.912 165.975C515.912 165.071 515.413 164.382 514.387 164.382C513.131 164.382 512.524 165.165 512.524 166.029Z" fill="#212525"/>
<mask id="path-25-inside-8_440_4170" fill="white">
<path d="M562 144H663V184H562V144Z"/>
</mask>
<path d="M562 144H663V184H562V144Z" fill="#212525" fill-opacity="0.3"/>
<path d="M562 144V143.156H561.156V144H562ZM663 144H663.844V143.156H663V144ZM663 184V184.84H663.844V184H663ZM562 184H561.156V184.84H562V184ZM562 144.844H663V143.156H562V144.844ZM662.156 144V184H663.844V144H662.156ZM663 183.16H562V184.84H663V183.16ZM562.844 184V144H561.156V184H562.844Z" fill="#212525" mask="url(#path-25-inside-8_440_4170)"/>
<path d="M585.995 168.5V160.4H589.019C590.747 160.4 591.624 161.102 591.624 162.452C591.624 163.518 590.882 164.126 589.788 164.315V164.49C591.287 164.598 591.948 165.111 591.948 166.259C591.948 167.622 591.084 168.5 589.329 168.5H585.995ZM587.223 167.595H589.316C590.288 167.595 590.747 167.082 590.747 166.218C590.747 165.422 590.45 164.895 589.302 164.895H587.223V167.595ZM587.223 163.991H589.167C589.937 163.991 590.463 163.505 590.463 162.627C590.463 161.777 590.018 161.304 589.086 161.304H587.223V163.991ZM593.838 168.5V167.568H596.227V160.386H593.959V159.455H597.388V167.568H599.575V168.5H593.838ZM601.546 165.327C601.546 163.383 602.734 162.033 604.61 162.033C606.473 162.033 607.661 163.383 607.661 165.327C607.661 167.258 606.568 168.662 604.61 168.662C602.639 168.662 601.546 167.258 601.546 165.327ZM602.72 165.314C602.72 166.664 603.274 167.703 604.597 167.703C605.92 167.703 606.487 166.664 606.487 165.314C606.487 163.964 605.879 162.992 604.61 162.992C603.328 162.992 602.72 163.964 602.72 165.314ZM609.537 165.395C609.537 163.289 610.698 162.033 612.629 162.033C614.235 162.033 615.126 162.789 615.396 164.18L614.33 164.423C614.114 163.545 613.655 162.992 612.602 162.992C611.373 162.992 610.725 163.788 610.725 165.354C610.725 166.772 611.292 167.69 612.629 167.69C613.668 167.69 614.181 167.015 614.37 166.272L615.423 166.596C615.14 167.906 614.154 168.662 612.642 168.662C610.644 168.662 609.537 167.474 609.537 165.395ZM618.082 168.5V159.455H619.243V164.814H620.471L622.294 162.195H623.549V162.465L621.322 165.287L623.779 168.23V168.5H622.537L620.525 165.827H619.243V168.5H618.082ZM632.85 161.493V160.4H639.573V161.507C637.575 163.505 636.589 165.908 636.4 168.5H635.05C635.253 165.813 636.67 163.221 638.803 161.264C637.804 161.412 636.279 161.493 635.145 161.493H632.85Z" fill="#212525"/>
<rect x="50" y="305" width="265" height="126" fill="#212525" fill-opacity="0.1"/>
<rect x="50.5" y="305.5" width="264" height="125" stroke="#212525" stroke-opacity="0.5" stroke-dasharray="10 10"/>
<path d="M74.064 342.176C72.384 342.176 70.96 340.928 70.96 337.328C70.96 334.048 72.192 332.208 74.672 332.208C76.704 332.208 77.664 333.28 78 335.312L76.624 335.616C76.352 334.128 75.856 333.472 74.672 333.472C73.024 333.472 72.448 334.832 72.448 337.328C72.448 339.792 73.088 340.96 74.656 340.96C76.336 340.96 76.768 339.664 76.8 338.256H74.752V337.104H78.16V342H76.864V339.936H76.624C76.208 341.152 75.456 342.176 74.064 342.176ZM81.0074 342V332.4H84.4954C86.7354 332.4 87.8874 333.648 87.8874 335.616C87.8874 337.392 86.7034 338.784 84.5594 338.784H82.4794V342H81.0074ZM82.4794 337.632H84.3834C85.8874 337.632 86.4794 336.848 86.4794 335.632C86.4794 334.4 85.9674 333.6 84.3674 333.6H82.4794V337.632ZM93.4068 342.176C91.1828 342.176 90.0308 340.896 90.0308 338.432V332.4H91.5028V338.32C91.5028 339.888 91.9028 340.96 93.4068 340.96C94.8628 340.96 95.2948 340.048 95.2948 338.4V332.4H96.7668V338.432C96.7668 340.896 95.5988 342.176 93.4068 342.176ZM109.182 342L108.03 334.528H109.406L109.726 337.392C109.87 338.608 110.014 339.68 110.142 340.848H110.414C110.526 340 110.622 339.12 110.782 338.336L111.31 335.808H113.006L113.47 338.224C113.614 338.976 113.758 339.92 113.902 340.848H114.158C114.27 339.68 114.414 338.592 114.542 337.392L114.878 334.528H116.206L115.022 342H113.086L112.606 339.376C112.446 338.56 112.35 337.744 112.254 336.944H111.95C111.838 337.76 111.726 338.576 111.582 339.36L111.134 342H109.182ZM118.077 342V340.896H120.957V335.632H118.221V334.528H122.349V340.896H124.877V342H118.077ZM120.493 332.784V331.472H122.413V332.784H120.493ZM129.052 339.232V335.632H127.132V334.528H129.052V332.4H130.444V334.528H134.172V335.632H130.444V339.024C130.444 340.32 130.94 340.992 132.22 340.992C132.764 340.992 133.34 340.864 134.076 340.544L134.348 341.632C133.516 342 132.78 342.192 131.916 342.192C129.916 342.192 129.052 340.944 129.052 339.232ZM137.132 342V331.28H138.524V336.384H138.7C139.196 335.264 140.044 334.336 141.324 334.336C142.572 334.336 143.34 335.248 143.34 336.912V342H141.948V337.232C141.948 336.192 141.532 335.6 140.684 335.6C139.388 335.6 138.524 336.592 138.524 337.888V342H137.132ZM155.402 342C155.386 341.728 155.386 341.44 155.386 341.152C155.386 339.024 156.218 338.208 158.138 337.504C160.298 336.768 160.858 336.144 160.858 335.024C160.858 334.048 160.362 333.36 159.178 333.36C157.85 333.36 157.274 334.24 157.066 335.584L155.706 335.344C156.026 333.472 157.082 332.224 159.162 332.224C161.162 332.224 162.266 333.248 162.266 335.12C162.266 336.96 160.826 337.776 158.986 338.384C157.05 339.056 156.506 339.568 156.458 341.056C157.402 340.912 158.906 340.8 159.93 340.8H162.362V342H155.402ZM173.849 339.28L175.257 338.96C175.481 340.208 176.329 341.056 177.785 341.056C179.193 341.056 179.801 340.352 179.801 339.52C179.801 338.416 178.937 338.08 177.481 337.776C175.609 337.408 174.313 336.768 174.313 334.864C174.313 333.344 175.481 332.208 177.705 332.208C179.785 332.208 180.761 333.408 181.033 334.768L179.609 335.024C179.385 334.096 178.841 333.328 177.625 333.328C176.409 333.328 175.753 333.92 175.753 334.752C175.753 335.92 176.697 336.24 178.057 336.576C180.185 337.04 181.289 337.696 181.289 339.408C181.289 340.944 180.233 342.192 177.769 342.192C175.337 342.192 174.089 340.944 173.849 339.28ZM183.353 342V332.4H185.609L186.505 336.752C186.649 337.456 186.761 338.48 186.921 339.568H187.177C187.369 338.176 187.529 337.088 187.769 335.792L188.377 332.4H190.633V342H189.337V337.44C189.337 336.112 189.433 334.608 189.497 333.584H189.145C188.985 334.624 188.841 335.808 188.633 336.816L187.769 340.816H186.249L185.273 336.432C185.113 335.696 184.921 334.544 184.761 333.584H184.473C184.521 334.576 184.633 335.968 184.633 337.024V342H183.353ZM196.472 342.192C194.312 342.192 193.256 341.264 192.936 339.888L194.216 339.632C194.472 340.544 195.144 341.168 196.488 341.168C197.608 341.168 198.328 340.816 198.328 340.048C198.328 339.216 197.416 338.96 196.232 338.768C194.616 338.512 193.336 338.048 193.336 336.544C193.336 335.264 194.344 334.336 196.392 334.336C198.424 334.336 199.128 335.2 199.448 336.368L198.184 336.608C197.944 335.648 197.352 335.344 196.344 335.344C195.224 335.344 194.68 335.744 194.68 336.432C194.68 337.264 195.544 337.488 196.664 337.68C198.472 337.968 199.72 338.384 199.72 339.968C199.72 341.232 198.712 342.192 196.472 342.192Z" fill="#212525"/>
<mask id="path-31-inside-9_440_4170" fill="white">
<path d="M70 371H171V411H70V371Z"/>
</mask>
<path d="M70 371H171V411H70V371Z" fill="#212525" fill-opacity="0.3"/>
<path d="M70 371V370.156H69.1562V371H70ZM171 371H171.844V370.156H171V371ZM171 411V411.84H171.844V411H171ZM70 411H69.1562V411.84H70V411ZM70 371.844H171V370.156H70V371.844ZM170.156 371V411H171.844V371H170.156ZM171 410.16H70V411.84H171V410.16ZM70.8438 411V371H69.1562V411H70.8438Z" fill="#212525" mask="url(#path-31-inside-9_440_4170)"/>
<path d="M105.462 393.205L106.65 392.935C106.839 393.988 107.555 394.703 108.783 394.703C109.971 394.703 110.484 394.109 110.484 393.407C110.484 392.476 109.755 392.192 108.527 391.936C106.947 391.625 105.854 391.085 105.854 389.479C105.854 388.196 106.839 387.238 108.716 387.238C110.471 387.238 111.294 388.25 111.524 389.398L110.322 389.614C110.133 388.831 109.674 388.183 108.648 388.183C107.622 388.183 107.069 388.683 107.069 389.384C107.069 390.37 107.865 390.64 109.013 390.923C110.808 391.315 111.74 391.868 111.74 393.313C111.74 394.609 110.849 395.662 108.77 395.662C106.718 395.662 105.665 394.609 105.462 393.205ZM113.481 395.5V387.4H115.384L116.14 391.072C116.262 391.666 116.356 392.53 116.491 393.448H116.707C116.869 392.273 117.004 391.355 117.207 390.262L117.72 387.4H119.623V395.5H118.53V391.652C118.53 390.532 118.611 389.263 118.665 388.399H118.368C118.233 389.276 118.111 390.275 117.936 391.126L117.207 394.501H115.924L115.101 390.802C114.966 390.181 114.804 389.209 114.669 388.399H114.426C114.466 389.236 114.561 390.41 114.561 391.301V395.5H113.481ZM132.352 395.662C130.381 395.662 129.301 393.893 129.301 391.436C129.301 388.979 130.395 387.238 132.352 387.238C134.296 387.238 135.39 388.979 135.39 391.436C135.39 393.893 134.31 395.662 132.352 395.662ZM132.352 394.649C133.648 394.649 134.229 393.353 134.229 391.436C134.229 389.533 133.635 388.25 132.352 388.25C131.07 388.25 130.462 389.533 130.462 391.436C130.462 393.353 131.056 394.649 132.352 394.649ZM131.799 392.044V390.775H132.892V392.044H131.799Z" fill="#212525"/>
<mask id="path-34-inside-10_440_4170" fill="white">
<path d="M192 371H293V411H192V371Z"/>
</mask>
<path d="M192 371H293V411H192V371Z" fill="#212525" fill-opacity="0.3"/>
<path d="M192 371V370.156H191.156V371H192ZM293 371H293.844V370.156H293V371ZM293 411V411.84H293.844V411H293ZM192 411H191.156V411.84H192V411ZM192 371.844H293V370.156H192V371.844ZM292.156 371V411H293.844V371H292.156ZM293 410.16H192V411.84H293V410.16ZM192.844 411V371H191.156V411H192.844Z" fill="#212525" mask="url(#path-34-inside-10_440_4170)"/>
<path d="M227.462 393.205L228.65 392.935C228.839 393.988 229.555 394.703 230.783 394.703C231.971 394.703 232.484 394.109 232.484 393.407C232.484 392.476 231.755 392.192 230.527 391.936C228.947 391.625 227.854 391.085 227.854 389.479C227.854 388.196 228.839 387.238 230.716 387.238C232.471 387.238 233.294 388.25 233.524 389.398L232.322 389.614C232.133 388.831 231.674 388.183 230.648 388.183C229.622 388.183 229.069 388.683 229.069 389.384C229.069 390.37 229.865 390.64 231.013 390.923C232.808 391.315 233.74 391.868 233.74 393.313C233.74 394.609 232.849 395.662 230.77 395.662C228.718 395.662 227.665 394.609 227.462 393.205ZM235.481 395.5V387.4H237.384L238.14 391.072C238.262 391.666 238.356 392.53 238.491 393.448H238.707C238.869 392.273 239.004 391.355 239.207 390.262L239.72 387.4H241.623V395.5H240.53V391.652C240.53 390.532 240.611 389.263 240.665 388.399H240.368C240.233 389.276 240.111 390.275 239.936 391.126L239.207 394.501H237.924L237.101 390.802C236.966 390.181 236.804 389.209 236.669 388.399H236.426C236.466 389.236 236.561 390.41 236.561 391.301V395.5H235.481ZM251.45 388.412L254.582 387.4H255.257V394.487H257.214V395.5H251.625V394.487H254.069V388.385C253.407 388.777 252.651 389.141 251.841 389.425L251.45 388.412Z" fill="#212525"/>
<rect x="50" y="447" width="265" height="269" fill="#212525" fill-opacity="0.1"/>
<rect x="50.5" y="447.5" width="264" height="268" stroke="#212525" stroke-opacity="0.5" stroke-dasharray="10 10"/>
<mask id="path-39-inside-11_440_4170" fill="white">
<path d="M70 467H171V507H70V467Z"/>
</mask>
<path d="M70 467H171V507H70V467Z" fill="#212525" fill-opacity="0.3"/>
<path d="M70 467V466.156H69.1562V467H70ZM171 467H171.844V466.156H171V467ZM171 507V507.84H171.844V507H171ZM70 507H69.1562V507.84H70V507ZM70 467.844H171V466.156H70V467.844ZM170.156 467V507H171.844V467H170.156ZM171 506.16H70V507.84H171V506.16ZM70.8438 507V467H69.1562V507H70.8438Z" fill="#212525" mask="url(#path-39-inside-11_440_4170)"/>
<path d="M93.9946 491.5V483.4H97.0186C98.7466 483.4 99.6241 484.102 99.6241 485.452C99.6241 486.518 98.8816 487.126 97.7881 487.315V487.49C99.2866 487.598 99.9481 488.111 99.9481 489.259C99.9481 490.622 99.0841 491.5 97.3291 491.5H93.9946ZM95.2231 490.595H97.3156C98.2876 490.595 98.7466 490.082 98.7466 489.218C98.7466 488.422 98.4496 487.895 97.3021 487.895H95.2231V490.595ZM95.2231 486.991H97.1671C97.9366 486.991 98.4631 486.505 98.4631 485.627C98.4631 484.777 98.0176 484.304 97.0861 484.304H95.2231V486.991ZM101.838 491.5V490.568H104.227V483.386H101.959V482.455H105.388V490.568H107.575V491.5H101.838ZM109.546 488.327C109.546 486.383 110.734 485.033 112.61 485.033C114.473 485.033 115.661 486.383 115.661 488.327C115.661 490.258 114.568 491.662 112.61 491.662C110.639 491.662 109.546 490.258 109.546 488.327ZM110.72 488.314C110.72 489.664 111.274 490.703 112.597 490.703C113.92 490.703 114.487 489.664 114.487 488.314C114.487 486.964 113.879 485.992 112.61 485.992C111.328 485.992 110.72 486.964 110.72 488.314ZM117.537 488.395C117.537 486.289 118.698 485.033 120.629 485.033C122.235 485.033 123.126 485.789 123.396 487.18L122.33 487.423C122.114 486.545 121.655 485.992 120.602 485.992C119.373 485.992 118.725 486.788 118.725 488.354C118.725 489.772 119.292 490.69 120.629 490.69C121.668 490.69 122.181 490.015 122.37 489.272L123.423 489.596C123.14 490.906 122.154 491.662 120.642 491.662C118.644 491.662 117.537 490.474 117.537 488.395ZM126.082 491.5V482.455H127.243V487.814H128.471L130.294 485.195H131.549V485.465L129.322 488.287L131.779 491.23V491.5H130.537L128.525 488.827H127.243V491.5H126.082ZM144.198 491.662C142.227 491.662 141.147 489.893 141.147 487.436C141.147 484.979 142.24 483.238 144.198 483.238C146.142 483.238 147.235 484.979 147.235 487.436C147.235 489.893 146.155 491.662 144.198 491.662ZM144.198 490.649C145.494 490.649 146.074 489.353 146.074 487.436C146.074 485.533 145.48 484.25 144.198 484.25C142.915 484.25 142.308 485.533 142.308 487.436C142.308 489.353 142.902 490.649 144.198 490.649ZM143.644 488.044V486.775H144.738V488.044H143.644Z" fill="#212525"/>
<mask id="path-42-inside-12_440_4170" fill="white">
<path d="M192 467H293V507H192V467Z"/>
</mask>
<path d="M192 467H293V507H192V467Z" fill="#212525" fill-opacity="0.3"/>
<path d="M192 467V466.156H191.156V467H192ZM293 467H293.844V466.156H293V467ZM293 507V507.84H293.844V507H293ZM192 507H191.156V507.84H192V507ZM192 467.844H293V466.156H192V467.844ZM292.156 467V507H293.844V467H292.156ZM293 506.16H192V507.84H293V506.16ZM192.844 507V467H191.156V507H192.844Z" fill="#212525" mask="url(#path-42-inside-12_440_4170)"/>
<path d="M215.995 491.5V483.4H219.019C220.747 483.4 221.624 484.102 221.624 485.452C221.624 486.518 220.882 487.126 219.788 487.315V487.49C221.287 487.598 221.948 488.111 221.948 489.259C221.948 490.622 221.084 491.5 219.329 491.5H215.995ZM217.223 490.595H219.316C220.288 490.595 220.747 490.082 220.747 489.218C220.747 488.422 220.45 487.895 219.302 487.895H217.223V490.595ZM217.223 486.991H219.167C219.937 486.991 220.463 486.505 220.463 485.627C220.463 484.777 220.018 484.304 219.086 484.304H217.223V486.991ZM223.838 491.5V490.568H226.227V483.386H223.959V482.455H227.388V490.568H229.575V491.5H223.838ZM231.546 488.327C231.546 486.383 232.734 485.033 234.61 485.033C236.473 485.033 237.661 486.383 237.661 488.327C237.661 490.258 236.568 491.662 234.61 491.662C232.639 491.662 231.546 490.258 231.546 488.327ZM232.72 488.314C232.72 489.664 233.274 490.703 234.597 490.703C235.92 490.703 236.487 489.664 236.487 488.314C236.487 486.964 235.879 485.992 234.61 485.992C233.328 485.992 232.72 486.964 232.72 488.314ZM239.537 488.395C239.537 486.289 240.698 485.033 242.629 485.033C244.235 485.033 245.126 485.789 245.396 487.18L244.33 487.423C244.114 486.545 243.655 485.992 242.602 485.992C241.373 485.992 240.725 486.788 240.725 488.354C240.725 489.772 241.292 490.69 242.629 490.69C243.668 490.69 244.181 490.015 244.37 489.272L245.423 489.596C245.14 490.906 244.154 491.662 242.642 491.662C240.644 491.662 239.537 490.474 239.537 488.395ZM248.082 491.5V482.455H249.243V487.814H250.471L252.294 485.195H253.549V485.465L251.322 488.287L253.779 491.23V491.5H252.537L250.525 488.827H249.243V491.5H248.082ZM263.295 484.412L266.427 483.4H267.102V490.487H269.06V491.5H263.471V490.487H265.914V484.385C265.253 484.777 264.497 485.141 263.687 485.425L263.295 484.412Z" fill="#212525"/>
<mask id="path-45-inside-13_440_4170" fill="white">
<path d="M70 530H171V570H70V530Z"/>
</mask>
<path d="M70 530H171V570H70V530Z" fill="#212525" fill-opacity="0.3"/>
<path d="M70 530V529.156H69.1562V530H70ZM171 530H171.844V529.156H171V530ZM171 570V570.84H171.844V570H171ZM70 570H69.1562V570.84H70V570ZM70 530.844H171V529.156H70V530.844ZM170.156 530V570H171.844V530H170.156ZM171 569.16H70V570.84H171V569.16ZM70.8438 570V530H69.1562V570H70.8438Z" fill="#212525" mask="url(#path-45-inside-13_440_4170)"/>
<path d="M93.9946 554.5V546.4H97.0186C98.7466 546.4 99.6241 547.102 99.6241 548.452C99.6241 549.518 98.8816 550.126 97.7881 550.315V550.49C99.2866 550.598 99.9481 551.111 99.9481 552.259C99.9481 553.622 99.0841 554.5 97.3291 554.5H93.9946ZM95.2231 553.595H97.3156C98.2876 553.595 98.7466 553.082 98.7466 552.218C98.7466 551.422 98.4496 550.895 97.3021 550.895H95.2231V553.595ZM95.2231 549.991H97.1671C97.9366 549.991 98.4631 549.505 98.4631 548.627C98.4631 547.777 98.0176 547.304 97.0861 547.304H95.2231V549.991ZM101.838 554.5V553.568H104.227V546.386H101.959V545.455H105.388V553.568H107.575V554.5H101.838ZM109.546 551.327C109.546 549.383 110.734 548.033 112.61 548.033C114.473 548.033 115.661 549.383 115.661 551.327C115.661 553.258 114.568 554.662 112.61 554.662C110.639 554.662 109.546 553.258 109.546 551.327ZM110.72 551.314C110.72 552.664 111.274 553.703 112.597 553.703C113.92 553.703 114.487 552.664 114.487 551.314C114.487 549.964 113.879 548.992 112.61 548.992C111.328 548.992 110.72 549.964 110.72 551.314ZM117.537 551.395C117.537 549.289 118.698 548.033 120.629 548.033C122.235 548.033 123.126 548.789 123.396 550.18L122.33 550.423C122.114 549.545 121.655 548.992 120.602 548.992C119.373 548.992 118.725 549.788 118.725 551.354C118.725 552.772 119.292 553.69 120.629 553.69C121.668 553.69 122.181 553.015 122.37 552.272L123.423 552.596C123.14 553.906 122.154 554.662 120.642 554.662C118.644 554.662 117.537 553.474 117.537 551.395ZM126.082 554.5V545.455H127.243V550.814H128.471L130.294 548.195H131.549V548.465L129.322 551.287L131.779 554.23V554.5H130.537L128.525 551.827H127.243V554.5H126.082ZM141.187 552.205L142.362 551.989C142.578 552.934 143.212 553.717 144.346 553.717C145.426 553.717 145.966 553.096 145.966 552.245C145.966 551.381 145.521 550.868 144.441 550.868H143.185V550.018H144.414C145.156 550.018 145.696 549.626 145.696 548.627C145.696 547.736 145.21 547.196 144.333 547.196C143.347 547.196 142.861 547.885 142.659 548.816L141.538 548.681C141.781 547.304 142.645 546.265 144.319 546.265C145.953 546.265 146.857 547.034 146.857 548.411C146.857 549.491 146.236 550.072 145.116 550.301V550.585C146.682 550.693 147.168 551.219 147.168 552.367C147.168 553.663 146.182 554.635 144.346 554.635C142.618 554.635 141.471 553.717 141.187 552.205Z" fill="#212525"/>
<mask id="path-48-inside-14_440_4170" fill="white">
<path d="M194 530H295V570H194V530Z"/>
</mask>
<path d="M194 530H295V570H194V530Z" fill="#212525" fill-opacity="0.3"/>
<path d="M194 530V529.156H193.156V530H194ZM295 530H295.844V529.156H295V530ZM295 570V570.84H295.844V570H295ZM194 570H193.156V570.84H194V570ZM194 530.844H295V529.156H194V530.844ZM294.156 530V570H295.844V530H294.156ZM295 569.16H194V570.84H295V569.16ZM194.844 570V530H193.156V570H194.844Z" fill="#212525" mask="url(#path-48-inside-14_440_4170)"/>
<path d="M217.995 554.5V546.4H221.019C222.747 546.4 223.624 547.102 223.624 548.452C223.624 549.518 222.882 550.126 221.788 550.315V550.49C223.287 550.598 223.948 551.111 223.948 552.259C223.948 553.622 223.084 554.5 221.329 554.5H217.995ZM219.223 553.595H221.316C222.288 553.595 222.747 553.082 222.747 552.218C222.747 551.422 222.45 550.895 221.302 550.895H219.223V553.595ZM219.223 549.991H221.167C221.937 549.991 222.463 549.505 222.463 548.627C222.463 547.777 222.018 547.304 221.086 547.304H219.223V549.991ZM225.838 554.5V553.568H228.227V546.386H225.959V545.455H229.388V553.568H231.575V554.5H225.838ZM233.546 551.327C233.546 549.383 234.734 548.033 236.61 548.033C238.473 548.033 239.661 549.383 239.661 551.327C239.661 553.258 238.568 554.662 236.61 554.662C234.639 554.662 233.546 553.258 233.546 551.327ZM234.72 551.314C234.72 552.664 235.274 553.703 236.597 553.703C237.92 553.703 238.487 552.664 238.487 551.314C238.487 549.964 237.879 548.992 236.61 548.992C235.328 548.992 234.72 549.964 234.72 551.314ZM241.537 551.395C241.537 549.289 242.698 548.033 244.629 548.033C246.235 548.033 247.126 548.789 247.396 550.18L246.33 550.423C246.114 549.545 245.655 548.992 244.602 548.992C243.373 548.992 242.725 549.788 242.725 551.354C242.725 552.772 243.292 553.69 244.629 553.69C245.668 553.69 246.181 553.015 246.37 552.272L247.423 552.596C247.14 553.906 246.154 554.662 244.642 554.662C242.644 554.662 241.537 553.474 241.537 551.395ZM250.082 554.5V545.455H251.243V550.814H252.471L254.294 548.195H255.549V548.465L253.322 551.287L255.779 554.23V554.5H254.537L252.525 551.827H251.243V554.5H250.082ZM265.228 554.5C265.214 554.27 265.214 554.027 265.214 553.784C265.214 551.989 265.916 551.3 267.536 550.706C269.359 550.085 269.831 549.559 269.831 548.614C269.831 547.79 269.413 547.21 268.414 547.21C267.293 547.21 266.807 547.952 266.632 549.086L265.484 548.884C265.754 547.304 266.645 546.251 268.4 546.251C270.088 546.251 271.019 547.115 271.019 548.695C271.019 550.247 269.804 550.936 268.252 551.449C266.618 552.016 266.159 552.448 266.119 553.703C266.915 553.582 268.184 553.487 269.048 553.487H271.1V554.5H265.228Z" fill="#212525"/>
<mask id="path-51-inside-15_440_4170" fill="white">
<path d="M70 593H171V633H70V593Z"/>
</mask>
<path d="M70 593H171V633H70V593Z" fill="#212525" fill-opacity="0.3"/>
<path d="M70 593V592.156H69.1562V593H70ZM171 593H171.844V592.156H171V593ZM171 633V633.84H171.844V633H171ZM70 633H69.1562V633.84H70V633ZM70 593.844H171V592.156H70V593.844ZM170.156 593V633H171.844V593H170.156ZM171 632.16H70V633.84H171V632.16ZM70.8438 633V593H69.1562V633H70.8438Z" fill="#212525" mask="url(#path-51-inside-15_440_4170)"/>
<path d="M93.9946 617.5V609.4H97.0186C98.7466 609.4 99.6241 610.102 99.6241 611.452C99.6241 612.518 98.8816 613.126 97.7881 613.315V613.49C99.2866 613.598 99.9481 614.111 99.9481 615.259C99.9481 616.622 99.0841 617.5 97.3291 617.5H93.9946ZM95.2231 616.595H97.3156C98.2876 616.595 98.7466 616.082 98.7466 615.218C98.7466 614.422 98.4496 613.895 97.3021 613.895H95.2231V616.595ZM95.2231 612.991H97.1671C97.9366 612.991 98.4631 612.505 98.4631 611.627C98.4631 610.777 98.0176 610.304 97.0861 610.304H95.2231V612.991ZM101.838 617.5V616.568H104.227V609.386H101.959V608.455H105.388V616.568H107.575V617.5H101.838ZM109.546 614.327C109.546 612.383 110.734 611.033 112.61 611.033C114.473 611.033 115.661 612.383 115.661 614.327C115.661 616.258 114.568 617.662 112.61 617.662C110.639 617.662 109.546 616.258 109.546 614.327ZM110.72 614.314C110.72 615.664 111.274 616.703 112.597 616.703C113.92 616.703 114.487 615.664 114.487 614.314C114.487 612.964 113.879 611.992 112.61 611.992C111.328 611.992 110.72 612.964 110.72 614.314ZM117.537 614.395C117.537 612.289 118.698 611.033 120.629 611.033C122.235 611.033 123.126 611.789 123.396 613.18L122.33 613.423C122.114 612.545 121.655 611.992 120.602 611.992C119.373 611.992 118.725 612.788 118.725 614.354C118.725 615.772 119.292 616.69 120.629 616.69C121.668 616.69 122.181 616.015 122.37 615.272L123.423 615.596C123.14 616.906 122.154 617.662 120.642 617.662C118.644 617.662 117.537 616.474 117.537 614.395ZM126.082 617.5V608.455H127.243V613.814H128.471L130.294 611.195H131.549V611.465L129.322 614.287L131.779 617.23V617.5H130.537L128.525 614.827H127.243V617.5H126.082ZM140.877 615.218V614.449L144.697 609.4H146.196V614.287H147.505V615.218H146.196V617.5H145.008V615.218H140.877ZM145.008 614.287V610.358L144.859 610.304L141.849 614.314L141.984 614.543C142.861 614.381 143.955 614.287 144.711 614.287H145.008Z" fill="#212525"/>
<mask id="path-54-inside-16_440_4170" fill="white">
<path d="M192 593H293V633H192V593Z"/>
</mask>
<path d="M192 593H293V633H192V593Z" fill="#212525" fill-opacity="0.3"/>
<path d="M192 593V592.156H191.156V593H192ZM293 593H293.844V592.156H293V593ZM293 633V633.84H293.844V633H293ZM192 633H191.156V633.84H192V633ZM192 593.844H293V592.156H192V593.844ZM292.156 593V633H293.844V593H292.156ZM293 632.16H192V633.84H293V632.16ZM192.844 633V593H191.156V633H192.844Z" fill="#212525" mask="url(#path-54-inside-16_440_4170)"/>
<path d="M215.995 617.5V609.4H219.019C220.747 609.4 221.624 610.102 221.624 611.452C221.624 612.518 220.882 613.126 219.788 613.315V613.49C221.287 613.598 221.948 614.111 221.948 615.259C221.948 616.622 221.084 617.5 219.329 617.5H215.995ZM217.223 616.595H219.316C220.288 616.595 220.747 616.082 220.747 615.218C220.747 614.422 220.45 613.895 219.302 613.895H217.223V616.595ZM217.223 612.991H219.167C219.937 612.991 220.463 612.505 220.463 611.627C220.463 610.777 220.018 610.304 219.086 610.304H217.223V612.991ZM223.838 617.5V616.568H226.227V609.386H223.959V608.455H227.388V616.568H229.575V617.5H223.838ZM231.546 614.327C231.546 612.383 232.734 611.033 234.61 611.033C236.473 611.033 237.661 612.383 237.661 614.327C237.661 616.258 236.568 617.662 234.61 617.662C232.639 617.662 231.546 616.258 231.546 614.327ZM232.72 614.314C232.72 615.664 233.274 616.703 234.597 616.703C235.92 616.703 236.487 615.664 236.487 614.314C236.487 612.964 235.879 611.992 234.61 611.992C233.328 611.992 232.72 612.964 232.72 614.314ZM239.537 614.395C239.537 612.289 240.698 611.033 242.629 611.033C244.235 611.033 245.126 611.789 245.396 613.18L244.33 613.423C244.114 612.545 243.655 611.992 242.602 611.992C241.373 611.992 240.725 612.788 240.725 614.354C240.725 615.772 241.292 616.69 242.629 616.69C243.668 616.69 244.181 616.015 244.37 615.272L245.423 615.596C245.14 616.906 244.154 617.662 242.642 617.662C240.644 617.662 239.537 616.474 239.537 614.395ZM248.082 617.5V608.455H249.243V613.814H250.471L252.294 611.195H253.549V611.465L251.322 614.287L253.779 617.23V617.5H252.537L250.525 614.827H249.243V617.5H248.082ZM263.174 615.704L264.281 615.272C264.591 616.055 265.185 616.717 266.238 616.717C267.426 616.717 267.872 615.974 267.872 615.097C267.872 614.125 267.372 613.504 266.238 613.504C265.523 613.504 264.888 613.747 264.497 614.031L263.633 613.666V609.4H268.655V610.534C266.954 610.534 265.523 610.399 264.632 610.264V613.382C265.077 612.977 265.712 612.653 266.67 612.653C268.223 612.653 269.046 613.598 269.046 615.083C269.046 616.744 268.047 617.635 266.211 617.635C264.632 617.635 263.646 616.879 263.174 615.704Z" fill="#212525"/>
<mask id="path-57-inside-17_440_4170" fill="white">
<path d="M70 656H171V696H70V656Z"/>
</mask>
<path d="M70 656H171V696H70V656Z" fill="#212525" fill-opacity="0.3"/>
<path d="M70 656V655.156H69.1562V656H70ZM171 656H171.844V655.156H171V656ZM171 696V696.84H171.844V696H171ZM70 696H69.1562V696.84H70V696ZM70 656.844H171V655.156H70V656.844ZM170.156 656V696H171.844V656H170.156ZM171 695.16H70V696.84H171V695.16ZM70.8438 696V656H69.1562V696H70.8438Z" fill="#212525" mask="url(#path-57-inside-17_440_4170)"/>
<path d="M93.9946 680.5V672.4H97.0186C98.7466 672.4 99.6241 673.102 99.6241 674.452C99.6241 675.518 98.8816 676.126 97.7881 676.315V676.49C99.2866 676.598 99.9481 677.111 99.9481 678.259C99.9481 679.622 99.0841 680.5 97.3291 680.5H93.9946ZM95.2231 679.595H97.3156C98.2876 679.595 98.7466 679.082 98.7466 678.218C98.7466 677.422 98.4496 676.895 97.3021 676.895H95.2231V679.595ZM95.2231 675.991H97.1671C97.9366 675.991 98.4631 675.505 98.4631 674.627C98.4631 673.777 98.0176 673.304 97.0861 673.304H95.2231V675.991ZM101.838 680.5V679.568H104.227V672.386H101.959V671.455H105.388V679.568H107.575V680.5H101.838ZM109.546 677.327C109.546 675.383 110.734 674.033 112.61 674.033C114.473 674.033 115.661 675.383 115.661 677.327C115.661 679.258 114.568 680.662 112.61 680.662C110.639 680.662 109.546 679.258 109.546 677.327ZM110.72 677.314C110.72 678.664 111.274 679.703 112.597 679.703C113.92 679.703 114.487 678.664 114.487 677.314C114.487 675.964 113.879 674.992 112.61 674.992C111.328 674.992 110.72 675.964 110.72 677.314ZM117.537 677.395C117.537 675.289 118.698 674.033 120.629 674.033C122.235 674.033 123.126 674.789 123.396 676.18L122.33 676.423C122.114 675.545 121.655 674.992 120.602 674.992C119.373 674.992 118.725 675.788 118.725 677.354C118.725 678.772 119.292 679.69 120.629 679.69C121.668 679.69 122.181 679.015 122.37 678.272L123.423 678.596C123.14 679.906 122.154 680.662 120.642 680.662C118.644 680.662 117.537 679.474 117.537 677.395ZM126.082 680.5V671.455H127.243V676.814H128.471L130.294 674.195H131.549V674.465L129.322 677.287L131.779 680.23V680.5H130.537L128.525 677.827H127.243V680.5H126.082ZM141.214 676.585C141.214 674.411 142.119 672.265 144.319 672.265C145.953 672.265 146.641 673.223 146.871 674.411L145.71 674.587C145.561 673.763 145.116 673.223 144.306 673.223C142.902 673.223 142.335 674.627 142.335 676.895C142.335 676.949 142.335 676.99 142.335 677.044L142.564 677.084C142.915 676.153 143.644 675.613 144.832 675.613C146.115 675.613 147.114 676.45 147.114 677.975C147.114 679.568 146.142 680.635 144.252 680.635C142.443 680.635 141.214 679.231 141.214 676.585ZM142.524 678.029C142.524 678.947 143.145 679.69 144.306 679.69C145.48 679.69 145.912 678.866 145.912 677.975C145.912 677.071 145.413 676.382 144.387 676.382C143.131 676.382 142.524 677.165 142.524 678.029Z" fill="#212525"/>
<mask id="path-60-inside-18_440_4170" fill="white">
<path d="M192 656H293V696H192V656Z"/>
</mask>
<path d="M192 656H293V696H192V656Z" fill="#212525" fill-opacity="0.3"/>
<path d="M192 656V655.156H191.156V656H192ZM293 656H293.844V655.156H293V656ZM293 696V696.84H293.844V696H293ZM192 696H191.156V696.84H192V696ZM192 656.844H293V655.156H192V656.844ZM292.156 656V696H293.844V656H292.156ZM293 695.16H192V696.84H293V695.16ZM192.844 696V656H191.156V696H192.844Z" fill="#212525" mask="url(#path-60-inside-18_440_4170)"/>
<path d="M215.995 680.5V672.4H219.019C220.747 672.4 221.624 673.102 221.624 674.452C221.624 675.518 220.882 676.126 219.788 676.315V676.49C221.287 676.598 221.948 677.111 221.948 678.259C221.948 679.622 221.084 680.5 219.329 680.5H215.995ZM217.223 679.595H219.316C220.288 679.595 220.747 679.082 220.747 678.218C220.747 677.422 220.45 676.895 219.302 676.895H217.223V679.595ZM217.223 675.991H219.167C219.937 675.991 220.463 675.505 220.463 674.627C220.463 673.777 220.018 673.304 219.086 673.304H217.223V675.991ZM223.838 680.5V679.568H226.227V672.386H223.959V671.455H227.388V679.568H229.575V680.5H223.838ZM231.546 677.327C231.546 675.383 232.734 674.033 234.61 674.033C236.473 674.033 237.661 675.383 237.661 677.327C237.661 679.258 236.568 680.662 234.61 680.662C232.639 680.662 231.546 679.258 231.546 677.327ZM232.72 677.314C232.72 678.664 233.274 679.703 234.597 679.703C235.92 679.703 236.487 678.664 236.487 677.314C236.487 675.964 235.879 674.992 234.61 674.992C233.328 674.992 232.72 675.964 232.72 677.314ZM239.537 677.395C239.537 675.289 240.698 674.033 242.629 674.033C244.235 674.033 245.126 674.789 245.396 676.18L244.33 676.423C244.114 675.545 243.655 674.992 242.602 674.992C241.373 674.992 240.725 675.788 240.725 677.354C240.725 678.772 241.292 679.69 242.629 679.69C243.668 679.69 244.181 679.015 244.37 678.272L245.423 678.596C245.14 679.906 244.154 680.662 242.642 680.662C240.644 680.662 239.537 679.474 239.537 677.395ZM248.082 680.5V671.455H249.243V676.814H250.471L252.294 674.195H253.549V674.465L251.322 677.287L253.779 680.23V680.5H252.537L250.525 677.827H249.243V680.5H248.082ZM262.85 673.493V672.4H269.573V673.507C267.575 675.505 266.589 677.908 266.4 680.5H265.05C265.253 677.813 266.67 675.221 268.803 673.264C267.804 673.412 266.279 673.493 265.145 673.493H262.85Z" fill="#212525"/>
<rect x="420" y="305" width="507" height="126" fill="#212525" fill-opacity="0.1"/>
<rect x="420.5" y="305.5" width="506" height="125" stroke="#212525" stroke-opacity="0.5" stroke-dasharray="10 10"/>
<path d="M444.064 342.176C442.384 342.176 440.96 340.928 440.96 337.328C440.96 334.048 442.192 332.208 444.672 332.208C446.704 332.208 447.664 333.28 448 335.312L446.624 335.616C446.352 334.128 445.856 333.472 444.672 333.472C443.024 333.472 442.448 334.832 442.448 337.328C442.448 339.792 443.088 340.96 444.656 340.96C446.336 340.96 446.768 339.664 446.8 338.256H444.752V337.104H448.16V342H446.864V339.936H446.624C446.208 341.152 445.456 342.176 444.064 342.176ZM451.007 342V332.4H454.495C456.735 332.4 457.887 333.648 457.887 335.616C457.887 337.392 456.703 338.784 454.559 338.784H452.479V342H451.007ZM452.479 337.632H454.383C455.887 337.632 456.479 336.848 456.479 335.632C456.479 334.4 455.967 333.6 454.367 333.6H452.479V337.632ZM463.407 342.176C461.183 342.176 460.031 340.896 460.031 338.432V332.4H461.503V338.32C461.503 339.888 461.903 340.96 463.407 340.96C464.863 340.96 465.295 340.048 465.295 338.4V332.4H466.767V338.432C466.767 340.896 465.599 342.176 463.407 342.176ZM479.182 342L478.03 334.528H479.406L479.726 337.392C479.87 338.608 480.014 339.68 480.142 340.848H480.414C480.526 340 480.622 339.12 480.782 338.336L481.31 335.808H483.006L483.47 338.224C483.614 338.976 483.758 339.92 483.902 340.848H484.158C484.27 339.68 484.414 338.592 484.542 337.392L484.878 334.528H486.206L485.022 342H483.086L482.606 339.376C482.446 338.56 482.35 337.744 482.254 336.944H481.95C481.838 337.76 481.726 338.576 481.582 339.36L481.134 342H479.182ZM488.077 342V340.896H490.957V335.632H488.221V334.528H492.349V340.896H494.877V342H488.077ZM490.493 332.784V331.472H492.413V332.784H490.493ZM499.052 339.232V335.632H497.132V334.528H499.052V332.4H500.444V334.528H504.172V335.632H500.444V339.024C500.444 340.32 500.94 340.992 502.22 340.992C502.764 340.992 503.34 340.864 504.076 340.544L504.348 341.632C503.516 342 502.78 342.192 501.916 342.192C499.916 342.192 499.052 340.944 499.052 339.232ZM507.132 342V331.28H508.524V336.384H508.7C509.196 335.264 510.044 334.336 511.324 334.336C512.572 334.336 513.34 335.248 513.34 336.912V342H511.948V337.232C511.948 336.192 511.532 335.6 510.684 335.6C509.388 335.6 508.524 336.592 508.524 337.888V342H507.132ZM524.986 339.296V338.384L529.514 332.4H531.29V338.192H532.842V339.296H531.29V342H529.882V339.296H524.986ZM529.882 338.192V333.536L529.706 333.472L526.138 338.224L526.298 338.496C527.338 338.304 528.634 338.192 529.53 338.192H529.882ZM543.849 339.28L545.257 338.96C545.481 340.208 546.329 341.056 547.785 341.056C549.193 341.056 549.801 340.352 549.801 339.52C549.801 338.416 548.937 338.08 547.481 337.776C545.609 337.408 544.313 336.768 544.313 334.864C544.313 333.344 545.481 332.208 547.705 332.208C549.785 332.208 550.761 333.408 551.033 334.768L549.609 335.024C549.385 334.096 548.841 333.328 547.625 333.328C546.409 333.328 545.753 333.92 545.753 334.752C545.753 335.92 546.697 336.24 548.057 336.576C550.185 337.04 551.289 337.696 551.289 339.408C551.289 340.944 550.233 342.192 547.769 342.192C545.337 342.192 544.089 340.944 543.849 339.28ZM553.353 342V332.4H555.609L556.505 336.752C556.649 337.456 556.761 338.48 556.921 339.568H557.177C557.369 338.176 557.529 337.088 557.769 335.792L558.377 332.4H560.633V342H559.337V337.44C559.337 336.112 559.433 334.608 559.497 333.584H559.145C558.985 334.624 558.841 335.808 558.633 336.816L557.769 340.816H556.249L555.273 336.432C555.113 335.696 554.921 334.544 554.761 333.584H554.473C554.521 334.576 554.633 335.968 554.633 337.024V342H553.353ZM566.472 342.192C564.312 342.192 563.256 341.264 562.936 339.888L564.216 339.632C564.472 340.544 565.144 341.168 566.488 341.168C567.608 341.168 568.328 340.816 568.328 340.048C568.328 339.216 567.416 338.96 566.232 338.768C564.616 338.512 563.336 338.048 563.336 336.544C563.336 335.264 564.344 334.336 566.392 334.336C568.424 334.336 569.128 335.2 569.448 336.368L568.184 336.608C567.944 335.648 567.352 335.344 566.344 335.344C565.224 335.344 564.68 335.744 564.68 336.432C564.68 337.264 565.544 337.488 566.664 337.68C568.472 337.968 569.72 338.384 569.72 339.968C569.72 341.232 568.712 342.192 566.472 342.192Z" fill="#212525"/>
<mask id="path-66-inside-19_440_4170" fill="white">
<path d="M440 371H541V411H440V371Z"/>
</mask>
<path d="M440 371H541V411H440V371Z" fill="#212525" fill-opacity="0.3"/>
<path d="M440 371V370.156H439.156V371H440ZM541 371H541.844V370.156H541V371ZM541 411V411.84H541.844V411H541ZM440 411H439.156V411.84H440V411ZM440 371.844H541V370.156H440V371.844ZM540.156 371V411H541.844V371H540.156ZM541 410.16H440V411.84H541V410.16ZM440.844 411V371H439.156V411H440.844Z" fill="#212525" mask="url(#path-66-inside-19_440_4170)"/>
<path d="M475.462 393.205L476.65 392.935C476.839 393.988 477.555 394.703 478.783 394.703C479.971 394.703 480.484 394.109 480.484 393.407C480.484 392.476 479.755 392.192 478.527 391.936C476.947 391.625 475.854 391.085 475.854 389.479C475.854 388.196 476.839 387.238 478.716 387.238C480.471 387.238 481.294 388.25 481.524 389.398L480.322 389.614C480.133 388.831 479.674 388.183 478.648 388.183C477.622 388.183 477.069 388.683 477.069 389.384C477.069 390.37 477.865 390.64 479.013 390.923C480.808 391.315 481.74 391.868 481.74 393.313C481.74 394.609 480.849 395.662 478.77 395.662C476.718 395.662 475.665 394.609 475.462 393.205ZM483.481 395.5V387.4H485.384L486.14 391.072C486.262 391.666 486.356 392.53 486.491 393.448H486.707C486.869 392.273 487.004 391.355 487.207 390.262L487.72 387.4H489.623V395.5H488.53V391.652C488.53 390.532 488.611 389.263 488.665 388.399H488.368C488.233 389.276 488.111 390.275 487.936 391.126L487.207 394.501H485.924L485.101 390.802C484.966 390.181 484.804 389.209 484.669 388.399H484.426C484.466 389.236 484.561 390.41 484.561 391.301V395.5H483.481ZM502.352 395.662C500.381 395.662 499.301 393.893 499.301 391.436C499.301 388.979 500.395 387.238 502.352 387.238C504.296 387.238 505.39 388.979 505.39 391.436C505.39 393.893 504.31 395.662 502.352 395.662ZM502.352 394.649C503.648 394.649 504.229 393.353 504.229 391.436C504.229 389.533 503.635 388.25 502.352 388.25C501.07 388.25 500.462 389.533 500.462 391.436C500.462 393.353 501.056 394.649 502.352 394.649ZM501.799 392.044V390.775H502.892V392.044H501.799Z" fill="#212525"/>
<mask id="path-69-inside-20_440_4170" fill="white">
<path d="M562 371H663V411H562V371Z"/>
</mask>
<path d="M562 371H663V411H562V371Z" fill="#212525" fill-opacity="0.3"/>
<path d="M562 371V370.156H561.156V371H562ZM663 371H663.844V370.156H663V371ZM663 411V411.84H663.844V411H663ZM562 411H561.156V411.84H562V411ZM562 371.844H663V370.156H562V371.844ZM662.156 371V411H663.844V371H662.156ZM663 410.16H562V411.84H663V410.16ZM562.844 411V371H561.156V411H562.844Z" fill="#212525" mask="url(#path-69-inside-20_440_4170)"/>
<path d="M597.462 393.205L598.65 392.935C598.839 393.988 599.555 394.703 600.783 394.703C601.971 394.703 602.484 394.109 602.484 393.407C602.484 392.476 601.755 392.192 600.527 391.936C598.947 391.625 597.854 391.085 597.854 389.479C597.854 388.196 598.839 387.238 600.716 387.238C602.471 387.238 603.294 388.25 603.524 389.398L602.322 389.614C602.133 388.831 601.674 388.183 600.648 388.183C599.622 388.183 599.069 388.683 599.069 389.384C599.069 390.37 599.865 390.64 601.013 390.923C602.808 391.315 603.74 391.868 603.74 393.313C603.74 394.609 602.849 395.662 600.77 395.662C598.718 395.662 597.665 394.609 597.462 393.205ZM605.481 395.5V387.4H607.384L608.14 391.072C608.262 391.666 608.356 392.53 608.491 393.448H608.707C608.869 392.273 609.004 391.355 609.207 390.262L609.72 387.4H611.623V395.5H610.53V391.652C610.53 390.532 610.611 389.263 610.665 388.399H610.368C610.233 389.276 610.111 390.275 609.936 391.126L609.207 394.501H607.924L607.101 390.802C606.966 390.181 606.804 389.209 606.669 388.399H606.426C606.466 389.236 606.561 390.41 606.561 391.301V395.5H605.481ZM621.45 388.412L624.582 387.4H625.257V394.487H627.214V395.5H621.625V394.487H624.069V388.385C623.407 388.777 622.651 389.141 621.841 389.425L621.45 388.412Z" fill="#212525"/>
<mask id="path-72-inside-21_440_4170" fill="white">
<path d="M684 371H785V411H684V371Z"/>
</mask>
<path d="M684 371H785V411H684V371Z" fill="#212525" fill-opacity="0.3"/>
<path d="M684 371V370.156H683.156V371H684ZM785 371H785.844V370.156H785V371ZM785 411V411.84H785.844V411H785ZM684 411H683.156V411.84H684V411ZM684 371.844H785V370.156H684V371.844ZM784.156 371V411H785.844V371H784.156ZM785 410.16H684V411.84H785V410.16ZM684.844 411V371H683.156V411H684.844Z" fill="#212525" mask="url(#path-72-inside-21_440_4170)"/>
<path d="M719.462 393.205L720.65 392.935C720.839 393.988 721.555 394.703 722.783 394.703C723.971 394.703 724.484 394.109 724.484 393.407C724.484 392.476 723.755 392.192 722.527 391.936C720.947 391.625 719.854 391.085 719.854 389.479C719.854 388.196 720.839 387.238 722.716 387.238C724.471 387.238 725.294 388.25 725.524 389.398L724.322 389.614C724.133 388.831 723.674 388.183 722.648 388.183C721.622 388.183 721.069 388.683 721.069 389.384C721.069 390.37 721.865 390.64 723.013 390.923C724.808 391.315 725.74 391.868 725.74 393.313C725.74 394.609 724.849 395.662 722.77 395.662C720.718 395.662 719.665 394.609 719.462 393.205ZM727.481 395.5V387.4H729.384L730.14 391.072C730.262 391.666 730.356 392.53 730.491 393.448H730.707C730.869 392.273 731.004 391.355 731.207 390.262L731.72 387.4H733.623V395.5H732.53V391.652C732.53 390.532 732.611 389.263 732.665 388.399H732.368C732.233 389.276 732.111 390.275 731.936 391.126L731.207 394.501H729.924L729.101 390.802C728.966 390.181 728.804 389.209 728.669 388.399H728.426C728.466 389.236 728.561 390.41 728.561 391.301V395.5H727.481ZM743.382 395.5C743.369 395.27 743.369 395.027 743.369 394.784C743.369 392.989 744.071 392.3 745.691 391.706C747.513 391.085 747.986 390.559 747.986 389.614C747.986 388.79 747.567 388.21 746.568 388.21C745.448 388.21 744.962 388.952 744.786 390.086L743.639 389.884C743.909 388.304 744.8 387.251 746.555 387.251C748.242 387.251 749.174 388.115 749.174 389.695C749.174 391.247 747.959 391.936 746.406 392.449C744.773 393.016 744.314 393.448 744.273 394.703C745.07 394.582 746.339 394.487 747.203 394.487H749.255V395.5H743.382Z" fill="#212525"/>
<mask id="path-75-inside-22_440_4170" fill="white">
<path d="M806 371H907V411H806V371Z"/>
</mask>
<path d="M806 371H907V411H806V371Z" fill="#212525" fill-opacity="0.3"/>
<path d="M806 371V370.156H805.156V371H806ZM907 371H907.844V370.156H907V371ZM907 411V411.84H907.844V411H907ZM806 411H805.156V411.84H806V411ZM806 371.844H907V370.156H806V371.844ZM906.156 371V411H907.844V371H906.156ZM907 410.16H806V411.84H907V410.16ZM806.844 411V371H805.156V411H806.844Z" fill="#212525" mask="url(#path-75-inside-22_440_4170)"/>
<path d="M841.462 393.205L842.65 392.935C842.839 393.988 843.555 394.703 844.783 394.703C845.971 394.703 846.484 394.109 846.484 393.407C846.484 392.476 845.755 392.192 844.527 391.936C842.947 391.625 841.854 391.085 841.854 389.479C841.854 388.196 842.839 387.238 844.716 387.238C846.471 387.238 847.294 388.25 847.524 389.398L846.322 389.614C846.133 388.831 845.674 388.183 844.648 388.183C843.622 388.183 843.069 388.683 843.069 389.384C843.069 390.37 843.865 390.64 845.013 390.923C846.808 391.315 847.74 391.868 847.74 393.313C847.74 394.609 846.849 395.662 844.77 395.662C842.718 395.662 841.665 394.609 841.462 393.205ZM849.481 395.5V387.4H851.384L852.14 391.072C852.262 391.666 852.356 392.53 852.491 393.448H852.707C852.869 392.273 853.004 391.355 853.207 390.262L853.72 387.4H855.623V395.5H854.53V391.652C854.53 390.532 854.611 389.263 854.665 388.399H854.368C854.233 389.276 854.111 390.275 853.936 391.126L853.207 394.501H851.924L851.101 390.802C850.966 390.181 850.804 389.209 850.669 388.399H850.426C850.466 389.236 850.561 390.41 850.561 391.301V395.5H849.481ZM865.342 393.205L866.516 392.989C866.732 393.934 867.367 394.717 868.501 394.717C869.581 394.717 870.121 394.096 870.121 393.245C870.121 392.381 869.675 391.868 868.595 391.868H867.34V391.018H868.568C869.311 391.018 869.851 390.626 869.851 389.627C869.851 388.736 869.365 388.196 868.487 388.196C867.502 388.196 867.016 388.885 866.813 389.816L865.693 389.681C865.936 388.304 866.8 387.265 868.474 387.265C870.107 387.265 871.012 388.034 871.012 389.411C871.012 390.491 870.391 391.072 869.27 391.301V391.585C870.836 391.693 871.322 392.219 871.322 393.367C871.322 394.663 870.337 395.635 868.501 395.635C866.773 395.635 865.625 394.717 865.342 393.205Z" fill="#212525"/>
<rect x="420" y="447" width="507" height="80" fill="#212525" fill-opacity="0.1"/>
<rect x="420.5" y="447.5" width="506" height="79" stroke="#212525" stroke-opacity="0.5" stroke-dasharray="10 10"/>
<mask id="path-80-inside-23_440_4170" fill="white">
<path d="M440 467H541V507H440V467Z"/>
</mask>
<path d="M440 467H541V507H440V467Z" fill="#212525" fill-opacity="0.3"/>
<path d="M440 467V466.156H439.156V467H440ZM541 467H541.844V466.156H541V467ZM541 507V507.84H541.844V507H541ZM440 507H439.156V507.84H440V507ZM440 467.844H541V466.156H440V467.844ZM540.156 467V507H541.844V467H540.156ZM541 506.16H440V507.84H541V506.16ZM440.844 507V467H439.156V507H440.844Z" fill="#212525" mask="url(#path-80-inside-23_440_4170)"/>
<path d="M463.995 491.5V483.4H467.019C468.747 483.4 469.624 484.102 469.624 485.452C469.624 486.518 468.882 487.126 467.788 487.315V487.49C469.287 487.598 469.948 488.111 469.948 489.259C469.948 490.622 469.084 491.5 467.329 491.5H463.995ZM465.223 490.595H467.316C468.288 490.595 468.747 490.082 468.747 489.218C468.747 488.422 468.45 487.895 467.302 487.895H465.223V490.595ZM465.223 486.991H467.167C467.937 486.991 468.463 486.505 468.463 485.627C468.463 484.777 468.018 484.304 467.086 484.304H465.223V486.991ZM471.838 491.5V490.568H474.227V483.386H471.959V482.455H475.388V490.568H477.575V491.5H471.838ZM479.546 488.327C479.546 486.383 480.734 485.033 482.61 485.033C484.473 485.033 485.661 486.383 485.661 488.327C485.661 490.258 484.568 491.662 482.61 491.662C480.639 491.662 479.546 490.258 479.546 488.327ZM480.72 488.314C480.72 489.664 481.274 490.703 482.597 490.703C483.92 490.703 484.487 489.664 484.487 488.314C484.487 486.964 483.879 485.992 482.61 485.992C481.328 485.992 480.72 486.964 480.72 488.314ZM487.537 488.395C487.537 486.289 488.698 485.033 490.629 485.033C492.235 485.033 493.126 485.789 493.396 487.18L492.33 487.423C492.114 486.545 491.655 485.992 490.602 485.992C489.373 485.992 488.725 486.788 488.725 488.354C488.725 489.772 489.292 490.69 490.629 490.69C491.668 490.69 492.181 490.015 492.37 489.272L493.423 489.596C493.14 490.906 492.154 491.662 490.642 491.662C488.644 491.662 487.537 490.474 487.537 488.395ZM496.082 491.5V482.455H497.243V487.814H498.471L500.294 485.195H501.549V485.465L499.322 488.287L501.779 491.23V491.5H500.537L498.525 488.827H497.243V491.5H496.082ZM514.198 491.662C512.227 491.662 511.147 489.893 511.147 487.436C511.147 484.979 512.24 483.238 514.198 483.238C516.142 483.238 517.235 484.979 517.235 487.436C517.235 489.893 516.155 491.662 514.198 491.662ZM514.198 490.649C515.494 490.649 516.074 489.353 516.074 487.436C516.074 485.533 515.48 484.25 514.198 484.25C512.915 484.25 512.308 485.533 512.308 487.436C512.308 489.353 512.902 490.649 514.198 490.649ZM513.644 488.044V486.775H514.738V488.044H513.644Z" fill="#212525"/>
<mask id="path-83-inside-24_440_4170" fill="white">
<path d="M562 467H663V507H562V467Z"/>
</mask>
<path d="M562 467H663V507H562V467Z" fill="#212525" fill-opacity="0.3"/>
<path d="M562 467V466.156H561.156V467H562ZM663 467H663.844V466.156H663V467ZM663 507V507.84H663.844V507H663ZM562 507H561.156V507.84H562V507ZM562 467.844H663V466.156H562V467.844ZM662.156 467V507H663.844V467H662.156ZM663 506.16H562V507.84H663V506.16ZM562.844 507V467H561.156V507H562.844Z" fill="#212525" mask="url(#path-83-inside-24_440_4170)"/>
<path d="M585.995 491.5V483.4H589.019C590.747 483.4 591.624 484.102 591.624 485.452C591.624 486.518 590.882 487.126 589.788 487.315V487.49C591.287 487.598 591.948 488.111 591.948 489.259C591.948 490.622 591.084 491.5 589.329 491.5H585.995ZM587.223 490.595H589.316C590.288 490.595 590.747 490.082 590.747 489.218C590.747 488.422 590.45 487.895 589.302 487.895H587.223V490.595ZM587.223 486.991H589.167C589.937 486.991 590.463 486.505 590.463 485.627C590.463 484.777 590.018 484.304 589.086 484.304H587.223V486.991ZM593.838 491.5V490.568H596.227V483.386H593.959V482.455H597.388V490.568H599.575V491.5H593.838ZM601.546 488.327C601.546 486.383 602.734 485.033 604.61 485.033C606.473 485.033 607.661 486.383 607.661 488.327C607.661 490.258 606.568 491.662 604.61 491.662C602.639 491.662 601.546 490.258 601.546 488.327ZM602.72 488.314C602.72 489.664 603.274 490.703 604.597 490.703C605.92 490.703 606.487 489.664 606.487 488.314C606.487 486.964 605.879 485.992 604.61 485.992C603.328 485.992 602.72 486.964 602.72 488.314ZM609.537 488.395C609.537 486.289 610.698 485.033 612.629 485.033C614.235 485.033 615.126 485.789 615.396 487.18L614.33 487.423C614.114 486.545 613.655 485.992 612.602 485.992C611.373 485.992 610.725 486.788 610.725 488.354C610.725 489.772 611.292 490.69 612.629 490.69C613.668 490.69 614.181 490.015 614.37 489.272L615.423 489.596C615.14 490.906 614.154 491.662 612.642 491.662C610.644 491.662 609.537 490.474 609.537 488.395ZM618.082 491.5V482.455H619.243V487.814H620.471L622.294 485.195H623.549V485.465L621.322 488.287L623.779 491.23V491.5H622.537L620.525 488.827H619.243V491.5H618.082ZM633.295 484.412L636.427 483.4H637.102V490.487H639.06V491.5H633.471V490.487H635.914V484.385C635.253 484.777 634.497 485.141 633.687 485.425L633.295 484.412Z" fill="#212525"/>
<mask id="path-86-inside-25_440_4170" fill="white">
<path d="M684 467H785V507H684V467Z"/>
</mask>
<path d="M684 467H785V507H684V467Z" fill="#212525" fill-opacity="0.3"/>
<path d="M684 467V466.156H683.156V467H684ZM785 467H785.844V466.156H785V467ZM785 507V507.84H785.844V507H785ZM684 507H683.156V507.84H684V507ZM684 467.844H785V466.156H684V467.844ZM784.156 467V507H785.844V467H784.156ZM785 506.16H684V507.84H785V506.16ZM684.844 507V467H683.156V507H684.844Z" fill="#212525" mask="url(#path-86-inside-25_440_4170)"/>
<path d="M707.995 491.5V483.4H711.019C712.747 483.4 713.624 484.102 713.624 485.452C713.624 486.518 712.882 487.126 711.788 487.315V487.49C713.287 487.598 713.948 488.111 713.948 489.259C713.948 490.622 713.084 491.5 711.329 491.5H707.995ZM709.223 490.595H711.316C712.288 490.595 712.747 490.082 712.747 489.218C712.747 488.422 712.45 487.895 711.302 487.895H709.223V490.595ZM709.223 486.991H711.167C711.937 486.991 712.463 486.505 712.463 485.627C712.463 484.777 712.018 484.304 711.086 484.304H709.223V486.991ZM715.838 491.5V490.568H718.227V483.386H715.959V482.455H719.388V490.568H721.575V491.5H715.838ZM723.546 488.327C723.546 486.383 724.734 485.033 726.61 485.033C728.473 485.033 729.661 486.383 729.661 488.327C729.661 490.258 728.568 491.662 726.61 491.662C724.639 491.662 723.546 490.258 723.546 488.327ZM724.72 488.314C724.72 489.664 725.274 490.703 726.597 490.703C727.92 490.703 728.487 489.664 728.487 488.314C728.487 486.964 727.879 485.992 726.61 485.992C725.328 485.992 724.72 486.964 724.72 488.314ZM731.537 488.395C731.537 486.289 732.698 485.033 734.629 485.033C736.235 485.033 737.126 485.789 737.396 487.18L736.33 487.423C736.114 486.545 735.655 485.992 734.602 485.992C733.373 485.992 732.725 486.788 732.725 488.354C732.725 489.772 733.292 490.69 734.629 490.69C735.668 490.69 736.181 490.015 736.37 489.272L737.423 489.596C737.14 490.906 736.154 491.662 734.642 491.662C732.644 491.662 731.537 490.474 731.537 488.395ZM740.082 491.5V482.455H741.243V487.814H742.471L744.294 485.195H745.549V485.465L743.322 488.287L745.779 491.23V491.5H744.537L742.525 488.827H741.243V491.5H740.082ZM755.228 491.5C755.214 491.27 755.214 491.027 755.214 490.784C755.214 488.989 755.916 488.3 757.536 487.706C759.359 487.085 759.831 486.559 759.831 485.614C759.831 484.79 759.413 484.21 758.414 484.21C757.293 484.21 756.807 484.952 756.632 486.086L755.484 485.884C755.754 484.304 756.645 483.251 758.4 483.251C760.088 483.251 761.019 484.115 761.019 485.695C761.019 487.247 759.804 487.936 758.252 488.449C756.618 489.016 756.159 489.448 756.119 490.703C756.915 490.582 758.184 490.487 759.048 490.487H761.1V491.5H755.228Z" fill="#212525"/>
<mask id="path-89-inside-26_440_4170" fill="white">
<path d="M806 467H907V507H806V467Z"/>
</mask>
<path d="M806 467H907V507H806V467Z" fill="#212525" fill-opacity="0.3"/>
<path d="M806 467V466.156H805.156V467H806ZM907 467H907.844V466.156H907V467ZM907 507V507.84H907.844V507H907ZM806 507H805.156V507.84H806V507ZM806 467.844H907V466.156H806V467.844ZM906.156 467V507H907.844V467H906.156ZM907 506.16H806V507.84H907V506.16ZM806.844 507V467H805.156V507H806.844Z" fill="#212525" mask="url(#path-89-inside-26_440_4170)"/>
<path d="M829.995 491.5V483.4H833.019C834.747 483.4 835.624 484.102 835.624 485.452C835.624 486.518 834.882 487.126 833.788 487.315V487.49C835.287 487.598 835.948 488.111 835.948 489.259C835.948 490.622 835.084 491.5 833.329 491.5H829.995ZM831.223 490.595H833.316C834.288 490.595 834.747 490.082 834.747 489.218C834.747 488.422 834.45 487.895 833.302 487.895H831.223V490.595ZM831.223 486.991H833.167C833.937 486.991 834.463 486.505 834.463 485.627C834.463 484.777 834.018 484.304 833.086 484.304H831.223V486.991ZM837.838 491.5V490.568H840.227V483.386H837.959V482.455H841.388V490.568H843.575V491.5H837.838ZM845.546 488.327C845.546 486.383 846.734 485.033 848.61 485.033C850.473 485.033 851.661 486.383 851.661 488.327C851.661 490.258 850.568 491.662 848.61 491.662C846.639 491.662 845.546 490.258 845.546 488.327ZM846.72 488.314C846.72 489.664 847.274 490.703 848.597 490.703C849.92 490.703 850.487 489.664 850.487 488.314C850.487 486.964 849.879 485.992 848.61 485.992C847.328 485.992 846.72 486.964 846.72 488.314ZM853.537 488.395C853.537 486.289 854.698 485.033 856.629 485.033C858.235 485.033 859.126 485.789 859.396 487.18L858.33 487.423C858.114 486.545 857.655 485.992 856.602 485.992C855.373 485.992 854.725 486.788 854.725 488.354C854.725 489.772 855.292 490.69 856.629 490.69C857.668 490.69 858.181 490.015 858.37 489.272L859.423 489.596C859.14 490.906 858.154 491.662 856.642 491.662C854.644 491.662 853.537 490.474 853.537 488.395ZM862.082 491.5V482.455H863.243V487.814H864.471L866.294 485.195H867.549V485.465L865.322 488.287L867.779 491.23V491.5H866.537L864.525 488.827H863.243V491.5H862.082ZM877.187 489.205L878.362 488.989C878.578 489.934 879.212 490.717 880.346 490.717C881.426 490.717 881.966 490.096 881.966 489.245C881.966 488.381 881.521 487.868 880.441 487.868H879.185V487.018H880.414C881.156 487.018 881.696 486.626 881.696 485.627C881.696 484.736 881.21 484.196 880.333 484.196C879.347 484.196 878.861 484.885 878.659 485.816L877.538 485.681C877.781 484.304 878.645 483.265 880.319 483.265C881.953 483.265 882.857 484.034 882.857 485.411C882.857 486.491 882.236 487.072 881.116 487.301V487.585C882.682 487.693 883.168 488.219 883.168 489.367C883.168 490.663 882.182 491.635 880.346 491.635C878.618 491.635 877.471 490.717 877.187 489.205Z" fill="#212525"/>
<rect x="420" y="543" width="507" height="80" fill="#212525" fill-opacity="0.1"/>
<rect x="420.5" y="543.5" width="506" height="79" stroke="#212525" stroke-opacity="0.5" stroke-dasharray="10 10"/>
<mask id="path-94-inside-27_440_4170" fill="white">
<path d="M440 563H541V603H440V563Z"/>
</mask>
<path d="M440 563H541V603H440V563Z" fill="#212525" fill-opacity="0.3"/>
<path d="M440 563V562.156H439.156V563H440ZM541 563H541.844V562.156H541V563ZM541 603V603.84H541.844V603H541ZM440 603H439.156V603.84H440V603ZM440 563.844H541V562.156H440V563.844ZM540.156 563V603H541.844V563H540.156ZM541 602.16H440V603.84H541V602.16ZM440.844 603V563H439.156V603H440.844Z" fill="#212525" mask="url(#path-94-inside-27_440_4170)"/>
<path d="M463.995 587.5V579.4H467.019C468.747 579.4 469.624 580.102 469.624 581.452C469.624 582.518 468.882 583.126 467.788 583.315V583.49C469.287 583.598 469.948 584.111 469.948 585.259C469.948 586.622 469.084 587.5 467.329 587.5H463.995ZM465.223 586.595H467.316C468.288 586.595 468.747 586.082 468.747 585.218C468.747 584.422 468.45 583.895 467.302 583.895H465.223V586.595ZM465.223 582.991H467.167C467.937 582.991 468.463 582.505 468.463 581.627C468.463 580.777 468.018 580.304 467.086 580.304H465.223V582.991ZM471.838 587.5V586.568H474.227V579.386H471.959V578.455H475.388V586.568H477.575V587.5H471.838ZM479.546 584.327C479.546 582.383 480.734 581.033 482.61 581.033C484.473 581.033 485.661 582.383 485.661 584.327C485.661 586.258 484.568 587.662 482.61 587.662C480.639 587.662 479.546 586.258 479.546 584.327ZM480.72 584.314C480.72 585.664 481.274 586.703 482.597 586.703C483.92 586.703 484.487 585.664 484.487 584.314C484.487 582.964 483.879 581.992 482.61 581.992C481.328 581.992 480.72 582.964 480.72 584.314ZM487.537 584.395C487.537 582.289 488.698 581.033 490.629 581.033C492.235 581.033 493.126 581.789 493.396 583.18L492.33 583.423C492.114 582.545 491.655 581.992 490.602 581.992C489.373 581.992 488.725 582.788 488.725 584.354C488.725 585.772 489.292 586.69 490.629 586.69C491.668 586.69 492.181 586.015 492.37 585.272L493.423 585.596C493.14 586.906 492.154 587.662 490.642 587.662C488.644 587.662 487.537 586.474 487.537 584.395ZM496.082 587.5V578.455H497.243V583.814H498.471L500.294 581.195H501.549V581.465L499.322 584.287L501.779 587.23V587.5H500.537L498.525 584.827H497.243V587.5H496.082ZM510.877 585.218V584.449L514.697 579.4H516.196V584.287H517.505V585.218H516.196V587.5H515.008V585.218H510.877ZM515.008 584.287V580.358L514.859 580.304L511.849 584.314L511.984 584.543C512.861 584.381 513.955 584.287 514.711 584.287H515.008Z" fill="#212525"/>
<mask id="path-97-inside-28_440_4170" fill="white">
<path d="M562 563H663V603H562V563Z"/>
</mask>
<path d="M562 563H663V603H562V563Z" fill="#212525" fill-opacity="0.3"/>
<path d="M562 563V562.156H561.156V563H562ZM663 563H663.844V562.156H663V563ZM663 603V603.84H663.844V603H663ZM562 603H561.156V603.84H562V603ZM562 563.844H663V562.156H562V563.844ZM662.156 563V603H663.844V563H662.156ZM663 602.16H562V603.84H663V602.16ZM562.844 603V563H561.156V603H562.844Z" fill="#212525" mask="url(#path-97-inside-28_440_4170)"/>
<path d="M585.995 587.5V579.4H589.019C590.747 579.4 591.624 580.102 591.624 581.452C591.624 582.518 590.882 583.126 589.788 583.315V583.49C591.287 583.598 591.948 584.111 591.948 585.259C591.948 586.622 591.084 587.5 589.329 587.5H585.995ZM587.223 586.595H589.316C590.288 586.595 590.747 586.082 590.747 585.218C590.747 584.422 590.45 583.895 589.302 583.895H587.223V586.595ZM587.223 582.991H589.167C589.937 582.991 590.463 582.505 590.463 581.627C590.463 580.777 590.018 580.304 589.086 580.304H587.223V582.991ZM593.838 587.5V586.568H596.227V579.386H593.959V578.455H597.388V586.568H599.575V587.5H593.838ZM601.546 584.327C601.546 582.383 602.734 581.033 604.61 581.033C606.473 581.033 607.661 582.383 607.661 584.327C607.661 586.258 606.568 587.662 604.61 587.662C602.639 587.662 601.546 586.258 601.546 584.327ZM602.72 584.314C602.72 585.664 603.274 586.703 604.597 586.703C605.92 586.703 606.487 585.664 606.487 584.314C606.487 582.964 605.879 581.992 604.61 581.992C603.328 581.992 602.72 582.964 602.72 584.314ZM609.537 584.395C609.537 582.289 610.698 581.033 612.629 581.033C614.235 581.033 615.126 581.789 615.396 583.18L614.33 583.423C614.114 582.545 613.655 581.992 612.602 581.992C611.373 581.992 610.725 582.788 610.725 584.354C610.725 585.772 611.292 586.69 612.629 586.69C613.668 586.69 614.181 586.015 614.37 585.272L615.423 585.596C615.14 586.906 614.154 587.662 612.642 587.662C610.644 587.662 609.537 586.474 609.537 584.395ZM618.082 587.5V578.455H619.243V583.814H620.471L622.294 581.195H623.549V581.465L621.322 584.287L623.779 587.23V587.5H622.537L620.525 584.827H619.243V587.5H618.082ZM633.174 585.704L634.281 585.272C634.591 586.055 635.185 586.717 636.238 586.717C637.426 586.717 637.872 585.974 637.872 585.097C637.872 584.125 637.372 583.504 636.238 583.504C635.523 583.504 634.888 583.747 634.497 584.031L633.633 583.666V579.4H638.655V580.534C636.954 580.534 635.523 580.399 634.632 580.264V583.382C635.077 582.977 635.712 582.653 636.67 582.653C638.223 582.653 639.046 583.598 639.046 585.083C639.046 586.744 638.047 587.635 636.211 587.635C634.632 587.635 633.646 586.879 633.174 585.704Z" fill="#212525"/>
<mask id="path-100-inside-29_440_4170" fill="white">
<path d="M684 563H785V603H684V563Z"/>
</mask>
<path d="M684 563H785V603H684V563Z" fill="#212525" fill-opacity="0.3"/>
<path d="M684 563V562.156H683.156V563H684ZM785 563H785.844V562.156H785V563ZM785 603V603.84H785.844V603H785ZM684 603H683.156V603.84H684V603ZM684 563.844H785V562.156H684V563.844ZM784.156 563V603H785.844V563H784.156ZM785 602.16H684V603.84H785V602.16ZM684.844 603V563H683.156V603H684.844Z" fill="#212525" mask="url(#path-100-inside-29_440_4170)"/>
<path d="M707.995 587.5V579.4H711.019C712.747 579.4 713.624 580.102 713.624 581.452C713.624 582.518 712.882 583.126 711.788 583.315V583.49C713.287 583.598 713.948 584.111 713.948 585.259C713.948 586.622 713.084 587.5 711.329 587.5H707.995ZM709.223 586.595H711.316C712.288 586.595 712.747 586.082 712.747 585.218C712.747 584.422 712.45 583.895 711.302 583.895H709.223V586.595ZM709.223 582.991H711.167C711.937 582.991 712.463 582.505 712.463 581.627C712.463 580.777 712.018 580.304 711.086 580.304H709.223V582.991ZM715.838 587.5V586.568H718.227V579.386H715.959V578.455H719.388V586.568H721.575V587.5H715.838ZM723.546 584.327C723.546 582.383 724.734 581.033 726.61 581.033C728.473 581.033 729.661 582.383 729.661 584.327C729.661 586.258 728.568 587.662 726.61 587.662C724.639 587.662 723.546 586.258 723.546 584.327ZM724.72 584.314C724.72 585.664 725.274 586.703 726.597 586.703C727.92 586.703 728.487 585.664 728.487 584.314C728.487 582.964 727.879 581.992 726.61 581.992C725.328 581.992 724.72 582.964 724.72 584.314ZM731.537 584.395C731.537 582.289 732.698 581.033 734.629 581.033C736.235 581.033 737.126 581.789 737.396 583.18L736.33 583.423C736.114 582.545 735.655 581.992 734.602 581.992C733.373 581.992 732.725 582.788 732.725 584.354C732.725 585.772 733.292 586.69 734.629 586.69C735.668 586.69 736.181 586.015 736.37 585.272L737.423 585.596C737.14 586.906 736.154 587.662 734.642 587.662C732.644 587.662 731.537 586.474 731.537 584.395ZM740.082 587.5V578.455H741.243V583.814H742.471L744.294 581.195H745.549V581.465L743.322 584.287L745.779 587.23V587.5H744.537L742.525 584.827H741.243V587.5H740.082ZM755.214 583.585C755.214 581.411 756.119 579.265 758.319 579.265C759.953 579.265 760.641 580.223 760.871 581.411L759.71 581.587C759.561 580.763 759.116 580.223 758.306 580.223C756.902 580.223 756.335 581.627 756.335 583.895C756.335 583.949 756.335 583.99 756.335 584.044L756.564 584.084C756.915 583.153 757.644 582.613 758.832 582.613C760.115 582.613 761.114 583.45 761.114 584.975C761.114 586.568 760.142 587.635 758.252 587.635C756.443 587.635 755.214 586.231 755.214 583.585ZM756.524 585.029C756.524 585.947 757.145 586.69 758.306 586.69C759.48 586.69 759.912 585.866 759.912 584.975C759.912 584.071 759.413 583.382 758.387 583.382C757.131 583.382 756.524 584.165 756.524 585.029Z" fill="#212525"/>
<mask id="path-103-inside-30_440_4170" fill="white">
<path d="M806 563H907V603H806V563Z"/>
</mask>
<path d="M806 563H907V603H806V563Z" fill="#212525" fill-opacity="0.3"/>
<path d="M806 563V562.156H805.156V563H806ZM907 563H907.844V562.156H907V563ZM907 603V603.84H907.844V603H907ZM806 603H805.156V603.84H806V603ZM806 563.844H907V562.156H806V563.844ZM906.156 563V603H907.844V563H906.156ZM907 602.16H806V603.84H907V602.16ZM806.844 603V563H805.156V603H806.844Z" fill="#212525" mask="url(#path-103-inside-30_440_4170)"/>
<path d="M829.995 587.5V579.4H833.019C834.747 579.4 835.624 580.102 835.624 581.452C835.624 582.518 834.882 583.126 833.788 583.315V583.49C835.287 583.598 835.948 584.111 835.948 585.259C835.948 586.622 835.084 587.5 833.329 587.5H829.995ZM831.223 586.595H833.316C834.288 586.595 834.747 586.082 834.747 585.218C834.747 584.422 834.45 583.895 833.302 583.895H831.223V586.595ZM831.223 582.991H833.167C833.937 582.991 834.463 582.505 834.463 581.627C834.463 580.777 834.018 580.304 833.086 580.304H831.223V582.991ZM837.838 587.5V586.568H840.227V579.386H837.959V578.455H841.388V586.568H843.575V587.5H837.838ZM845.546 584.327C845.546 582.383 846.734 581.033 848.61 581.033C850.473 581.033 851.661 582.383 851.661 584.327C851.661 586.258 850.568 587.662 848.61 587.662C846.639 587.662 845.546 586.258 845.546 584.327ZM846.72 584.314C846.72 585.664 847.274 586.703 848.597 586.703C849.92 586.703 850.487 585.664 850.487 584.314C850.487 582.964 849.879 581.992 848.61 581.992C847.328 581.992 846.72 582.964 846.72 584.314ZM853.537 584.395C853.537 582.289 854.698 581.033 856.629 581.033C858.235 581.033 859.126 581.789 859.396 583.18L858.33 583.423C858.114 582.545 857.655 581.992 856.602 581.992C855.373 581.992 854.725 582.788 854.725 584.354C854.725 585.772 855.292 586.69 856.629 586.69C857.668 586.69 858.181 586.015 858.37 585.272L859.423 585.596C859.14 586.906 858.154 587.662 856.642 587.662C854.644 587.662 853.537 586.474 853.537 584.395ZM862.082 587.5V578.455H863.243V583.814H864.471L866.294 581.195H867.549V581.465L865.322 584.287L867.779 587.23V587.5H866.537L864.525 584.827H863.243V587.5H862.082ZM876.85 580.493V579.4H883.573V580.507C881.575 582.505 880.589 584.908 880.4 587.5H879.05C879.253 584.813 880.67 582.221 882.803 580.264C881.804 580.412 880.279 580.493 879.145 580.493H876.85Z" fill="#212525"/>
<path d="M365.5 203.5V245.5H183V278.5" stroke="#786823"/>
<path d="M491 204V246L674 246V279" stroke="#786823"/>
<path d="M183 300L185.887 295H180.113L183 300ZM182.5 277V295.5H183.5V277H182.5Z" fill="#786823"/>
<path d="M29 717.002L31.8868 712.002H26.1132L29 717.002ZM28.5 445L28.5 712.502H29.5L29.5 445H28.5Z" fill="#786823"/>
<path d="M397 624L399.887 619H394.113L397 624ZM396.5 445V619.5H397.5V445H396.5Z" fill="#786823"/>
<path d="M674 300L676.887 295H671.113L674 300ZM673.5 277V295.5H674.5V277H673.5Z" fill="#786823"/>
</svg>
