<svg width="1475" height="1188" viewBox="0 0 1475 1188" fill="none" xmlns="http://www.w3.org/2000/svg">
<rect width="1475" height="1188" fill="#E9E9E9"/>
<rect x="100.5" y="23.5" width="1275" height="940" fill="#212525" fill-opacity="0.05"/>
<rect x="100.5" y="23.5" width="1275" height="940" stroke="#212525"/>
<path d="M122.924 76V56.8H129.132C134.412 56.8 136.78 59.808 136.78 66.272C136.78 72.672 133.804 76 129.1 76H122.924ZM125.868 73.568H128.908C132.524 73.568 133.836 70.88 133.836 66.272C133.836 61.056 132.428 59.232 128.78 59.232H125.868V73.568ZM148.779 76.384C144.235 76.384 141.515 73.632 141.515 68.64C141.515 63.648 144.395 60.672 148.779 60.672C153.067 60.672 155.339 63.328 155.339 67.456C155.339 67.904 155.307 68.608 155.211 69.216H144.299C144.459 72.416 145.899 74.176 148.779 74.176C151.211 74.176 152.331 72.864 152.779 71.328L155.147 71.936C154.475 74.528 152.491 76.384 148.779 76.384ZM144.331 67.36H152.747C152.683 64.352 151.371 62.72 148.715 62.72C146.123 62.72 144.619 64.224 144.331 67.36ZM165.545 76L159.785 61.056H162.761L164.649 66.752C165.449 69.152 166.249 71.296 166.921 73.728H168.009C168.713 71.36 169.577 69.088 170.313 66.816L172.233 61.056H175.177L169.385 76H165.545ZM179.72 76V73.792H185.48V63.264H180.008V61.056H188.264V73.792H193.32V76H179.72ZM184.552 57.568V54.944H188.392V57.568H184.552ZM198.535 68.64C198.535 63.648 201.287 60.672 205.863 60.672C209.671 60.672 211.783 62.464 212.423 65.76L209.895 66.336C209.383 64.256 208.295 62.944 205.799 62.944C202.887 62.944 201.351 64.832 201.351 68.544C201.351 71.904 202.695 74.08 205.863 74.08C208.327 74.08 209.543 72.48 209.991 70.72L212.487 71.488C211.815 74.592 209.479 76.384 205.895 76.384C201.159 76.384 198.535 73.568 198.535 68.64ZM224.934 76.384C220.39 76.384 217.67 73.632 217.67 68.64C217.67 63.648 220.55 60.672 224.934 60.672C229.222 60.672 231.494 63.328 231.494 67.456C231.494 67.904 231.462 68.608 231.366 69.216H220.454C220.614 72.416 222.054 74.176 224.934 74.176C227.366 74.176 228.486 72.864 228.934 71.328L231.302 71.936C230.63 74.528 228.646 76.384 224.934 76.384ZM220.486 67.36H228.902C228.838 64.352 227.526 62.72 224.87 62.72C222.278 62.72 220.774 64.224 220.486 67.36Z" fill="#212525"/>
<rect x="234.5" y="106.5" width="1096" height="549" fill="#E6E6E6"/>
<rect x="234.5" y="106.5" width="1096" height="549" stroke="#212525"/>
<path d="M256.27 149V129.8H260.782L262.574 138.504C262.862 139.912 263.086 141.96 263.406 144.136H263.918C264.302 141.352 264.622 139.176 265.102 136.584L266.318 129.8H270.83V149H268.238V139.88C268.238 137.224 268.43 134.216 268.558 132.168H267.854C267.534 134.248 267.246 136.616 266.83 138.632L265.102 146.632H262.062L260.11 137.864C259.79 136.392 259.406 134.088 259.086 132.168H258.51C258.606 134.152 258.83 136.936 258.83 139.048V149H256.27ZM276.333 144.232V134.056H279.117V143.592C279.117 145.672 279.853 146.824 281.709 146.824C284.205 146.824 285.965 144.872 285.965 142.248V134.056H288.717V149H286.093V145.256H285.613C284.685 147.56 282.797 149.384 280.461 149.384C277.869 149.384 276.333 147.56 276.333 144.232ZM294.828 149V146.792H300.492V129.768H295.116V127.56H303.244V146.792H308.428V149H294.828ZM317.098 143.464V136.264H313.258V134.056H317.098V129.8H319.882V134.056H327.338V136.264H319.882V143.048C319.882 145.64 320.874 146.984 323.434 146.984C324.522 146.984 325.674 146.728 327.146 146.088L327.69 148.264C326.026 149 324.554 149.384 322.826 149.384C318.826 149.384 317.098 146.888 317.098 143.464ZM332.905 149V146.792H338.665V136.264H333.193V134.056H341.449V146.792H346.505V149H332.905ZM337.737 130.568V127.944H341.577V130.568H337.737ZM366.184 141.608C366.184 146.536 363.848 149.384 360.776 149.384C358.376 149.384 356.488 147.592 355.624 145.384H355.24V154.344H352.456V134.056H355.24V137.576H355.624C356.456 135.4 358.056 133.672 360.648 133.672C363.88 133.672 366.184 136.616 366.184 141.608ZM355.24 142.664C355.24 145.128 356.968 146.984 359.336 146.984C361.928 146.984 363.464 145.096 363.464 141.576C363.464 138.024 361.896 136.2 359.368 136.2C356.936 136.2 355.24 138.024 355.24 140.584V142.664ZM372.263 149V134.056H374.791V138.472L375.079 138.504C376.231 135.272 378.407 133.736 381.063 133.736C382.503 133.736 383.591 134.056 385.095 134.792L384.455 137.32C383.143 136.616 381.799 136.232 380.583 136.232C377.223 136.232 375.015 138.312 375.015 142.024V149H372.263ZM389.573 141.48C389.573 136.872 392.389 133.672 396.837 133.672C401.253 133.672 404.069 136.872 404.069 141.48C404.069 146.056 401.477 149.384 396.837 149.384C392.165 149.384 389.573 146.056 389.573 141.48ZM392.357 141.448C392.357 144.648 393.669 147.112 396.805 147.112C399.941 147.112 401.285 144.648 401.285 141.448C401.285 138.248 399.845 135.944 396.837 135.944C393.797 135.944 392.357 138.248 392.357 141.448ZM408.836 141.64C408.836 136.648 411.588 133.672 416.164 133.672C419.972 133.672 422.084 135.464 422.724 138.76L420.196 139.336C419.684 137.256 418.596 135.944 416.1 135.944C413.188 135.944 411.652 137.832 411.652 141.544C411.652 144.904 412.996 147.08 416.164 147.08C418.628 147.08 419.844 145.48 420.292 143.72L422.788 144.488C422.116 147.592 419.78 149.384 416.196 149.384C411.46 149.384 408.836 146.568 408.836 141.64ZM435.235 149.384C430.691 149.384 427.971 146.632 427.971 141.64C427.971 136.648 430.851 133.672 435.235 133.672C439.523 133.672 441.795 136.328 441.795 140.456C441.795 140.904 441.763 141.608 441.667 142.216H430.755C430.915 145.416 432.355 147.176 435.235 147.176C437.667 147.176 438.787 145.864 439.235 144.328L441.603 144.936C440.931 147.528 438.947 149.384 435.235 149.384ZM430.787 140.36H439.203C439.139 137.352 437.827 135.72 435.171 135.72C432.579 135.72 431.075 137.224 430.787 140.36ZM454.177 149.384C449.857 149.384 447.745 147.528 447.105 144.776L449.665 144.264C450.177 146.088 451.521 147.336 454.21 147.336C456.45 147.336 457.889 146.632 457.889 145.096C457.889 143.432 456.066 142.92 453.698 142.536C450.465 142.024 447.905 141.096 447.905 138.088C447.905 135.528 449.921 133.672 454.017 133.672C458.082 133.672 459.49 135.4 460.13 137.736L457.601 138.216C457.122 136.296 455.938 135.688 453.922 135.688C451.681 135.688 450.593 136.488 450.593 137.864C450.593 139.528 452.321 139.976 454.561 140.36C458.177 140.936 460.674 141.768 460.674 144.936C460.674 147.464 458.658 149.384 454.177 149.384ZM473.216 149.384C468.896 149.384 466.784 147.528 466.144 144.776L468.704 144.264C469.216 146.088 470.56 147.336 473.248 147.336C475.488 147.336 476.928 146.632 476.928 145.096C476.928 143.432 475.104 142.92 472.736 142.536C469.504 142.024 466.944 141.096 466.944 138.088C466.944 135.528 468.96 133.672 473.056 133.672C477.12 133.672 478.528 135.4 479.168 137.736L476.64 138.216C476.16 136.296 474.976 135.688 472.96 135.688C470.72 135.688 469.632 136.488 469.632 137.864C469.632 139.528 471.36 139.976 473.6 140.36C477.216 140.936 479.712 141.768 479.712 144.936C479.712 147.464 477.696 149.384 473.216 149.384ZM484.767 141.48C484.767 136.872 487.583 133.672 492.031 133.672C496.447 133.672 499.263 136.872 499.263 141.48C499.263 146.056 496.671 149.384 492.031 149.384C487.359 149.384 484.767 146.056 484.767 141.48ZM487.551 141.448C487.551 144.648 488.863 147.112 491.999 147.112C495.135 147.112 496.479 144.648 496.479 141.448C496.479 138.248 495.039 135.944 492.031 135.944C488.991 135.944 487.551 138.248 487.551 141.448ZM505.534 149V134.056H508.062V138.472L508.35 138.504C509.502 135.272 511.678 133.736 514.334 133.736C515.774 133.736 516.862 134.056 518.366 134.792L517.726 137.32C516.414 136.616 515.07 136.232 513.854 136.232C510.494 136.232 508.286 138.312 508.286 142.024V149H505.534ZM542.555 149V129.8H546.523L550.235 138.12C551.387 140.84 552.443 144.232 552.923 146.44L553.595 146.376C553.275 143.336 552.955 138.472 552.955 135.016V129.8H555.707V149H551.803L547.739 139.464C546.875 137.352 546.043 134.568 545.403 132.232L544.763 132.296C545.019 135.464 545.307 140.488 545.307 143.88V149H542.555Z" fill="#212525"/>
<rect x="177.5" y="194.5" width="1120" height="566" fill="#E6E6E6"/>
<rect x="177.5" y="194.5" width="1120" height="566" stroke="#212525"/>
<path d="M199.27 247V227.8H203.782L205.574 236.504C205.862 237.912 206.086 239.96 206.406 242.136H206.918C207.302 239.352 207.622 237.176 208.102 234.584L209.318 227.8H213.83V247H211.238V237.88C211.238 235.224 211.43 232.216 211.558 230.168H210.854C210.534 232.248 210.246 234.616 209.83 236.632L208.102 244.632H205.062L203.11 235.864C202.79 234.392 202.406 232.088 202.086 230.168H201.51C201.606 232.152 201.83 234.936 201.83 237.048V247H199.27ZM219.333 242.232V232.056H222.117V241.592C222.117 243.672 222.853 244.824 224.709 244.824C227.205 244.824 228.965 242.872 228.965 240.248V232.056H231.717V247H229.093V243.256H228.613C227.685 245.56 225.797 247.384 223.461 247.384C220.869 247.384 219.333 245.56 219.333 242.232ZM237.828 247V244.792H243.492V227.768H238.116V225.56H246.244V244.792H251.428V247H237.828ZM260.098 241.464V234.264H256.258V232.056H260.098V227.8H262.882V232.056H270.338V234.264H262.882V241.048C262.882 243.64 263.874 244.984 266.434 244.984C267.522 244.984 268.674 244.728 270.146 244.088L270.69 246.264C269.026 247 267.554 247.384 265.826 247.384C261.826 247.384 260.098 244.888 260.098 241.464ZM275.905 247V244.792H281.665V234.264H276.193V232.056H284.449V244.792H289.505V247H275.905ZM280.737 228.568V225.944H284.577V228.568H280.737ZM309.184 239.608C309.184 244.536 306.848 247.384 303.776 247.384C301.376 247.384 299.488 245.592 298.624 243.384H298.24V252.344H295.456V232.056H298.24V235.576H298.624C299.456 233.4 301.056 231.672 303.648 231.672C306.88 231.672 309.184 234.616 309.184 239.608ZM298.24 240.664C298.24 243.128 299.968 244.984 302.336 244.984C304.928 244.984 306.464 243.096 306.464 239.576C306.464 236.024 304.896 234.2 302.368 234.2C299.936 234.2 298.24 236.024 298.24 238.584V240.664ZM315.263 247V232.056H317.791V236.472L318.079 236.504C319.231 233.272 321.407 231.736 324.063 231.736C325.503 231.736 326.591 232.056 328.095 232.792L327.455 235.32C326.143 234.616 324.799 234.232 323.583 234.232C320.223 234.232 318.015 236.312 318.015 240.024V247H315.263ZM332.573 239.48C332.573 234.872 335.389 231.672 339.837 231.672C344.253 231.672 347.069 234.872 347.069 239.48C347.069 244.056 344.477 247.384 339.837 247.384C335.165 247.384 332.573 244.056 332.573 239.48ZM335.357 239.448C335.357 242.648 336.669 245.112 339.805 245.112C342.941 245.112 344.285 242.648 344.285 239.448C344.285 236.248 342.845 233.944 339.837 233.944C336.797 233.944 335.357 236.248 335.357 239.448ZM351.836 239.64C351.836 234.648 354.588 231.672 359.164 231.672C362.972 231.672 365.084 233.464 365.724 236.76L363.196 237.336C362.684 235.256 361.596 233.944 359.1 233.944C356.188 233.944 354.652 235.832 354.652 239.544C354.652 242.904 355.996 245.08 359.164 245.08C361.628 245.08 362.844 243.48 363.292 241.72L365.788 242.488C365.116 245.592 362.78 247.384 359.196 247.384C354.46 247.384 351.836 244.568 351.836 239.64ZM378.235 247.384C373.691 247.384 370.971 244.632 370.971 239.64C370.971 234.648 373.851 231.672 378.235 231.672C382.523 231.672 384.795 234.328 384.795 238.456C384.795 238.904 384.763 239.608 384.667 240.216H373.755C373.915 243.416 375.355 245.176 378.235 245.176C380.667 245.176 381.787 243.864 382.235 242.328L384.603 242.936C383.931 245.528 381.947 247.384 378.235 247.384ZM373.787 238.36H382.203C382.139 235.352 380.827 233.72 378.171 233.72C375.579 233.72 374.075 235.224 373.787 238.36ZM397.177 247.384C392.857 247.384 390.745 245.528 390.105 242.776L392.665 242.264C393.177 244.088 394.521 245.336 397.21 245.336C399.45 245.336 400.889 244.632 400.889 243.096C400.889 241.432 399.066 240.92 396.698 240.536C393.465 240.024 390.905 239.096 390.905 236.088C390.905 233.528 392.921 231.672 397.017 231.672C401.082 231.672 402.49 233.4 403.13 235.736L400.601 236.216C400.122 234.296 398.938 233.688 396.922 233.688C394.681 233.688 393.593 234.488 393.593 235.864C393.593 237.528 395.321 237.976 397.561 238.36C401.177 238.936 403.674 239.768 403.674 242.936C403.674 245.464 401.658 247.384 397.177 247.384ZM416.216 247.384C411.896 247.384 409.784 245.528 409.144 242.776L411.704 242.264C412.216 244.088 413.56 245.336 416.248 245.336C418.488 245.336 419.928 244.632 419.928 243.096C419.928 241.432 418.104 240.92 415.736 240.536C412.504 240.024 409.944 239.096 409.944 236.088C409.944 233.528 411.96 231.672 416.056 231.672C420.12 231.672 421.528 233.4 422.168 235.736L419.64 236.216C419.16 234.296 417.976 233.688 415.96 233.688C413.72 233.688 412.632 234.488 412.632 235.864C412.632 237.528 414.36 237.976 416.6 238.36C420.216 238.936 422.712 239.768 422.712 242.936C422.712 245.464 420.696 247.384 416.216 247.384ZM427.767 239.48C427.767 234.872 430.583 231.672 435.031 231.672C439.447 231.672 442.263 234.872 442.263 239.48C442.263 244.056 439.671 247.384 435.031 247.384C430.359 247.384 427.767 244.056 427.767 239.48ZM430.551 239.448C430.551 242.648 431.863 245.112 434.999 245.112C438.135 245.112 439.479 242.648 439.479 239.448C439.479 236.248 438.039 233.944 435.031 233.944C431.991 233.944 430.551 236.248 430.551 239.448ZM448.534 247V232.056H451.062V236.472L451.35 236.504C452.502 233.272 454.678 231.736 457.334 231.736C458.774 231.736 459.862 232.056 461.366 232.792L460.726 235.32C459.414 234.616 458.07 234.232 456.854 234.232C453.494 234.232 451.286 236.312 451.286 240.024V247H448.534ZM485.107 247C485.075 246.456 485.075 245.88 485.075 245.304C485.075 241.048 486.739 239.416 490.579 238.008C494.899 236.536 496.019 235.288 496.019 233.048C496.019 231.096 495.027 229.72 492.659 229.72C490.003 229.72 488.851 231.48 488.435 234.168L485.715 233.688C486.355 229.944 488.467 227.448 492.627 227.448C496.627 227.448 498.835 229.496 498.835 233.24C498.835 236.92 495.955 238.552 492.275 239.768C488.403 241.112 487.315 242.136 487.219 245.112C489.107 244.824 492.115 244.6 494.163 244.6H499.027V247H485.107Z" fill="#212525"/>
<rect x="146.5" y="292.5" width="1113" height="634" fill="#E6E6E6"/>
<rect x="146.5" y="292.5" width="1113" height="634" stroke="#212525"/>
<path d="M168.27 345V325.8H172.782L174.574 334.504C174.862 335.912 175.086 337.96 175.406 340.136H175.918C176.302 337.352 176.622 335.176 177.102 332.584L178.318 325.8H182.83V345H180.238V335.88C180.238 333.224 180.43 330.216 180.558 328.168H179.854C179.534 330.248 179.246 332.616 178.83 334.632L177.102 342.632H174.062L172.11 333.864C171.79 332.392 171.406 330.088 171.086 328.168H170.51C170.606 330.152 170.83 332.936 170.83 335.048V345H168.27ZM188.333 340.232V330.056H191.117V339.592C191.117 341.672 191.853 342.824 193.709 342.824C196.205 342.824 197.965 340.872 197.965 338.248V330.056H200.717V345H198.093V341.256H197.613C196.685 343.56 194.797 345.384 192.461 345.384C189.869 345.384 188.333 343.56 188.333 340.232ZM206.828 345V342.792H212.492V325.768H207.116V323.56H215.244V342.792H220.428V345H206.828ZM229.098 339.464V332.264H225.258V330.056H229.098V325.8H231.882V330.056H239.338V332.264H231.882V339.048C231.882 341.64 232.874 342.984 235.434 342.984C236.522 342.984 237.674 342.728 239.146 342.088L239.69 344.264C238.026 345 236.554 345.384 234.826 345.384C230.826 345.384 229.098 342.888 229.098 339.464ZM244.905 345V342.792H250.665V332.264H245.193V330.056H253.449V342.792H258.505V345H244.905ZM249.737 326.568V323.944H253.577V326.568H249.737ZM278.184 337.608C278.184 342.536 275.848 345.384 272.776 345.384C270.376 345.384 268.488 343.592 267.624 341.384H267.24V350.344H264.456V330.056H267.24V333.576H267.624C268.456 331.4 270.056 329.672 272.648 329.672C275.88 329.672 278.184 332.616 278.184 337.608ZM267.24 338.664C267.24 341.128 268.968 342.984 271.336 342.984C273.928 342.984 275.464 341.096 275.464 337.576C275.464 334.024 273.896 332.2 271.368 332.2C268.936 332.2 267.24 334.024 267.24 336.584V338.664ZM284.263 345V330.056H286.791V334.472L287.079 334.504C288.231 331.272 290.407 329.736 293.063 329.736C294.503 329.736 295.591 330.056 297.095 330.792L296.455 333.32C295.143 332.616 293.799 332.232 292.583 332.232C289.223 332.232 287.015 334.312 287.015 338.024V345H284.263ZM301.573 337.48C301.573 332.872 304.389 329.672 308.837 329.672C313.253 329.672 316.069 332.872 316.069 337.48C316.069 342.056 313.477 345.384 308.837 345.384C304.165 345.384 301.573 342.056 301.573 337.48ZM304.357 337.448C304.357 340.648 305.669 343.112 308.805 343.112C311.941 343.112 313.285 340.648 313.285 337.448C313.285 334.248 311.845 331.944 308.837 331.944C305.797 331.944 304.357 334.248 304.357 337.448ZM320.836 337.64C320.836 332.648 323.588 329.672 328.164 329.672C331.972 329.672 334.084 331.464 334.724 334.76L332.196 335.336C331.684 333.256 330.596 331.944 328.1 331.944C325.188 331.944 323.652 333.832 323.652 337.544C323.652 340.904 324.996 343.08 328.164 343.08C330.628 343.08 331.844 341.48 332.292 339.72L334.788 340.488C334.116 343.592 331.78 345.384 328.196 345.384C323.46 345.384 320.836 342.568 320.836 337.64ZM347.235 345.384C342.691 345.384 339.971 342.632 339.971 337.64C339.971 332.648 342.851 329.672 347.235 329.672C351.523 329.672 353.795 332.328 353.795 336.456C353.795 336.904 353.763 337.608 353.667 338.216H342.755C342.915 341.416 344.355 343.176 347.235 343.176C349.667 343.176 350.787 341.864 351.235 340.328L353.603 340.936C352.931 343.528 350.947 345.384 347.235 345.384ZM342.787 336.36H351.203C351.139 333.352 349.827 331.72 347.171 331.72C344.579 331.72 343.075 333.224 342.787 336.36ZM366.177 345.384C361.857 345.384 359.745 343.528 359.105 340.776L361.665 340.264C362.177 342.088 363.521 343.336 366.21 343.336C368.45 343.336 369.889 342.632 369.889 341.096C369.889 339.432 368.066 338.92 365.698 338.536C362.465 338.024 359.905 337.096 359.905 334.088C359.905 331.528 361.921 329.672 366.017 329.672C370.082 329.672 371.49 331.4 372.13 333.736L369.601 334.216C369.122 332.296 367.938 331.688 365.922 331.688C363.681 331.688 362.593 332.488 362.593 333.864C362.593 335.528 364.321 335.976 366.561 336.36C370.177 336.936 372.674 337.768 372.674 340.936C372.674 343.464 370.658 345.384 366.177 345.384ZM385.216 345.384C380.896 345.384 378.784 343.528 378.144 340.776L380.704 340.264C381.216 342.088 382.56 343.336 385.248 343.336C387.488 343.336 388.928 342.632 388.928 341.096C388.928 339.432 387.104 338.92 384.736 338.536C381.504 338.024 378.944 337.096 378.944 334.088C378.944 331.528 380.96 329.672 385.056 329.672C389.12 329.672 390.528 331.4 391.168 333.736L388.64 334.216C388.16 332.296 386.976 331.688 384.96 331.688C382.72 331.688 381.632 332.488 381.632 333.864C381.632 335.528 383.36 335.976 385.6 336.36C389.216 336.936 391.712 337.768 391.712 340.936C391.712 343.464 389.696 345.384 385.216 345.384ZM396.767 337.48C396.767 332.872 399.583 329.672 404.031 329.672C408.447 329.672 411.263 332.872 411.263 337.48C411.263 342.056 408.671 345.384 404.031 345.384C399.359 345.384 396.767 342.056 396.767 337.48ZM399.551 337.448C399.551 340.648 400.863 343.112 403.999 343.112C407.135 343.112 408.479 340.648 408.479 337.448C408.479 334.248 407.039 331.944 404.031 331.944C400.991 331.944 399.551 334.248 399.551 337.448ZM417.534 345V330.056H420.062V334.472L420.35 334.504C421.502 331.272 423.678 329.736 426.334 329.736C427.774 329.736 428.862 330.056 430.366 330.792L429.726 333.32C428.414 332.616 427.07 332.232 425.854 332.232C422.494 332.232 420.286 334.312 420.286 338.024V345H417.534ZM454.267 328.2L461.691 325.8H463.291V342.6H467.931V345H454.683V342.6H460.475V328.136C458.907 329.064 457.115 329.928 455.195 330.6L454.267 328.2Z" fill="#212525"/>
<rect x="402" y="578" width="626" height="32" fill="#212525" fill-opacity="0.15"/>
<rect x="187.5" y="381.5" width="809" height="59" fill="#1342FF" fill-opacity="0.2"/>
<rect x="187.5" y="381.5" width="809" height="59" stroke="#1342FF"/>
<path d="M487.068 415.24L489.532 414.68C489.924 416.864 491.408 418.348 493.956 418.348C496.42 418.348 497.484 417.116 497.484 415.66C497.484 413.728 495.972 413.14 493.424 412.608C490.148 411.964 487.88 410.844 487.88 407.512C487.88 404.852 489.924 402.864 493.816 402.864C497.456 402.864 499.164 404.964 499.64 407.344L497.148 407.792C496.756 406.168 495.804 404.824 493.676 404.824C491.548 404.824 490.4 405.86 490.4 407.316C490.4 409.36 492.052 409.92 494.432 410.508C498.156 411.32 500.088 412.468 500.088 415.464C500.088 418.152 498.24 420.336 493.928 420.336C489.672 420.336 487.488 418.152 487.068 415.24ZM504.707 420V401.24H507.143V410.172H507.451C508.319 408.212 509.803 406.588 512.043 406.588C514.227 406.588 515.571 408.184 515.571 411.096V420H513.135V411.656C513.135 409.836 512.407 408.8 510.923 408.8C508.655 408.8 507.143 410.536 507.143 412.804V420H504.707ZM524.418 420.28C522.01 420.28 520.302 418.936 520.302 416.584C520.302 414.4 521.786 412.832 525.062 412.832H529.346V411.432C529.346 409.808 528.506 408.548 526.462 408.548C524.698 408.548 523.634 409.5 523.13 410.732L520.918 409.948C521.618 408.072 523.606 406.588 526.518 406.588C530.074 406.588 531.782 408.464 531.782 411.404V420H529.598V417.06H529.15C528.394 418.908 526.798 420.28 524.418 420.28ZM529.346 414.316H525.538C523.662 414.316 522.57 415.072 522.57 416.444C522.57 417.48 523.438 418.404 525.314 418.404C527.694 418.404 529.346 417.004 529.346 415.128V414.316ZM537.997 420V406.924H540.209V410.788L540.461 410.816C541.469 407.988 543.373 406.644 545.697 406.644C546.957 406.644 547.909 406.924 549.225 407.568L548.665 409.78C547.517 409.164 546.341 408.828 545.277 408.828C542.337 408.828 540.405 410.648 540.405 413.896V420H537.997ZM559.5 420.336C555.524 420.336 553.144 417.928 553.144 413.56C553.144 409.192 555.664 406.588 559.5 406.588C563.252 406.588 565.24 408.912 565.24 412.524C565.24 412.916 565.212 413.532 565.128 414.064H555.58C555.72 416.864 556.98 418.404 559.5 418.404C561.628 418.404 562.608 417.256 563 415.912L565.072 416.444C564.484 418.712 562.748 420.336 559.5 420.336ZM555.608 412.44H562.972C562.916 409.808 561.768 408.38 559.444 408.38C557.176 408.38 555.86 409.696 555.608 412.44ZM569.075 413.532C569.075 409.164 571.063 406.588 573.975 406.588C576.187 406.588 577.587 408.1 578.315 410.004H578.651V401.24H581.087V420H578.651V416.836H578.315C577.531 418.768 575.907 420.336 573.863 420.336C571.119 420.336 569.075 417.844 569.075 413.532ZM578.651 414.456V412.636C578.651 410.396 577.139 408.8 575.095 408.8C572.827 408.8 571.455 410.424 571.455 413.504C571.455 416.556 572.799 418.236 575.095 418.236C577.111 418.236 578.651 416.612 578.651 414.456ZM601.972 420V403.2H605.92L607.488 410.816C607.74 412.048 607.936 413.84 608.216 415.744H608.664C609 413.308 609.28 411.404 609.7 409.136L610.764 403.2H614.712V420H612.444V412.02C612.444 409.696 612.612 407.064 612.724 405.272H612.108C611.828 407.092 611.576 409.164 611.212 410.928L609.7 417.928H607.04L605.332 410.256C605.052 408.968 604.716 406.952 604.436 405.272H603.932C604.016 407.008 604.212 409.444 604.212 411.292V420H601.972ZM625.015 420.336C621.039 420.336 618.659 417.928 618.659 413.56C618.659 409.192 621.179 406.588 625.015 406.588C628.767 406.588 630.755 408.912 630.755 412.524C630.755 412.916 630.727 413.532 630.643 414.064H621.095C621.235 416.864 622.495 418.404 625.015 418.404C627.143 418.404 628.123 417.256 628.515 415.912L630.587 416.444C629.999 418.712 628.263 420.336 625.015 420.336ZM621.123 412.44H628.487C628.431 409.808 627.283 408.38 624.959 408.38C622.691 408.38 621.375 409.696 621.123 412.44ZM634.982 420V406.924H636.914V408.94H637.194C637.614 407.512 638.538 406.644 639.77 406.644C641.03 406.644 641.758 407.428 641.954 408.94H642.262C642.71 407.596 643.578 406.644 644.838 406.644C646.378 406.644 647.33 407.792 647.33 409.752V420H645.23V410.424C645.23 409.444 644.754 408.772 643.886 408.772C642.822 408.772 642.206 409.556 642.206 411.152V420H640.134V410.424C640.134 409.36 639.63 408.772 638.762 408.772C637.81 408.772 637.082 409.612 637.082 411.012V420H634.982ZM651.137 413.42C651.137 409.388 653.601 406.588 657.493 406.588C661.357 406.588 663.821 409.388 663.821 413.42C663.821 417.424 661.553 420.336 657.493 420.336C653.405 420.336 651.137 417.424 651.137 413.42ZM653.573 413.392C653.573 416.192 654.721 418.348 657.465 418.348C660.209 418.348 661.385 416.192 661.385 413.392C661.385 410.592 660.125 408.576 657.493 408.576C654.833 408.576 653.573 410.592 653.573 413.392ZM669.028 420V406.924H671.24V410.788L671.492 410.816C672.5 407.988 674.404 406.644 676.728 406.644C677.988 406.644 678.94 406.924 680.256 407.568L679.696 409.78C678.548 409.164 677.372 408.828 676.308 408.828C673.368 408.828 671.436 410.648 671.436 413.896V420H669.028ZM683.279 424.76L683.671 422.632C684.259 422.744 684.819 422.8 685.379 422.8C687.031 422.8 687.983 422.352 689.159 419.944L683.307 406.924H686.023L687.731 411.628C688.403 413.532 689.383 416.024 690.083 418.124H690.783C691.483 415.968 692.379 413.42 693.023 411.628L694.619 406.924H697.223L691.343 420.168C689.859 423.472 688.235 424.928 685.351 424.928C684.483 424.928 683.839 424.844 683.279 424.76Z" fill="#1342FF"/>
<rect x="187.5" y="696.5" width="1045" height="99" fill="#1342FF" fill-opacity="0.2"/>
<rect x="187.5" y="696.5" width="1045" height="99" stroke="#1342FF"/>
<path d="M1093.7 726.572C1093.7 720.944 1096.06 717.864 1100.31 717.864C1103.81 717.864 1105.77 719.824 1106.25 723.492L1103.84 724.052C1103.34 721.28 1102.36 720.076 1100.26 720.076C1097.29 720.076 1096.28 722.54 1096.28 726.572C1096.28 730.828 1097.32 733.18 1100.2 733.18C1102.52 733.18 1103.45 731.92 1103.98 729.092L1106.39 729.624C1105.86 733.376 1103.92 735.336 1100.2 735.336C1095.86 735.336 1093.7 732.228 1093.7 726.572ZM1110.2 728.42C1110.2 724.388 1112.66 721.588 1116.55 721.588C1120.42 721.588 1122.88 724.388 1122.88 728.42C1122.88 732.424 1120.61 735.336 1116.55 735.336C1112.46 735.336 1110.2 732.424 1110.2 728.42ZM1112.63 728.392C1112.63 731.192 1113.78 733.348 1116.52 733.348C1119.27 733.348 1120.44 731.192 1120.44 728.392C1120.44 725.592 1119.18 723.576 1116.55 723.576C1113.89 723.576 1112.63 725.592 1112.63 728.392ZM1127.55 735V721.924H1129.85V725.172H1130.27C1131.08 723.184 1132.73 721.588 1134.81 721.588C1137.07 721.588 1138.42 723.184 1138.42 726.096V735H1135.98V726.656C1135.98 724.836 1135.37 723.8 1133.71 723.8C1131.53 723.8 1129.99 725.536 1129.99 727.804V735H1127.55ZM1149.51 735.336C1145.73 735.336 1143.88 733.712 1143.32 731.304L1145.56 730.856C1146.01 732.452 1147.18 733.544 1149.53 733.544C1151.49 733.544 1152.75 732.928 1152.75 731.584C1152.75 730.128 1151.16 729.68 1149.09 729.344C1146.26 728.896 1144.02 728.084 1144.02 725.452C1144.02 723.212 1145.78 721.588 1149.37 721.588C1152.92 721.588 1154.15 723.1 1154.71 725.144L1152.5 725.564C1152.08 723.884 1151.05 723.352 1149.28 723.352C1147.32 723.352 1146.37 724.052 1146.37 725.256C1146.37 726.712 1147.88 727.104 1149.84 727.44C1153.01 727.944 1155.19 728.672 1155.19 731.444C1155.19 733.656 1153.43 735.336 1149.51 735.336ZM1162.55 730.156V723.856H1159.19V721.924H1162.55V718.2H1164.99V721.924H1171.51V723.856H1164.99V729.792C1164.99 732.06 1165.86 733.236 1168.1 733.236C1169.05 733.236 1170.06 733.012 1171.34 732.452L1171.82 734.356C1170.36 735 1169.08 735.336 1167.56 735.336C1164.06 735.336 1162.55 733.152 1162.55 730.156ZM1180.02 735.28C1177.62 735.28 1175.91 733.936 1175.91 731.584C1175.91 729.4 1177.39 727.832 1180.67 727.832H1184.95V726.432C1184.95 724.808 1184.11 723.548 1182.07 723.548C1180.3 723.548 1179.24 724.5 1178.74 725.732L1176.52 724.948C1177.22 723.072 1179.21 721.588 1182.12 721.588C1185.68 721.588 1187.39 723.464 1187.39 726.404V735H1185.2V732.06H1184.76C1184 733.908 1182.4 735.28 1180.02 735.28ZM1184.95 729.316H1181.14C1179.27 729.316 1178.18 730.072 1178.18 731.444C1178.18 732.48 1179.04 733.404 1180.92 733.404C1183.3 733.404 1184.95 732.004 1184.95 730.128V729.316ZM1193.07 735V721.924H1195.37V725.172H1195.79C1196.6 723.184 1198.25 721.588 1200.32 721.588C1202.59 721.588 1203.93 723.184 1203.93 726.096V735H1201.5V726.656C1201.5 724.836 1200.88 723.8 1199.23 723.8C1197.05 723.8 1195.51 725.536 1195.51 727.804V735H1193.07ZM1211.69 730.156V723.856H1208.33V721.924H1211.69V718.2H1214.13V721.924H1220.65V723.856H1214.13V729.792C1214.13 732.06 1214.99 733.236 1217.23 733.236C1218.19 733.236 1219.19 733.012 1220.48 732.452L1220.96 734.356C1219.5 735 1218.21 735.336 1216.7 735.336C1213.2 735.336 1211.69 733.152 1211.69 730.156ZM1142.84 766.572C1142.84 760.944 1145.19 757.864 1149.45 757.864C1152.95 757.864 1154.91 759.824 1155.39 763.492L1152.98 764.052C1152.47 761.28 1151.49 760.076 1149.39 760.076C1146.43 760.076 1145.42 762.54 1145.42 766.572C1145.42 770.828 1146.45 773.18 1149.34 773.18C1151.66 773.18 1152.59 771.92 1153.12 769.092L1155.53 769.624C1154.99 773.376 1153.06 775.336 1149.34 775.336C1145 775.336 1142.84 772.228 1142.84 766.572ZM1163.64 775.28C1161.24 775.28 1159.53 773.936 1159.53 771.584C1159.53 769.4 1161.01 767.832 1164.29 767.832H1168.57V766.432C1168.57 764.808 1167.73 763.548 1165.69 763.548C1163.92 763.548 1162.86 764.5 1162.36 765.732L1160.14 764.948C1160.84 763.072 1162.83 761.588 1165.74 761.588C1169.3 761.588 1171.01 763.464 1171.01 766.404V775H1168.82V772.06H1168.38C1167.62 773.908 1166.02 775.28 1163.64 775.28ZM1168.57 769.316H1164.76C1162.89 769.316 1161.8 770.072 1161.8 771.444C1161.8 772.48 1162.66 773.404 1164.54 773.404C1166.92 773.404 1168.57 772.004 1168.57 770.128V769.316ZM1175.91 768.56C1175.91 764.192 1178.32 761.588 1182.32 761.588C1185.65 761.588 1187.5 763.156 1188.06 766.04L1185.85 766.544C1185.4 764.724 1184.45 763.576 1182.26 763.576C1179.72 763.576 1178.37 765.228 1178.37 768.476C1178.37 771.416 1179.55 773.32 1182.32 773.32C1184.48 773.32 1185.54 771.92 1185.93 770.38L1188.12 771.052C1187.53 773.768 1185.48 775.336 1182.35 775.336C1178.2 775.336 1175.91 772.872 1175.91 768.56ZM1193.07 775V756.24H1195.51V765.172H1195.81C1196.68 763.212 1198.17 761.588 1200.41 761.588C1202.59 761.588 1203.93 763.184 1203.93 766.096V775H1201.5V766.656C1201.5 764.836 1200.77 763.8 1199.29 763.8C1197.02 763.8 1195.51 765.536 1195.51 767.804V775H1193.07ZM1215.11 775.336C1211.13 775.336 1208.75 772.928 1208.75 768.56C1208.75 764.192 1211.27 761.588 1215.11 761.588C1218.86 761.588 1220.85 763.912 1220.85 767.524C1220.85 767.916 1220.82 768.532 1220.73 769.064H1211.19C1211.33 771.864 1212.59 773.404 1215.11 773.404C1217.23 773.404 1218.21 772.256 1218.61 770.912L1220.68 771.444C1220.09 773.712 1218.35 775.336 1215.11 775.336ZM1211.21 767.44H1218.58C1218.52 764.808 1217.37 763.38 1215.05 763.38C1212.78 763.38 1211.47 764.696 1211.21 767.44Z" fill="#1342FF"/>
<rect x="187.5" y="807.5" width="1045" height="99" fill="#1342FF" fill-opacity="0.2"/>
<rect x="187.5" y="807.5" width="1045" height="99" stroke="#1342FF"/>
<path d="M1115.26 846V831.412H1109.92V829.2H1123.13V831.412H1117.81V846H1115.26ZM1133.21 846.336C1129.23 846.336 1126.85 843.928 1126.85 839.56C1126.85 835.192 1129.37 832.588 1133.21 832.588C1136.96 832.588 1138.95 834.912 1138.95 838.524C1138.95 838.916 1138.92 839.532 1138.84 840.064H1129.29C1129.43 842.864 1130.69 844.404 1133.21 844.404C1135.34 844.404 1136.32 843.256 1136.71 841.912L1138.78 842.444C1138.19 844.712 1136.46 846.336 1133.21 846.336ZM1129.32 838.44H1136.68C1136.63 835.808 1135.48 834.38 1133.15 834.38C1130.89 834.38 1129.57 835.696 1129.32 838.44ZM1143.04 833.484V832.924H1145.61L1148.95 838.3H1149.9L1153.01 832.924H1155.41V833.484L1151.16 839.504L1155.5 845.44V846H1152.92L1149.65 840.344H1148.67L1145.53 846H1143.07V845.44L1147.41 839.196L1143.04 833.484ZM1162.55 841.156V834.856H1159.19V832.924H1162.55V829.2H1164.99V832.924H1171.51V834.856H1164.99V840.792C1164.99 843.06 1165.86 844.236 1168.1 844.236C1169.05 844.236 1170.06 844.012 1171.34 843.452L1171.82 845.356C1170.36 846 1169.08 846.336 1167.56 846.336C1164.06 846.336 1162.55 844.152 1162.55 841.156ZM1176.58 841.828V832.924H1179.02V841.268C1179.02 843.088 1179.66 844.096 1181.28 844.096C1183.47 844.096 1185.01 842.388 1185.01 840.092V832.924H1187.42V846H1185.12V842.724H1184.7C1183.89 844.74 1182.24 846.336 1180.19 846.336C1177.92 846.336 1176.58 844.74 1176.58 841.828ZM1193.6 846V832.924H1195.81V836.788L1196.07 836.816C1197.07 833.988 1198.98 832.644 1201.3 832.644C1202.56 832.644 1203.51 832.924 1204.83 833.568L1204.27 835.78C1203.12 835.164 1201.95 834.828 1200.88 834.828C1197.94 834.828 1196.01 836.648 1196.01 839.896V846H1193.6ZM1215.11 846.336C1211.13 846.336 1208.75 843.928 1208.75 839.56C1208.75 835.192 1211.27 832.588 1215.11 832.588C1218.86 832.588 1220.85 834.912 1220.85 838.524C1220.85 838.916 1220.82 839.532 1220.73 840.064H1211.19C1211.33 842.864 1212.59 844.404 1215.11 844.404C1217.23 844.404 1218.21 843.256 1218.61 841.912L1220.68 842.444C1220.09 844.712 1218.35 846.336 1215.11 846.336ZM1211.21 838.44H1218.58C1218.52 835.808 1217.37 834.38 1215.05 834.38C1212.78 834.38 1211.47 835.696 1211.21 838.44ZM1142.84 877.572C1142.84 871.944 1145.19 868.864 1149.45 868.864C1152.95 868.864 1154.91 870.824 1155.39 874.492L1152.98 875.052C1152.47 872.28 1151.49 871.076 1149.39 871.076C1146.43 871.076 1145.42 873.54 1145.42 877.572C1145.42 881.828 1146.45 884.18 1149.34 884.18C1151.66 884.18 1152.59 882.92 1153.12 880.092L1155.53 880.624C1154.99 884.376 1153.06 886.336 1149.34 886.336C1145 886.336 1142.84 883.228 1142.84 877.572ZM1163.64 886.28C1161.24 886.28 1159.53 884.936 1159.53 882.584C1159.53 880.4 1161.01 878.832 1164.29 878.832H1168.57V877.432C1168.57 875.808 1167.73 874.548 1165.69 874.548C1163.92 874.548 1162.86 875.5 1162.36 876.732L1160.14 875.948C1160.84 874.072 1162.83 872.588 1165.74 872.588C1169.3 872.588 1171.01 874.464 1171.01 877.404V886H1168.82V883.06H1168.38C1167.62 884.908 1166.02 886.28 1163.64 886.28ZM1168.57 880.316H1164.76C1162.89 880.316 1161.8 881.072 1161.8 882.444C1161.8 883.48 1162.66 884.404 1164.54 884.404C1166.92 884.404 1168.57 883.004 1168.57 881.128V880.316ZM1175.91 879.56C1175.91 875.192 1178.32 872.588 1182.32 872.588C1185.65 872.588 1187.5 874.156 1188.06 877.04L1185.85 877.544C1185.4 875.724 1184.45 874.576 1182.26 874.576C1179.72 874.576 1178.37 876.228 1178.37 879.476C1178.37 882.416 1179.55 884.32 1182.32 884.32C1184.48 884.32 1185.54 882.92 1185.93 881.38L1188.12 882.052C1187.53 884.768 1185.48 886.336 1182.35 886.336C1178.2 886.336 1175.91 883.872 1175.91 879.56ZM1193.07 886V867.24H1195.51V876.172H1195.81C1196.68 874.212 1198.17 872.588 1200.41 872.588C1202.59 872.588 1203.93 874.184 1203.93 877.096V886H1201.5V877.656C1201.5 875.836 1200.77 874.8 1199.29 874.8C1197.02 874.8 1195.51 876.536 1195.51 878.804V886H1193.07ZM1215.11 886.336C1211.13 886.336 1208.75 883.928 1208.75 879.56C1208.75 875.192 1211.27 872.588 1215.11 872.588C1218.86 872.588 1220.85 874.912 1220.85 878.524C1220.85 878.916 1220.82 879.532 1220.73 880.064H1211.19C1211.33 882.864 1212.59 884.404 1215.11 884.404C1217.23 884.404 1218.21 883.256 1218.61 881.912L1220.68 882.444C1220.09 884.712 1218.35 886.336 1215.11 886.336ZM1211.21 878.44H1218.58C1218.52 875.808 1217.37 874.38 1215.05 874.38C1212.78 874.38 1211.47 875.696 1211.21 878.44Z" fill="#1342FF"/>
<rect x="100.5" y="1000.5" width="1275" height="161" fill="#1342FF" fill-opacity="0.2"/>
<rect x="100.5" y="1000.5" width="1275" height="161" stroke="#1342FF"/>
<path d="M122.52 1059V1042.2H127.952C132.572 1042.2 134.644 1044.83 134.644 1050.49C134.644 1056.09 132.04 1059 127.924 1059H122.52ZM125.096 1056.87H127.756C130.92 1056.87 132.068 1054.52 132.068 1050.49C132.068 1045.92 130.836 1044.33 127.644 1044.33H125.096V1056.87ZM144.863 1059.34C140.887 1059.34 138.507 1056.93 138.507 1052.56C138.507 1048.19 141.027 1045.59 144.863 1045.59C148.615 1045.59 150.603 1047.91 150.603 1051.52C150.603 1051.92 150.575 1052.53 150.491 1053.06H140.943C141.083 1055.86 142.343 1057.4 144.863 1057.4C146.991 1057.4 147.971 1056.26 148.363 1054.91L150.435 1055.44C149.847 1057.71 148.111 1059.34 144.863 1059.34ZM140.971 1051.44H148.335C148.279 1048.81 147.131 1047.38 144.807 1047.38C142.539 1047.38 141.223 1048.7 140.971 1051.44ZM159.254 1059L154.214 1045.92H156.818L158.47 1050.91C159.17 1053.01 159.87 1054.88 160.458 1057.01H161.41C162.026 1054.94 162.782 1052.95 163.426 1050.96L165.106 1045.92H167.682L162.614 1059H159.254ZM171.377 1059V1057.07H176.417V1047.86H171.629V1045.92H178.853V1057.07H183.277V1059H171.377ZM175.605 1042.87V1040.58H178.965V1042.87H175.605ZM187.56 1052.56C187.56 1048.19 189.968 1045.59 193.972 1045.59C197.304 1045.59 199.152 1047.16 199.712 1050.04L197.5 1050.54C197.052 1048.72 196.1 1047.58 193.916 1047.58C191.368 1047.58 190.024 1049.23 190.024 1052.48C190.024 1055.42 191.2 1057.32 193.972 1057.32C196.128 1057.32 197.192 1055.92 197.584 1054.38L199.768 1055.05C199.18 1057.77 197.136 1059.34 194 1059.34C189.856 1059.34 187.56 1056.87 187.56 1052.56ZM210.379 1059.34C206.403 1059.34 204.023 1056.93 204.023 1052.56C204.023 1048.19 206.543 1045.59 210.379 1045.59C214.131 1045.59 216.119 1047.91 216.119 1051.52C216.119 1051.92 216.091 1052.53 216.007 1053.06H206.459C206.599 1055.86 207.859 1057.4 210.379 1057.4C212.507 1057.4 213.487 1056.26 213.879 1054.91L215.951 1055.44C215.363 1057.71 213.627 1059.34 210.379 1059.34ZM206.487 1051.44H213.851C213.795 1048.81 212.647 1047.38 210.323 1047.38C208.055 1047.38 206.739 1048.7 206.487 1051.44ZM236.472 1059V1042.2H240.42L241.988 1049.82C242.24 1051.05 242.436 1052.84 242.716 1054.74H243.164C243.5 1052.31 243.78 1050.4 244.2 1048.14L245.264 1042.2H249.212V1059H246.944V1051.02C246.944 1048.7 247.112 1046.06 247.224 1044.27H246.608C246.328 1046.09 246.076 1048.16 245.712 1049.93L244.2 1056.93H241.54L239.832 1049.26C239.552 1047.97 239.216 1045.95 238.936 1044.27H238.432C238.516 1046.01 238.712 1048.44 238.712 1050.29V1059H236.472ZM259.515 1059.34C255.539 1059.34 253.159 1056.93 253.159 1052.56C253.159 1048.19 255.679 1045.59 259.515 1045.59C263.267 1045.59 265.255 1047.91 265.255 1051.52C265.255 1051.92 265.227 1052.53 265.143 1053.06H255.595C255.735 1055.86 256.995 1057.4 259.515 1057.4C261.643 1057.4 262.623 1056.26 263.015 1054.91L265.087 1055.44C264.499 1057.71 262.763 1059.34 259.515 1059.34ZM255.623 1051.44H262.987C262.931 1048.81 261.783 1047.38 259.459 1047.38C257.191 1047.38 255.875 1048.7 255.623 1051.44ZM269.482 1059V1045.92H271.414V1047.94H271.694C272.114 1046.51 273.038 1045.64 274.27 1045.64C275.53 1045.64 276.258 1046.43 276.454 1047.94H276.762C277.21 1046.6 278.078 1045.64 279.338 1045.64C280.878 1045.64 281.83 1046.79 281.83 1048.75V1059H279.73V1049.42C279.73 1048.44 279.254 1047.77 278.386 1047.77C277.322 1047.77 276.706 1048.56 276.706 1050.15V1059H274.634V1049.42C274.634 1048.36 274.13 1047.77 273.262 1047.77C272.31 1047.77 271.582 1048.61 271.582 1050.01V1059H269.482ZM285.637 1052.42C285.637 1048.39 288.101 1045.59 291.993 1045.59C295.857 1045.59 298.321 1048.39 298.321 1052.42C298.321 1056.42 296.053 1059.34 291.993 1059.34C287.905 1059.34 285.637 1056.42 285.637 1052.42ZM288.073 1052.39C288.073 1055.19 289.221 1057.35 291.965 1057.35C294.709 1057.35 295.885 1055.19 295.885 1052.39C295.885 1049.59 294.625 1047.58 291.993 1047.58C289.333 1047.58 288.073 1049.59 288.073 1052.39ZM303.528 1059V1045.92H305.74V1049.79L305.992 1049.82C307 1046.99 308.904 1045.64 311.228 1045.64C312.488 1045.64 313.44 1045.92 314.756 1046.57L314.196 1048.78C313.048 1048.16 311.872 1047.83 310.808 1047.83C307.868 1047.83 305.936 1049.65 305.936 1052.9V1059H303.528ZM317.779 1063.76L318.171 1061.63C318.759 1061.74 319.319 1061.8 319.879 1061.8C321.531 1061.8 322.483 1061.35 323.659 1058.94L317.807 1045.92H320.523L322.231 1050.63C322.903 1052.53 323.883 1055.02 324.583 1057.12H325.283C325.983 1054.97 326.879 1052.42 327.523 1050.63L329.119 1045.92H331.723L325.843 1059.17C324.359 1062.47 322.735 1063.93 319.851 1063.93C318.983 1063.93 318.339 1063.84 317.779 1063.76Z" fill="#1342FF"/>
<rect x="187.5" y="479.5" width="171" height="58" fill="#1342FF" fill-opacity="0.2"/>
<rect x="187.5" y="479.5" width="171" height="58" stroke="#1342FF"/>
<path d="M201.8 517.5V500.7H207.596C211.432 500.7 213.196 502.492 213.196 505.88C213.196 508.4 212.076 510.136 210.032 510.864L213.924 516.94V517.5H211.068L207.484 511.256H204.348V517.5H201.8ZM204.348 509.184H207.372C209.556 509.184 210.648 508.148 210.648 505.908C210.648 503.724 209.808 502.8 207.316 502.8H204.348V509.184ZM223.863 517.836C219.887 517.836 217.507 515.428 217.507 511.06C217.507 506.692 220.027 504.088 223.863 504.088C227.615 504.088 229.603 506.412 229.603 510.024C229.603 510.416 229.575 511.032 229.491 511.564H219.943C220.083 514.364 221.343 515.904 223.863 515.904C225.991 515.904 226.971 514.756 227.363 513.412L229.435 513.944C228.847 516.212 227.111 517.836 223.863 517.836ZM219.971 509.94H227.335C227.279 507.308 226.131 505.88 223.807 505.88C221.539 505.88 220.223 507.196 219.971 509.94ZM233.998 509.044C233.998 506.02 236.154 504.424 239.766 504.424H246.346V506.188H244.89C244.162 506.188 243.098 506.104 241.754 505.936L241.726 506.356C243.574 506.748 245.198 507.588 245.198 509.436C245.198 511.872 243.238 513.468 239.57 513.468C238.758 513.468 238.058 513.384 237.414 513.244L236.994 513.86C236.742 514.252 236.602 514.532 236.602 514.896C236.602 515.484 237.078 515.708 238.058 515.708H242.174C244.89 515.708 246.43 516.856 246.43 518.9C246.43 521.588 244.778 522.792 239.57 522.792C234.726 522.792 233.242 521.672 233.242 519.908C233.242 518.732 234.418 517.948 236.042 517.5V517.192C235.202 516.94 234.67 516.38 234.67 515.54C234.67 514.812 235.146 514.28 235.902 513.776L236.91 513.076C235.006 512.432 233.998 511.004 233.998 509.044ZM236.238 508.96C236.238 510.64 237.162 511.648 239.598 511.648C242.034 511.648 243.07 510.668 243.07 508.96C243.07 507.336 241.894 506.272 239.57 506.272C237.218 506.272 236.238 507.364 236.238 508.96ZM237.722 517.36C236.042 517.36 235.23 518.312 235.23 519.18C235.23 520.44 236.238 521 239.794 521C243.518 521 244.414 520.3 244.414 519.04C244.414 518.032 243.63 517.36 242.006 517.36H237.722ZM250.377 517.5V515.568H255.417V506.356H250.629V504.424H257.853V515.568H262.277V517.5H250.377ZM254.605 501.372V499.076H257.965V501.372H254.605ZM272.916 517.836C269.136 517.836 267.288 516.212 266.728 513.804L268.968 513.356C269.416 514.952 270.592 516.044 272.944 516.044C274.904 516.044 276.164 515.428 276.164 514.084C276.164 512.628 274.568 512.18 272.496 511.844C269.668 511.396 267.428 510.584 267.428 507.952C267.428 505.712 269.192 504.088 272.776 504.088C276.332 504.088 277.564 505.6 278.124 507.644L275.912 508.064C275.492 506.384 274.456 505.852 272.692 505.852C270.732 505.852 269.78 506.552 269.78 507.756C269.78 509.212 271.292 509.604 273.252 509.94C276.416 510.444 278.6 511.172 278.6 513.944C278.6 516.156 276.836 517.836 272.916 517.836ZM285.963 512.656V506.356H282.603V504.424H285.963V500.7H288.399V504.424H294.923V506.356H288.399V512.292C288.399 514.56 289.267 515.736 291.507 515.736C292.459 515.736 293.467 515.512 294.755 514.952L295.231 516.856C293.775 517.5 292.487 517.836 290.975 517.836C287.475 517.836 285.963 515.652 285.963 512.656ZM305.757 517.836C301.781 517.836 299.401 515.428 299.401 511.06C299.401 506.692 301.921 504.088 305.757 504.088C309.509 504.088 311.497 506.412 311.497 510.024C311.497 510.416 311.469 511.032 311.385 511.564H301.837C301.977 514.364 303.237 515.904 305.757 515.904C307.885 515.904 308.865 514.756 309.257 513.412L311.329 513.944C310.741 516.212 309.005 517.836 305.757 517.836ZM301.865 509.94H309.229C309.173 507.308 308.025 505.88 305.701 505.88C303.433 505.88 302.117 507.196 301.865 509.94ZM317.012 517.5V504.424H319.224V508.288L319.476 508.316C320.484 505.488 322.388 504.144 324.712 504.144C325.972 504.144 326.924 504.424 328.24 505.068L327.68 507.28C326.532 506.664 325.356 506.328 324.292 506.328C321.352 506.328 319.42 508.148 319.42 511.396V517.5H317.012ZM338.431 517.836C334.651 517.836 332.803 516.212 332.243 513.804L334.483 513.356C334.931 514.952 336.107 516.044 338.459 516.044C340.419 516.044 341.679 515.428 341.679 514.084C341.679 512.628 340.083 512.18 338.011 511.844C335.183 511.396 332.943 510.584 332.943 507.952C332.943 505.712 334.707 504.088 338.291 504.088C341.847 504.088 343.079 505.6 343.639 507.644L341.427 508.064C341.007 506.384 339.971 505.852 338.207 505.852C336.247 505.852 335.295 506.552 335.295 507.756C335.295 509.212 336.807 509.604 338.767 509.94C341.931 510.444 344.115 511.172 344.115 513.944C344.115 516.156 342.351 517.836 338.431 517.836Z" fill="#1342FF"/>
<rect x="187.5" y="535.5" width="214" height="119" fill="#D9D9D9"/>
<rect x="187.5" y="535.5" width="214" height="119" stroke="#212525"/>
<path d="M206.884 604V587.2H212.988C216.908 587.2 218.924 589.384 218.924 592.828C218.924 595.936 216.852 598.372 213.1 598.372H209.46V604H206.884ZM209.46 596.356H212.792C215.424 596.356 216.46 594.984 216.46 592.856C216.46 590.7 215.564 589.3 212.764 589.3H209.46V596.356ZM223.739 604V590.924H225.951V594.788L226.203 594.816C227.211 591.988 229.115 590.644 231.439 590.644C232.699 590.644 233.651 590.924 234.967 591.568L234.407 593.78C233.259 593.164 232.083 592.828 231.019 592.828C228.079 592.828 226.147 594.648 226.147 597.896V604H223.739ZM238.606 597.42C238.606 593.388 241.07 590.588 244.962 590.588C248.826 590.588 251.29 593.388 251.29 597.42C251.29 601.424 249.022 604.336 244.962 604.336C240.874 604.336 238.606 601.424 238.606 597.42ZM241.042 597.392C241.042 600.192 242.19 602.348 244.934 602.348C247.678 602.348 248.854 600.192 248.854 597.392C248.854 594.592 247.594 592.576 244.962 592.576C242.302 592.576 241.042 594.592 241.042 597.392ZM255.181 597.56C255.181 593.192 257.589 590.588 261.593 590.588C264.925 590.588 266.773 592.156 267.333 595.04L265.121 595.544C264.673 593.724 263.721 592.576 261.537 592.576C258.989 592.576 257.645 594.228 257.645 597.476C257.645 600.416 258.821 602.32 261.593 602.32C263.749 602.32 264.813 600.92 265.205 599.38L267.389 600.052C266.801 602.768 264.757 604.336 261.621 604.336C257.477 604.336 255.181 601.872 255.181 597.56ZM278 604.336C274.024 604.336 271.644 601.928 271.644 597.56C271.644 593.192 274.164 590.588 278 590.588C281.752 590.588 283.74 592.912 283.74 596.524C283.74 596.916 283.712 597.532 283.628 598.064H274.08C274.22 600.864 275.48 602.404 278 602.404C280.128 602.404 281.108 601.256 281.5 599.912L283.572 600.444C282.984 602.712 281.248 604.336 278 604.336ZM274.108 596.44H281.472C281.416 593.808 280.268 592.38 277.944 592.38C275.676 592.38 274.36 593.696 274.108 596.44ZM294.295 604.336C290.515 604.336 288.667 602.712 288.107 600.304L290.347 599.856C290.795 601.452 291.971 602.544 294.323 602.544C296.283 602.544 297.543 601.928 297.543 600.584C297.543 599.128 295.947 598.68 293.875 598.344C291.047 597.896 288.807 597.084 288.807 594.452C288.807 592.212 290.571 590.588 294.155 590.588C297.711 590.588 298.943 592.1 299.503 594.144L297.291 594.564C296.871 592.884 295.835 592.352 294.071 592.352C292.111 592.352 291.159 593.052 291.159 594.256C291.159 595.712 292.671 596.104 294.631 596.44C297.795 596.944 299.979 597.672 299.979 600.444C299.979 602.656 298.215 604.336 294.295 604.336ZM310.673 604.336C306.893 604.336 305.045 602.712 304.485 600.304L306.725 599.856C307.173 601.452 308.349 602.544 310.701 602.544C312.661 602.544 313.921 601.928 313.921 600.584C313.921 599.128 312.325 598.68 310.253 598.344C307.425 597.896 305.185 597.084 305.185 594.452C305.185 592.212 306.949 590.588 310.533 590.588C314.089 590.588 315.321 592.1 315.881 594.144L313.669 594.564C313.249 592.884 312.213 592.352 310.449 592.352C308.489 592.352 307.537 593.052 307.537 594.256C307.537 595.712 309.049 596.104 311.009 596.44C314.173 596.944 316.357 597.672 316.357 600.444C316.357 602.656 314.593 604.336 310.673 604.336ZM320.5 597.42C320.5 593.388 322.964 590.588 326.856 590.588C330.72 590.588 333.184 593.388 333.184 597.42C333.184 601.424 330.916 604.336 326.856 604.336C322.768 604.336 320.5 601.424 320.5 597.42ZM322.936 597.392C322.936 600.192 324.084 602.348 326.828 602.348C329.572 602.348 330.748 600.192 330.748 597.392C330.748 594.592 329.488 592.576 326.856 592.576C324.196 592.576 322.936 594.592 322.936 597.392ZM338.391 604V590.924H340.603V594.788L340.855 594.816C341.863 591.988 343.767 590.644 346.091 590.644C347.351 590.644 348.303 590.924 349.619 591.568L349.059 593.78C347.911 593.164 346.735 592.828 345.671 592.828C342.731 592.828 340.799 594.648 340.799 597.896V604H338.391ZM369.973 589.3L376.469 587.2H377.869V601.9H381.929V604H370.337V601.9H375.405V589.244C374.033 590.056 372.465 590.812 370.785 591.4L369.973 589.3Z" fill="#212525"/>
<rect x="430.5" y="480.5" width="171" height="58" fill="#1342FF" fill-opacity="0.2"/>
<rect x="430.5" y="480.5" width="171" height="58" stroke="#1342FF"/>
<path d="M444.8 518.5V501.7H450.596C454.432 501.7 456.196 503.492 456.196 506.88C456.196 509.4 455.076 511.136 453.032 511.864L456.924 517.94V518.5H454.068L450.484 512.256H447.348V518.5H444.8ZM447.348 510.184H450.372C452.556 510.184 453.648 509.148 453.648 506.908C453.648 504.724 452.808 503.8 450.316 503.8H447.348V510.184ZM466.863 518.836C462.887 518.836 460.507 516.428 460.507 512.06C460.507 507.692 463.027 505.088 466.863 505.088C470.615 505.088 472.603 507.412 472.603 511.024C472.603 511.416 472.575 512.032 472.491 512.564H462.943C463.083 515.364 464.343 516.904 466.863 516.904C468.991 516.904 469.971 515.756 470.363 514.412L472.435 514.944C471.847 517.212 470.111 518.836 466.863 518.836ZM462.971 510.94H470.335C470.279 508.308 469.131 506.88 466.807 506.88C464.539 506.88 463.223 508.196 462.971 510.94ZM476.998 510.044C476.998 507.02 479.154 505.424 482.766 505.424H489.346V507.188H487.89C487.162 507.188 486.098 507.104 484.754 506.936L484.726 507.356C486.574 507.748 488.198 508.588 488.198 510.436C488.198 512.872 486.238 514.468 482.57 514.468C481.758 514.468 481.058 514.384 480.414 514.244L479.994 514.86C479.742 515.252 479.602 515.532 479.602 515.896C479.602 516.484 480.078 516.708 481.058 516.708H485.174C487.89 516.708 489.43 517.856 489.43 519.9C489.43 522.588 487.778 523.792 482.57 523.792C477.726 523.792 476.242 522.672 476.242 520.908C476.242 519.732 477.418 518.948 479.042 518.5V518.192C478.202 517.94 477.67 517.38 477.67 516.54C477.67 515.812 478.146 515.28 478.902 514.776L479.91 514.076C478.006 513.432 476.998 512.004 476.998 510.044ZM479.238 509.96C479.238 511.64 480.162 512.648 482.598 512.648C485.034 512.648 486.07 511.668 486.07 509.96C486.07 508.336 484.894 507.272 482.57 507.272C480.218 507.272 479.238 508.364 479.238 509.96ZM480.722 518.36C479.042 518.36 478.23 519.312 478.23 520.18C478.23 521.44 479.238 522 482.794 522C486.518 522 487.414 521.3 487.414 520.04C487.414 519.032 486.63 518.36 485.006 518.36H480.722ZM493.377 518.5V516.568H498.417V507.356H493.629V505.424H500.853V516.568H505.277V518.5H493.377ZM497.605 502.372V500.076H500.965V502.372H497.605ZM515.916 518.836C512.136 518.836 510.288 517.212 509.728 514.804L511.968 514.356C512.416 515.952 513.592 517.044 515.944 517.044C517.904 517.044 519.164 516.428 519.164 515.084C519.164 513.628 517.568 513.18 515.496 512.844C512.668 512.396 510.428 511.584 510.428 508.952C510.428 506.712 512.192 505.088 515.776 505.088C519.332 505.088 520.564 506.6 521.124 508.644L518.912 509.064C518.492 507.384 517.456 506.852 515.692 506.852C513.732 506.852 512.78 507.552 512.78 508.756C512.78 510.212 514.292 510.604 516.252 510.94C519.416 511.444 521.6 512.172 521.6 514.944C521.6 517.156 519.836 518.836 515.916 518.836ZM528.963 513.656V507.356H525.603V505.424H528.963V501.7H531.399V505.424H537.923V507.356H531.399V513.292C531.399 515.56 532.267 516.736 534.507 516.736C535.459 516.736 536.467 516.512 537.755 515.952L538.231 517.856C536.775 518.5 535.487 518.836 533.975 518.836C530.475 518.836 528.963 516.652 528.963 513.656ZM548.757 518.836C544.781 518.836 542.401 516.428 542.401 512.06C542.401 507.692 544.921 505.088 548.757 505.088C552.509 505.088 554.497 507.412 554.497 511.024C554.497 511.416 554.469 512.032 554.385 512.564H544.837C544.977 515.364 546.237 516.904 548.757 516.904C550.885 516.904 551.865 515.756 552.257 514.412L554.329 514.944C553.741 517.212 552.005 518.836 548.757 518.836ZM544.865 510.94H552.229C552.173 508.308 551.025 506.88 548.701 506.88C546.433 506.88 545.117 508.196 544.865 510.94ZM560.012 518.5V505.424H562.224V509.288L562.476 509.316C563.484 506.488 565.388 505.144 567.712 505.144C568.972 505.144 569.924 505.424 571.24 506.068L570.68 508.28C569.532 507.664 568.356 507.328 567.292 507.328C564.352 507.328 562.42 509.148 562.42 512.396V518.5H560.012ZM581.431 518.836C577.651 518.836 575.803 517.212 575.243 514.804L577.483 514.356C577.931 515.952 579.107 517.044 581.459 517.044C583.419 517.044 584.679 516.428 584.679 515.084C584.679 513.628 583.083 513.18 581.011 512.844C578.183 512.396 575.943 511.584 575.943 508.952C575.943 506.712 577.707 505.088 581.291 505.088C584.847 505.088 586.079 506.6 586.639 508.644L584.427 509.064C584.007 507.384 582.971 506.852 581.207 506.852C579.247 506.852 578.295 507.552 578.295 508.756C578.295 510.212 579.807 510.604 581.767 510.94C584.931 511.444 587.115 512.172 587.115 514.944C587.115 517.156 585.351 518.836 581.431 518.836Z" fill="#1342FF"/>
<rect x="430.5" y="536.5" width="214" height="119" fill="#D9D9D9"/>
<rect x="430.5" y="536.5" width="214" height="119" stroke="#212525"/>
<path d="M449.884 605V588.2H455.988C459.908 588.2 461.924 590.384 461.924 593.828C461.924 596.936 459.852 599.372 456.1 599.372H452.46V605H449.884ZM452.46 597.356H455.792C458.424 597.356 459.46 595.984 459.46 593.856C459.46 591.7 458.564 590.3 455.764 590.3H452.46V597.356ZM466.739 605V591.924H468.951V595.788L469.203 595.816C470.211 592.988 472.115 591.644 474.439 591.644C475.699 591.644 476.651 591.924 477.967 592.568L477.407 594.78C476.259 594.164 475.083 593.828 474.019 593.828C471.079 593.828 469.147 595.648 469.147 598.896V605H466.739ZM481.606 598.42C481.606 594.388 484.07 591.588 487.962 591.588C491.826 591.588 494.29 594.388 494.29 598.42C494.29 602.424 492.022 605.336 487.962 605.336C483.874 605.336 481.606 602.424 481.606 598.42ZM484.042 598.392C484.042 601.192 485.19 603.348 487.934 603.348C490.678 603.348 491.854 601.192 491.854 598.392C491.854 595.592 490.594 593.576 487.962 593.576C485.302 593.576 484.042 595.592 484.042 598.392ZM498.181 598.56C498.181 594.192 500.589 591.588 504.593 591.588C507.925 591.588 509.773 593.156 510.333 596.04L508.121 596.544C507.673 594.724 506.721 593.576 504.537 593.576C501.989 593.576 500.645 595.228 500.645 598.476C500.645 601.416 501.821 603.32 504.593 603.32C506.749 603.32 507.813 601.92 508.205 600.38L510.389 601.052C509.801 603.768 507.757 605.336 504.621 605.336C500.477 605.336 498.181 602.872 498.181 598.56ZM521 605.336C517.024 605.336 514.644 602.928 514.644 598.56C514.644 594.192 517.164 591.588 521 591.588C524.752 591.588 526.74 593.912 526.74 597.524C526.74 597.916 526.712 598.532 526.628 599.064H517.08C517.22 601.864 518.48 603.404 521 603.404C523.128 603.404 524.108 602.256 524.5 600.912L526.572 601.444C525.984 603.712 524.248 605.336 521 605.336ZM517.108 597.44H524.472C524.416 594.808 523.268 593.38 520.944 593.38C518.676 593.38 517.36 594.696 517.108 597.44ZM537.295 605.336C533.515 605.336 531.667 603.712 531.107 601.304L533.347 600.856C533.795 602.452 534.971 603.544 537.323 603.544C539.283 603.544 540.543 602.928 540.543 601.584C540.543 600.128 538.947 599.68 536.875 599.344C534.047 598.896 531.807 598.084 531.807 595.452C531.807 593.212 533.571 591.588 537.155 591.588C540.711 591.588 541.943 593.1 542.503 595.144L540.291 595.564C539.871 593.884 538.835 593.352 537.071 593.352C535.111 593.352 534.159 594.052 534.159 595.256C534.159 596.712 535.671 597.104 537.631 597.44C540.795 597.944 542.979 598.672 542.979 601.444C542.979 603.656 541.215 605.336 537.295 605.336ZM553.673 605.336C549.893 605.336 548.045 603.712 547.485 601.304L549.725 600.856C550.173 602.452 551.349 603.544 553.701 603.544C555.661 603.544 556.921 602.928 556.921 601.584C556.921 600.128 555.325 599.68 553.253 599.344C550.425 598.896 548.185 598.084 548.185 595.452C548.185 593.212 549.949 591.588 553.533 591.588C557.089 591.588 558.321 593.1 558.881 595.144L556.669 595.564C556.249 593.884 555.213 593.352 553.449 593.352C551.489 593.352 550.537 594.052 550.537 595.256C550.537 596.712 552.049 597.104 554.009 597.44C557.173 597.944 559.357 598.672 559.357 601.444C559.357 603.656 557.593 605.336 553.673 605.336ZM563.5 598.42C563.5 594.388 565.964 591.588 569.856 591.588C573.72 591.588 576.184 594.388 576.184 598.42C576.184 602.424 573.916 605.336 569.856 605.336C565.768 605.336 563.5 602.424 563.5 598.42ZM565.936 598.392C565.936 601.192 567.084 603.348 569.828 603.348C572.572 603.348 573.748 601.192 573.748 598.392C573.748 595.592 572.488 593.576 569.856 593.576C567.196 593.576 565.936 595.592 565.936 598.392ZM581.391 605V591.924H583.603V595.788L583.855 595.816C584.863 592.988 586.767 591.644 589.091 591.644C590.351 591.644 591.303 591.924 592.619 592.568L592.059 594.78C590.911 594.164 589.735 593.828 588.671 593.828C585.731 593.828 583.799 595.648 583.799 598.896V605H581.391ZM612.833 605C612.805 604.524 612.805 604.02 612.805 603.516C612.805 599.792 614.261 598.364 617.621 597.132C621.401 595.844 622.381 594.752 622.381 592.792C622.381 591.084 621.513 589.88 619.441 589.88C617.117 589.88 616.109 591.42 615.745 593.772L613.365 593.352C613.925 590.076 615.773 587.892 619.413 587.892C622.913 587.892 624.845 589.684 624.845 592.96C624.845 596.18 622.325 597.608 619.105 598.672C615.717 599.848 614.765 600.744 614.681 603.348C616.333 603.096 618.965 602.9 620.757 602.9H625.013V605H612.833Z" fill="#212525"/>
<rect x="782.5" y="480.5" width="171" height="58" fill="#1342FF" fill-opacity="0.2"/>
<rect x="782.5" y="480.5" width="171" height="58" stroke="#1342FF"/>
<path d="M796.8 518.5V501.7H802.596C806.432 501.7 808.196 503.492 808.196 506.88C808.196 509.4 807.076 511.136 805.032 511.864L808.924 517.94V518.5H806.068L802.484 512.256H799.348V518.5H796.8ZM799.348 510.184H802.372C804.556 510.184 805.648 509.148 805.648 506.908C805.648 504.724 804.808 503.8 802.316 503.8H799.348V510.184ZM818.863 518.836C814.887 518.836 812.507 516.428 812.507 512.06C812.507 507.692 815.027 505.088 818.863 505.088C822.615 505.088 824.603 507.412 824.603 511.024C824.603 511.416 824.575 512.032 824.491 512.564H814.943C815.083 515.364 816.343 516.904 818.863 516.904C820.991 516.904 821.971 515.756 822.363 514.412L824.435 514.944C823.847 517.212 822.111 518.836 818.863 518.836ZM814.971 510.94H822.335C822.279 508.308 821.131 506.88 818.807 506.88C816.539 506.88 815.223 508.196 814.971 510.94ZM828.998 510.044C828.998 507.02 831.154 505.424 834.766 505.424H841.346V507.188H839.89C839.162 507.188 838.098 507.104 836.754 506.936L836.726 507.356C838.574 507.748 840.198 508.588 840.198 510.436C840.198 512.872 838.238 514.468 834.57 514.468C833.758 514.468 833.058 514.384 832.414 514.244L831.994 514.86C831.742 515.252 831.602 515.532 831.602 515.896C831.602 516.484 832.078 516.708 833.058 516.708H837.174C839.89 516.708 841.43 517.856 841.43 519.9C841.43 522.588 839.778 523.792 834.57 523.792C829.726 523.792 828.242 522.672 828.242 520.908C828.242 519.732 829.418 518.948 831.042 518.5V518.192C830.202 517.94 829.67 517.38 829.67 516.54C829.67 515.812 830.146 515.28 830.902 514.776L831.91 514.076C830.006 513.432 828.998 512.004 828.998 510.044ZM831.238 509.96C831.238 511.64 832.162 512.648 834.598 512.648C837.034 512.648 838.07 511.668 838.07 509.96C838.07 508.336 836.894 507.272 834.57 507.272C832.218 507.272 831.238 508.364 831.238 509.96ZM832.722 518.36C831.042 518.36 830.23 519.312 830.23 520.18C830.23 521.44 831.238 522 834.794 522C838.518 522 839.414 521.3 839.414 520.04C839.414 519.032 838.63 518.36 837.006 518.36H832.722ZM845.377 518.5V516.568H850.417V507.356H845.629V505.424H852.853V516.568H857.277V518.5H845.377ZM849.605 502.372V500.076H852.965V502.372H849.605ZM867.916 518.836C864.136 518.836 862.288 517.212 861.728 514.804L863.968 514.356C864.416 515.952 865.592 517.044 867.944 517.044C869.904 517.044 871.164 516.428 871.164 515.084C871.164 513.628 869.568 513.18 867.496 512.844C864.668 512.396 862.428 511.584 862.428 508.952C862.428 506.712 864.192 505.088 867.776 505.088C871.332 505.088 872.564 506.6 873.124 508.644L870.912 509.064C870.492 507.384 869.456 506.852 867.692 506.852C865.732 506.852 864.78 507.552 864.78 508.756C864.78 510.212 866.292 510.604 868.252 510.94C871.416 511.444 873.6 512.172 873.6 514.944C873.6 517.156 871.836 518.836 867.916 518.836ZM880.963 513.656V507.356H877.603V505.424H880.963V501.7H883.399V505.424H889.923V507.356H883.399V513.292C883.399 515.56 884.267 516.736 886.507 516.736C887.459 516.736 888.467 516.512 889.755 515.952L890.231 517.856C888.775 518.5 887.487 518.836 885.975 518.836C882.475 518.836 880.963 516.652 880.963 513.656ZM900.757 518.836C896.781 518.836 894.401 516.428 894.401 512.06C894.401 507.692 896.921 505.088 900.757 505.088C904.509 505.088 906.497 507.412 906.497 511.024C906.497 511.416 906.469 512.032 906.385 512.564H896.837C896.977 515.364 898.237 516.904 900.757 516.904C902.885 516.904 903.865 515.756 904.257 514.412L906.329 514.944C905.741 517.212 904.005 518.836 900.757 518.836ZM896.865 510.94H904.229C904.173 508.308 903.025 506.88 900.701 506.88C898.433 506.88 897.117 508.196 896.865 510.94ZM912.012 518.5V505.424H914.224V509.288L914.476 509.316C915.484 506.488 917.388 505.144 919.712 505.144C920.972 505.144 921.924 505.424 923.24 506.068L922.68 508.28C921.532 507.664 920.356 507.328 919.292 507.328C916.352 507.328 914.42 509.148 914.42 512.396V518.5H912.012ZM933.431 518.836C929.651 518.836 927.803 517.212 927.243 514.804L929.483 514.356C929.931 515.952 931.107 517.044 933.459 517.044C935.419 517.044 936.679 516.428 936.679 515.084C936.679 513.628 935.083 513.18 933.011 512.844C930.183 512.396 927.943 511.584 927.943 508.952C927.943 506.712 929.707 505.088 933.291 505.088C936.847 505.088 938.079 506.6 938.639 508.644L936.427 509.064C936.007 507.384 934.971 506.852 933.207 506.852C931.247 506.852 930.295 507.552 930.295 508.756C930.295 510.212 931.807 510.604 933.767 510.94C936.931 511.444 939.115 512.172 939.115 514.944C939.115 517.156 937.351 518.836 933.431 518.836Z" fill="#1342FF"/>
<rect x="782.5" y="536.5" width="214" height="119" fill="#D9D9D9"/>
<rect x="782.5" y="536.5" width="214" height="119" stroke="#212525"/>
<path d="M801.884 605V588.2H807.988C811.908 588.2 813.924 590.384 813.924 593.828C813.924 596.936 811.852 599.372 808.1 599.372H804.46V605H801.884ZM804.46 597.356H807.792C810.424 597.356 811.46 595.984 811.46 593.856C811.46 591.7 810.564 590.3 807.764 590.3H804.46V597.356ZM818.739 605V591.924H820.951V595.788L821.203 595.816C822.211 592.988 824.115 591.644 826.439 591.644C827.699 591.644 828.651 591.924 829.967 592.568L829.407 594.78C828.259 594.164 827.083 593.828 826.019 593.828C823.079 593.828 821.147 595.648 821.147 598.896V605H818.739ZM833.606 598.42C833.606 594.388 836.07 591.588 839.962 591.588C843.826 591.588 846.29 594.388 846.29 598.42C846.29 602.424 844.022 605.336 839.962 605.336C835.874 605.336 833.606 602.424 833.606 598.42ZM836.042 598.392C836.042 601.192 837.19 603.348 839.934 603.348C842.678 603.348 843.854 601.192 843.854 598.392C843.854 595.592 842.594 593.576 839.962 593.576C837.302 593.576 836.042 595.592 836.042 598.392ZM850.181 598.56C850.181 594.192 852.589 591.588 856.593 591.588C859.925 591.588 861.773 593.156 862.333 596.04L860.121 596.544C859.673 594.724 858.721 593.576 856.537 593.576C853.989 593.576 852.645 595.228 852.645 598.476C852.645 601.416 853.821 603.32 856.593 603.32C858.749 603.32 859.813 601.92 860.205 600.38L862.389 601.052C861.801 603.768 859.757 605.336 856.621 605.336C852.477 605.336 850.181 602.872 850.181 598.56ZM873 605.336C869.024 605.336 866.644 602.928 866.644 598.56C866.644 594.192 869.164 591.588 873 591.588C876.752 591.588 878.74 593.912 878.74 597.524C878.74 597.916 878.712 598.532 878.628 599.064H869.08C869.22 601.864 870.48 603.404 873 603.404C875.128 603.404 876.108 602.256 876.5 600.912L878.572 601.444C877.984 603.712 876.248 605.336 873 605.336ZM869.108 597.44H876.472C876.416 594.808 875.268 593.38 872.944 593.38C870.676 593.38 869.36 594.696 869.108 597.44ZM889.295 605.336C885.515 605.336 883.667 603.712 883.107 601.304L885.347 600.856C885.795 602.452 886.971 603.544 889.323 603.544C891.283 603.544 892.543 602.928 892.543 601.584C892.543 600.128 890.947 599.68 888.875 599.344C886.047 598.896 883.807 598.084 883.807 595.452C883.807 593.212 885.571 591.588 889.155 591.588C892.711 591.588 893.943 593.1 894.503 595.144L892.291 595.564C891.871 593.884 890.835 593.352 889.071 593.352C887.111 593.352 886.159 594.052 886.159 595.256C886.159 596.712 887.671 597.104 889.631 597.44C892.795 597.944 894.979 598.672 894.979 601.444C894.979 603.656 893.215 605.336 889.295 605.336ZM905.673 605.336C901.893 605.336 900.045 603.712 899.485 601.304L901.725 600.856C902.173 602.452 903.349 603.544 905.701 603.544C907.661 603.544 908.921 602.928 908.921 601.584C908.921 600.128 907.325 599.68 905.253 599.344C902.425 598.896 900.185 598.084 900.185 595.452C900.185 593.212 901.949 591.588 905.533 591.588C909.089 591.588 910.321 593.1 910.881 595.144L908.669 595.564C908.249 593.884 907.213 593.352 905.449 593.352C903.489 593.352 902.537 594.052 902.537 595.256C902.537 596.712 904.049 597.104 906.009 597.44C909.173 597.944 911.357 598.672 911.357 601.444C911.357 603.656 909.593 605.336 905.673 605.336ZM915.5 598.42C915.5 594.388 917.964 591.588 921.856 591.588C925.72 591.588 928.184 594.388 928.184 598.42C928.184 602.424 925.916 605.336 921.856 605.336C917.768 605.336 915.5 602.424 915.5 598.42ZM917.936 598.392C917.936 601.192 919.084 603.348 921.828 603.348C924.572 603.348 925.748 601.192 925.748 598.392C925.748 595.592 924.488 593.576 921.856 593.576C919.196 593.576 917.936 595.592 917.936 598.392ZM933.391 605V591.924H935.603V595.788L935.855 595.816C936.863 592.988 938.767 591.644 941.091 591.644C942.351 591.644 943.303 591.924 944.619 592.568L944.059 594.78C942.911 594.164 941.735 593.828 940.671 593.828C937.731 593.828 935.799 595.648 935.799 598.896V605H933.391ZM964.609 605V588.2H968.557L970.125 595.816C970.377 597.048 970.573 598.84 970.853 600.744H971.301C971.637 598.308 971.917 596.404 972.337 594.136L973.401 588.2H977.349V605H975.081V597.02C975.081 594.696 975.249 592.064 975.361 590.272H974.745C974.465 592.092 974.213 594.164 973.849 595.928L972.337 602.928H969.677L967.969 595.256C967.689 593.968 967.353 591.952 967.073 590.272H966.569C966.653 592.008 966.849 594.444 966.849 596.292V605H964.609Z" fill="#212525"/>
<rect x="1028.5" y="480.5" width="204" height="174" fill="#786823" fill-opacity="0.2"/>
<rect x="1028.5" y="480.5" width="204" height="174" stroke="#786823"/>
<path d="M1042.94 541.828V539.7H1054.28V541.828H1049.88V554.372H1054.28V556.5H1042.94V554.372H1047.33V541.828H1042.94ZM1059.62 556.5V543.424H1061.92V546.672H1062.34C1063.15 544.684 1064.8 543.088 1066.87 543.088C1069.14 543.088 1070.49 544.684 1070.49 547.596V556.5H1068.05V548.156C1068.05 546.336 1067.43 545.3 1065.78 545.3C1063.6 545.3 1062.06 547.036 1062.06 549.304V556.5H1059.62ZM1081.57 556.836C1077.79 556.836 1075.95 555.212 1075.39 552.804L1077.63 552.356C1078.07 553.952 1079.25 555.044 1081.6 555.044C1083.56 555.044 1084.82 554.428 1084.82 553.084C1084.82 551.628 1083.23 551.18 1081.15 550.844C1078.33 550.396 1076.09 549.584 1076.09 546.952C1076.09 544.712 1077.85 543.088 1081.43 543.088C1084.99 543.088 1086.22 544.6 1086.78 546.644L1084.57 547.064C1084.15 545.384 1083.11 544.852 1081.35 544.852C1079.39 544.852 1078.44 545.552 1078.44 546.756C1078.44 548.212 1079.95 548.604 1081.91 548.94C1085.07 549.444 1087.26 550.172 1087.26 552.944C1087.26 555.156 1085.49 556.836 1081.57 556.836ZM1094.62 551.656V545.356H1091.26V543.424H1094.62V539.7H1097.06V543.424H1103.58V545.356H1097.06V551.292C1097.06 553.56 1097.92 554.736 1100.16 554.736C1101.12 554.736 1102.12 554.512 1103.41 553.952L1103.89 555.856C1102.43 556.5 1101.14 556.836 1099.63 556.836C1096.13 556.836 1094.62 554.652 1094.62 551.656ZM1109.29 556.5V543.424H1111.5V547.288L1111.76 547.316C1112.76 544.488 1114.67 543.144 1116.99 543.144C1118.25 543.144 1119.2 543.424 1120.52 544.068L1119.96 546.28C1118.81 545.664 1117.64 545.328 1116.57 545.328C1113.63 545.328 1111.7 547.148 1111.7 550.396V556.5H1109.29ZM1125.03 552.328V543.424H1127.46V551.768C1127.46 553.588 1128.11 554.596 1129.73 554.596C1131.91 554.596 1133.45 552.888 1133.45 550.592V543.424H1135.86V556.5H1133.57V553.224H1133.15C1132.33 555.24 1130.68 556.836 1128.64 556.836C1126.37 556.836 1125.03 555.24 1125.03 552.328ZM1140.73 550.06C1140.73 545.692 1143.14 543.088 1147.15 543.088C1150.48 543.088 1152.33 544.656 1152.89 547.54L1150.67 548.044C1150.23 546.224 1149.27 545.076 1147.09 545.076C1144.54 545.076 1143.2 546.728 1143.2 549.976C1143.2 552.916 1144.37 554.82 1147.15 554.82C1149.3 554.82 1150.37 553.42 1150.76 551.88L1152.94 552.552C1152.35 555.268 1150.31 556.836 1147.17 556.836C1143.03 556.836 1140.73 554.372 1140.73 550.06ZM1160.14 551.656V545.356H1156.78V543.424H1160.14V539.7H1162.57V543.424H1169.1V545.356H1162.57V551.292C1162.57 553.56 1163.44 554.736 1165.68 554.736C1166.63 554.736 1167.64 554.512 1168.93 553.952L1169.4 555.856C1167.95 556.5 1166.66 556.836 1165.15 556.836C1161.65 556.836 1160.14 554.652 1160.14 551.656ZM1173.69 556.5V554.568H1178.73V545.356H1173.94V543.424H1181.16V554.568H1185.59V556.5H1173.69ZM1177.92 540.372V538.076H1181.28V540.372H1177.92ZM1189.67 549.92C1189.67 545.888 1192.14 543.088 1196.03 543.088C1199.89 543.088 1202.36 545.888 1202.36 549.92C1202.36 553.924 1200.09 556.836 1196.03 556.836C1191.94 556.836 1189.67 553.924 1189.67 549.92ZM1192.11 549.892C1192.11 552.692 1193.26 554.848 1196 554.848C1198.75 554.848 1199.92 552.692 1199.92 549.892C1199.92 547.092 1198.66 545.076 1196.03 545.076C1193.37 545.076 1192.11 547.092 1192.11 549.892ZM1207.03 556.5V543.424H1209.33V546.672H1209.75C1210.56 544.684 1212.21 543.088 1214.29 543.088C1216.55 543.088 1217.9 544.684 1217.9 547.596V556.5H1215.46V548.156C1215.46 546.336 1214.85 545.3 1213.19 545.3C1211.01 545.3 1209.47 547.036 1209.47 549.304V556.5H1207.03ZM1105.95 596.808C1102.05 596.808 1100.04 594.568 1100.04 590.256V579.7H1102.61V590.06C1102.61 592.804 1103.31 594.68 1105.95 594.68C1108.49 594.68 1109.25 593.084 1109.25 590.2V579.7H1111.83V590.256C1111.83 594.568 1109.78 596.808 1105.95 596.808ZM1116.95 596.5V583.424H1119.25V586.672H1119.67C1120.48 584.684 1122.13 583.088 1124.2 583.088C1126.47 583.088 1127.81 584.684 1127.81 587.596V596.5H1125.38V588.156C1125.38 586.336 1124.76 585.3 1123.11 585.3C1120.93 585.3 1119.39 587.036 1119.39 589.304V596.5H1116.95ZM1132.74 596.5V594.568H1137.78V585.356H1132.99V583.424H1140.22V594.568H1144.64V596.5H1132.74ZM1136.97 580.372V578.076H1140.33V580.372H1136.97ZM1151.95 591.656V585.356H1148.59V583.424H1151.95V579.7H1154.38V583.424H1160.91V585.356H1154.38V591.292C1154.38 593.56 1155.25 594.736 1157.49 594.736C1158.44 594.736 1159.45 594.512 1160.74 593.952L1161.21 595.856C1159.76 596.5 1158.47 596.836 1156.96 596.836C1153.46 596.836 1151.95 594.652 1151.95 591.656Z" fill="#786823"/>
<circle cx="687" cy="594" r="5" fill="#212525" fill-opacity="0.8"/>
<circle cx="715" cy="594" r="5" fill="#212525" fill-opacity="0.8"/>
<circle cx="743" cy="594" r="5" fill="#212525" fill-opacity="0.8"/>
<circle cx="537" cy="158" r="4" fill="#212525" fill-opacity="0.7"/>
<circle cx="527" cy="169" r="4" fill="#212525" fill-opacity="0.7"/>
<circle cx="517" cy="180" r="4" fill="#212525" fill-opacity="0.7"/>
<path d="M381 527.853L386.774 517.853H375.226L381 527.853ZM381 445.853L375.226 455.853H386.774L381 445.853ZM382 518.853V454.853H380V518.853H382Z" fill="#786823"/>
<path d="M261 1024L266.774 1014H255.226L261 1024ZM261 667L255.226 677H266.774L261 667ZM262 1015V676H260V1015H262Z" fill="#786823"/>
<path d="M290 667L284.226 677L295.774 677L290 667ZM291 807L291 676L289 676L289 807L291 807Z" fill="#786823"/>
<path d="M319 667L313.226 677L324.774 677L319 667ZM320 696L320 676L318 676L318 696L320 696Z" fill="#786823"/>
<path d="M503 1024L508.774 1014H497.226L503 1024ZM503 667L497.226 677H508.774L503 667ZM504 1015V676H502V1015H504Z" fill="#786823"/>
<path d="M532 667L526.226 677L537.774 677L532 667ZM533 807L533 676L531 676L531 807L533 807Z" fill="#786823"/>
<path d="M561 667L555.226 677L566.774 677L561 667ZM562 696L562 676L560 676L560 696L562 696Z" fill="#786823"/>
<path d="M861 1022L866.774 1012H855.226L861 1022ZM861 665L855.226 675H866.774L861 665ZM862 1013V674H860V1013H862Z" fill="#786823"/>
<path d="M890 665L884.226 675L895.774 675L890 665ZM891 805L891 674L889 674L889 805L891 805Z" fill="#786823"/>
<path d="M919 665L913.226 675L924.774 675L919 665ZM920 694L920 674L918 674L918 694L920 694Z" fill="#786823"/>
<path d="M1076 793L1070.23 803H1081.77L1076 793ZM1077 1000V802H1075V1000H1077Z" fill="#786823"/>
<path d="M1105 932L1099.23 942H1110.77L1105 932ZM1106 1000V941H1104V1000H1106Z" fill="#786823"/>
<path d="M628 528L633.774 518H622.226L628 528ZM628 446L622.226 456H633.774L628 446ZM629 519V455H627V519H629Z" fill="#786823"/>
<path d="M980 528L985.774 518H974.226L980 528ZM980 446L974.226 456H985.774L980 446ZM981 519V455H979V519H981Z" fill="#786823"/>
</svg>
